<svg width="659" height="620" viewBox="0 0 659 620" fill="none" xmlns="http://www.w3.org/2000/svg">
<g clip-path="url(#clip0_70_126)">
<path d="M659 321.73C659.074 363.278 649.512 404.378 630.93 442.37C630.15 443.961 629.361 445.546 628.548 447.122C628.432 447.368 628.301 447.613 628.178 447.859C627.866 448.461 627.553 449.071 627.233 449.674C627.003 450.113 626.773 450.544 626.534 450.983C625.967 452.054 625.392 453.12 624.809 454.181C624.168 455.349 623.519 456.514 622.861 457.677C622.204 458.838 621.538 459.995 620.865 461.151C620.273 462.155 619.679 463.157 619.082 464.156C618.309 465.443 617.523 466.729 616.723 468.016C616.033 469.117 615.34 470.211 614.644 471.296C613.897 472.457 613.141 473.617 612.377 474.777L612.303 474.889C612.138 475.142 611.974 475.395 611.801 475.648C611.645 475.878 611.497 476.101 611.341 476.332C611.185 476.563 611.037 476.786 610.881 477.009V477.016C610.38 477.76 609.879 478.489 609.377 479.225L609.369 479.233C608.243 480.869 607.093 482.498 605.935 484.112C603.782 487.117 601.571 490.078 599.303 492.994C599.303 493.001 599.295 493.001 599.287 493.008C597.931 494.764 596.543 496.504 595.146 498.23C594.25 499.331 593.346 500.427 592.434 501.518C591.522 502.611 590.602 503.694 589.673 504.768C589.468 505.014 589.254 505.259 589.04 505.505C587.857 506.873 586.658 508.242 585.441 509.588C585.179 509.886 584.916 510.176 584.661 510.466C584.258 510.905 583.864 511.344 583.469 511.775C583.338 511.924 583.206 512.065 583.067 512.214C582.393 512.943 581.719 513.672 581.029 514.401V514.408C580.363 515.122 579.69 515.836 579.008 516.55C578.86 516.706 578.712 516.863 578.556 517.019C578.334 517.257 578.104 517.487 577.874 517.725C577.307 518.328 576.723 518.923 576.132 519.518C576.123 519.526 576.123 519.533 576.115 519.54L576.091 519.563V519.57C558.426 537.61 538.414 553.649 516.493 567.338C516.42 567.389 516.343 567.436 516.263 567.479C515.992 567.658 515.721 567.821 515.449 567.992C513.486 569.212 511.505 570.417 509.509 571.593C508.531 572.173 507.553 572.745 506.567 573.311V573.318C506.559 573.318 506.559 573.318 506.55 573.326H506.534L506.518 573.34L506.468 573.363C506.444 573.378 506.427 573.385 506.403 573.4C505.647 573.839 504.899 574.27 504.135 574.702C503.905 574.843 503.675 574.97 503.445 575.096C503.042 575.327 502.631 575.557 502.22 575.788C501.818 576.011 501.407 576.241 500.996 576.464C500.478 576.747 499.961 577.037 499.443 577.312C498.317 577.93 497.189 578.54 496.057 579.142C495.647 579.365 495.228 579.581 494.809 579.804C494.398 580.02 493.979 580.236 493.56 580.451C493.554 580.459 493.547 580.466 493.538 580.471C493.53 580.476 493.52 580.479 493.51 580.481L493.494 580.489L493.477 580.503H493.469C492.319 581.098 491.177 581.693 490.018 582.274L490.01 582.281C489.081 582.75 488.153 583.211 487.216 583.672C484.997 584.766 482.765 585.839 480.519 586.893C478.958 587.629 477.388 588.343 475.811 589.05C474.858 589.481 473.896 589.905 472.935 590.329C472.138 590.679 471.333 591.028 470.536 591.37C470.314 591.467 470.1 591.564 469.878 591.653C469.517 591.809 469.147 591.966 468.785 592.114C468.481 592.241 468.185 592.367 467.881 592.494C467.158 592.806 466.427 593.104 465.704 593.401C464.891 593.736 464.085 594.063 463.272 594.39C460.215 595.625 457.125 596.815 454.028 597.961C442.961 602.063 431.651 605.604 420.149 608.568C419.615 608.709 419.073 608.85 418.53 608.984C413.608 610.234 408.651 611.377 403.658 612.413C394.94 614.228 386.142 615.718 377.265 616.883C377.248 616.883 377.224 616.891 377.207 616.891C376.147 617.032 375.079 617.166 374.019 617.3C373.929 617.315 373.83 617.33 373.732 617.337C373.723 617.344 373.715 617.344 373.699 617.337H373.691C372.515 617.478 371.34 617.62 370.157 617.754C370.075 617.768 369.993 617.776 369.911 617.783C368.81 617.902 367.7 618.021 366.591 618.133C365.4 618.252 364.208 618.364 363.009 618.475H363C361.176 618.639 359.352 618.795 357.528 618.929C357.495 618.929 357.462 618.936 357.429 618.936C356.706 618.996 355.983 619.041 355.26 619.093H355.252C346.747 619.703 338.163 620.005 329.5 620C320.091 620 310.779 619.645 301.562 618.936C301.529 618.936 301.496 618.929 301.464 618.929C299.5 618.78 297.539 618.617 295.58 618.438C295.063 618.393 294.553 618.341 294.036 618.297C293.937 618.289 293.838 618.282 293.74 618.267C293.584 618.252 293.427 618.237 293.263 618.222C293.181 618.215 293.09 618.208 293.008 618.193C292.326 618.126 291.644 618.059 290.954 617.984C290.19 617.902 289.418 617.821 288.653 617.731C287.889 617.65 287.117 617.56 286.353 617.464C286.188 617.449 286.016 617.434 285.851 617.404C285.293 617.345 284.734 617.278 284.183 617.203C283.912 617.174 283.649 617.137 283.386 617.099C282.852 617.032 282.326 616.965 281.792 616.891C281.776 616.891 281.751 616.884 281.735 616.884C264.955 614.69 248.391 611.31 232.195 606.775H232.187C231.307 606.53 230.428 606.277 229.549 606.024C229.286 605.957 229.023 605.883 228.76 605.801C226.476 605.139 224.205 604.454 221.948 603.748C218.834 602.781 215.742 601.769 212.671 600.713C211.833 600.423 211.003 600.133 210.165 599.843C208.497 599.248 206.837 598.653 205.186 598.043C202.367 597.001 199.568 595.928 196.788 594.822H196.78V594.815C194.586 593.937 192.4 593.044 190.231 592.114C189.836 591.951 189.442 591.787 189.048 591.616C188.972 591.596 188.9 591.566 188.834 591.527C188.826 591.527 188.826 591.52 188.817 591.52C188.25 591.281 187.684 591.036 187.117 590.791L187.1 590.783C184.199 589.526 181.324 588.229 178.472 586.893C174.939 585.242 171.436 583.531 167.963 581.761C165.087 580.295 162.238 578.79 159.417 577.246C156.073 575.416 152.764 573.531 149.491 571.593C148.472 570.99 147.453 570.38 146.434 569.763C145.514 569.205 144.602 568.647 143.69 568.082C140.469 566.088 137.289 564.043 134.15 561.945C130.904 559.781 127.705 557.562 124.553 555.288C120.444 552.328 116.418 549.283 112.474 546.154C105.119 540.338 98.0666 534.228 91.3151 527.826C91.1014 527.626 90.8878 527.425 90.6741 527.216C90.0004 526.577 89.3348 525.937 88.6693 525.29C87.6997 524.353 86.7383 523.401 85.7851 522.449C84.2074 520.894 82.6572 519.322 81.1343 517.733H81.1261V517.725C80.1976 516.766 79.2937 515.814 78.3734 514.847V514.839C78.242 514.706 78.1188 514.572 77.9954 514.438C77.412 513.82 76.8451 513.21 76.2782 512.586V512.578C75.5057 511.753 74.7497 510.927 74.0103 510.094C73.8459 509.915 73.6897 509.744 73.5337 509.566H73.5254V509.558C72.9174 508.889 72.3175 508.212 71.726 507.535C71.4218 507.2 71.1261 506.858 70.8302 506.516H70.822V506.509C69.0308 504.463 67.2751 502.398 65.555 500.313V500.305C65.0784 499.733 64.6101 499.16 64.1499 498.58H64.1417C61.9395 495.887 59.7949 493.162 57.7078 490.405V490.398C56.919 489.364 56.1384 488.322 55.366 487.274C54.5935 486.225 53.8293 485.174 53.0735 484.12H53.0653C52.2846 483.034 51.5122 481.943 50.748 480.847C50.707 480.788 50.6659 480.735 50.633 480.683C49.877 479.605 49.132 478.519 48.398 477.426C47.8063 476.555 47.223 475.692 46.656 474.822C46.2616 474.235 45.8754 473.654 45.4974 473.059C45.3577 472.858 45.2345 472.658 45.1112 472.464C44.2403 471.118 43.3857 469.772 42.5311 468.418C41.5368 466.826 40.5508 465.22 39.5894 463.613C39.195 462.951 38.8005 462.282 38.4144 461.612C38.2748 461.396 38.1514 461.181 38.0282 460.957C37.568 460.169 37.1079 459.381 36.6559 458.585C36.2041 457.796 35.7521 457 35.3084 456.204C34.8646 455.408 34.4209 454.613 33.9854 453.809C33.6567 453.207 33.3281 452.597 33.0076 451.994C32.9743 451.944 32.9442 451.892 32.9173 451.838C32.7693 451.555 32.6132 451.28 32.4736 450.998C32.4407 450.954 32.4157 450.907 32.3995 450.856C32.0627 450.231 31.734 449.614 31.4135 448.989C30.9862 448.186 30.5754 447.375 30.1645 446.565C29.8687 445.999 29.5893 445.426 29.3018 444.854C28.891 444.05 28.4883 443.24 28.0938 442.421C27.6748 441.581 27.2721 440.733 26.8695 439.885C26.7628 439.669 26.6641 439.461 26.5656 439.245C26.3765 438.859 26.1958 438.472 26.0151 438.085C25.5303 437.059 25.0537 436.017 24.5852 434.983C24.0512 433.816 23.5308 432.645 23.0241 431.473C22.5392 430.379 22.0681 429.283 21.6108 428.185L21.4382 427.783V427.776C14.2985 410.79 8.89643 393.246 5.30001 375.367V375.359C3.24935 365.151 1.79021 354.852 0.928584 344.506C0.879332 343.94 0.838207 343.375 0.797122 342.81C0.254875 335.81 -0.0108076 328.784 7.7148e-05 321.73C7.7148e-05 318.598 0.0548543 315.482 0.164414 312.38C2.29496 247.533 27.8313 185.103 72.868 134.638C74.8484 132.414 76.8643 130.217 78.9157 128.048C81.1672 125.668 83.457 123.32 85.7851 121.004C87.3956 119.397 89.0253 117.81 90.6742 116.243C90.705 116.212 90.7379 116.182 90.7728 116.154C90.9453 115.983 91.1261 115.812 91.3151 115.641C101.372 106.106 112.119 97.1881 123.484 88.9453C124.783 87.9932 126.081 87.0634 127.396 86.1486C128.562 85.323 129.729 84.5047 130.904 83.7088C132.268 82.7716 133.641 81.8468 135.021 80.9344C142.211 76.1666 149.614 71.6641 157.231 67.4268C160.411 65.6566 163.627 63.9359 166.878 62.2647C168.061 61.6473 169.261 61.0448 170.461 60.4422C172.088 59.6316 173.715 58.8282 175.358 58.0472C224.193 34.6944 278.723 22.8112 333.948 23.487C389.173 24.1628 443.328 37.3758 491.448 61.915C491.678 62.0266 491.908 62.1456 492.13 62.2647C493.543 62.9937 494.948 63.7226 496.345 64.4739C498.169 65.4408 499.98 66.4252 501.776 67.4268C510.848 72.4773 519.624 77.9047 528.104 83.7088C529.418 84.609 530.733 85.5163 532.031 86.4388C533.206 87.2643 534.373 88.1049 535.532 88.9453C536.164 89.4066 536.805 89.8751 537.438 90.3438C551.313 100.57 564.248 111.799 576.115 123.92L576.132 123.934C576.312 124.12 576.493 124.299 576.666 124.485C577.233 125.065 577.8 125.653 578.358 126.233C578.432 126.307 578.506 126.389 578.58 126.464C579.402 127.319 580.218 128.182 581.029 129.052C590.907 139.609 599.965 150.773 608.137 162.464C611.177 166.793 614.086 171.201 616.863 175.689C644.575 220.27 659.09 270.576 659 321.73Z" fill="#3F3D56"/>
<path d="M561.308 18.3592L581.028 501.608V501.616C580.363 502.448 579.689 503.28 579.007 504.111C578.637 504.57 578.259 505.021 577.873 505.48C577.306 506.182 576.723 506.875 576.131 507.568C576.123 507.576 576.123 507.585 576.115 507.594L576.09 507.62V507.629C558.794 528.295 538.781 546.977 516.492 563.261V563.452L516.262 563.426C515.991 563.634 515.72 563.824 515.449 564.024C513.485 565.444 511.505 566.848 509.508 568.216C508.53 568.892 507.55 569.559 506.566 570.218V570.226C506.558 570.226 506.558 570.226 506.55 570.235H506.533L506.517 570.252L506.468 570.278C506.443 570.295 506.427 570.304 506.402 570.322C505.646 570.833 504.898 571.335 504.134 571.838C503.904 572.002 503.674 572.149 503.444 572.297C503.041 572.565 502.63 572.834 502.219 573.102C501.817 573.362 501.406 573.631 500.995 573.891C499.36 574.947 497.708 575.987 496.057 577.009C495.646 577.269 495.227 577.52 494.808 577.78C494.397 578.031 493.978 578.283 493.559 578.534V578.56L493.51 578.568L493.493 578.577L493.477 578.594H493.468C492.318 579.288 491.176 579.981 490.017 580.656L490.009 580.665C489.081 581.211 488.152 581.748 487.215 582.285C484.997 583.558 482.762 584.815 480.519 586.036C478.957 586.894 477.388 587.725 475.81 588.548C474.857 589.051 473.896 589.544 472.934 590.038C472.137 590.445 471.332 590.852 470.535 591.251C470.313 591.363 470.099 591.476 469.878 591.58C469.516 591.762 469.146 591.944 468.785 592.117H190.23C189.836 591.927 189.441 591.736 189.047 591.537C188.97 591.512 188.898 591.477 188.833 591.433C188.825 591.433 188.825 591.424 188.817 591.424C188.25 591.147 187.683 590.861 187.116 590.575L187.099 590.567C184.199 589.103 181.323 587.592 178.472 586.036C172.005 582.519 165.653 578.773 159.417 574.8C156.072 572.669 152.764 570.475 149.49 568.216C148.472 567.515 147.453 566.804 146.434 566.085C145.513 565.436 144.601 564.786 143.689 564.128C140.468 561.806 137.288 559.424 134.149 556.981C130.904 554.46 127.705 551.875 124.552 549.227C120.444 545.78 116.417 542.234 112.473 538.589C105.119 531.815 98.066 524.7 91.3144 517.244C91.1008 517.01 90.8872 516.776 90.6735 516.534C89.022 514.706 87.3922 512.855 85.7844 510.981L102.218 18.3592C102.203 15.3674 102.808 12.3996 104.001 9.60965C106.499 3.89229 111.372 0.00268555 116.968 0.00268555H546.558C552.228 0.00268555 557.15 3.98768 559.615 9.82626C559.697 10.017 559.771 10.2076 559.845 10.3981C560.825 12.9583 561.319 15.6499 561.308 18.3592Z" fill="#3F3D56"/>
<path d="M156.623 55.8434C168.876 55.8434 178.809 45.3714 178.809 32.4537C178.809 19.5359 168.876 9.06396 156.623 9.06396C144.37 9.06396 134.437 19.5359 134.437 32.4537C134.437 45.3714 144.37 55.8434 156.623 55.8434Z" fill="white"/>
<path d="M391.624 95.14C354.221 104.046 312.778 109.464 270.639 110.947C264.463 111.251 258.273 111.213 252.103 110.833C238.542 109.8 226.927 105.942 213.991 103.834C207.772 102.823 200.845 102.084 194.584 100.992C196.031 99.3675 197.504 97.7627 199.002 96.1779C212.502 97.2103 226.213 100.59 239.875 102.16C263.1 104.834 289.121 101.851 306.727 94.4934C315.269 90.9234 321.812 86.4676 330.324 82.8814C331.482 82.3433 332.736 81.9956 334.028 81.8544C336.723 81.6316 339.088 82.6151 341.015 83.4954C355.296 90.0214 376.029 95.3248 395.274 92.4068C396.709 93.4229 393.983 94.5803 391.624 95.14Z" fill="white"/>
<path d="M384.384 176.661C384.624 176.621 384.865 176.59 385.106 176.552C384.094 175.985 383.141 175.335 382.259 174.611L384.384 176.661Z" fill="white"/>
<path d="M542.083 194.286C531.081 195.081 520.021 195.674 508.903 196.063C500.45 196.476 491.976 196.424 483.529 195.907C464.967 194.486 449.067 189.213 431.36 186.327C415.131 183.686 395.411 182.414 385.107 176.553C411.738 172.38 439.33 180.875 466.791 184.036C489.004 186.508 511.521 185.502 533.357 181.06C536.397 185.39 539.306 189.798 542.083 194.286Z" fill="white"/>
<path d="M312.902 373.291V366.166C312.9 363.444 311.749 360.825 309.685 358.845C307.62 356.866 304.798 355.676 301.796 355.518V327.692H299.183V355.487H287.424V373.227H231.895V577.248H354.712V413.289C354.711 403.048 350.378 393.195 342.602 385.756C334.826 378.318 324.198 373.857 312.902 373.291Z" fill="#2F2E41"/>
<path d="M268.478 402.204H252.146V414.032H268.478V402.204Z" fill="white"/>
<path d="M295.263 402.204H278.931V414.032H295.263V402.204Z" fill="white"/>
<path d="M322.047 402.204H305.715V414.032H322.047V402.204Z" fill="white"/>
<path d="M268.478 432.364H252.146V444.191H268.478V432.364Z" fill="white"/>
<path d="M295.263 432.364H278.931V444.191H295.263V432.364Z" fill="white"/>
<path d="M322.047 432.364H305.715V444.191H322.047V432.364Z" fill="white"/>
<path d="M268.478 462.523H252.146V474.351H268.478V462.523Z" fill="white"/>
<path d="M295.263 462.523H278.931V474.351H295.263V462.523Z" fill="white"/>
<path d="M322.047 462.523H305.715V474.351H322.047V462.523Z" fill="white"/>
<path d="M268.478 492.683H252.146V504.51H268.478V492.683Z" fill="white"/>
<path d="M295.263 492.683H278.931V504.51H295.263V492.683Z" fill="white"/>
<path d="M322.047 492.683H305.715V504.51H322.047V492.683Z" fill="white"/>
<path d="M268.478 522.843H252.146V534.67H268.478V522.843Z" fill="white"/>
<path d="M295.263 522.843H278.931V534.67H295.263V522.843Z" fill="white"/>
<path d="M322.047 522.843H305.715V534.67H322.047V522.843Z" fill="white"/>
<path d="M268.478 553.002H252.146V564.829H268.478V553.002Z" fill="white"/>
<path d="M295.263 553.002H278.931V564.829H295.263V553.002Z" fill="white"/>
<path d="M322.047 553.002H305.715V564.829H322.047V553.002Z" fill="white"/>
<path d="M235.284 313.935V577.245H159.417C156.073 575.416 152.764 573.531 149.491 571.593C148.472 570.99 147.453 570.38 146.434 569.763C145.514 569.205 144.602 568.647 143.69 568.082C140.469 566.088 137.289 564.043 134.15 561.945C130.904 559.781 127.705 557.562 124.553 555.288C120.444 552.328 116.418 549.283 112.474 546.154V273.873H134.355V242.238H156.566V212.077H159.179V242.238H175.473C178.602 242.239 181.603 243.364 183.816 245.367C186.029 247.37 187.272 250.087 187.273 252.919V273.873H191.028C200.57 273.873 209.856 276.664 217.504 281.83C225.152 286.995 230.751 294.259 233.468 302.539C233.941 303.997 234.325 305.477 234.619 306.973C235.062 309.272 235.284 311.601 235.284 313.935Z" fill="#2F2E41"/>
<path d="M200.336 297.828H147.421V301.377H200.336V297.828Z" fill="white"/>
<path d="M200.336 319.709H147.421V323.257H200.336V319.709Z" fill="white"/>
<path d="M200.336 341.589H147.421V345.138H200.336V341.589Z" fill="white"/>
<path d="M200.336 363.47H147.421V367.018H200.336V363.47Z" fill="white"/>
<path d="M200.336 385.35H147.421V388.899H200.336V385.35Z" fill="white"/>
<path d="M200.336 407.231H147.421V410.779H200.336V407.231Z" fill="white"/>
<path d="M200.336 429.111H147.421V432.66H200.336V429.111Z" fill="white"/>
<path d="M200.336 450.992H147.421V454.54H200.336V450.992Z" fill="white"/>
<path d="M200.336 472.872H147.421V476.421H200.336V472.872Z" fill="white"/>
<path d="M200.336 494.753H147.421V498.301H200.336V494.753Z" fill="white"/>
<path d="M200.336 516.633H147.421V520.181H200.336V516.633Z" fill="white"/>
<path d="M200.336 538.514H147.421V542.062H200.336V538.514Z" fill="white"/>
<path d="M168.979 248.745H152.647V260.572H168.979V248.745Z" fill="white"/>
<path d="M559.846 10.3985C559.772 10.205 559.698 10.019 559.616 9.8258C557.15 3.98678 552.229 0 546.559 0H116.968C111.373 0 106.5 3.89016 104.002 9.61004C102.809 12.3993 102.204 15.3663 102.219 18.3573L85.7852 522.449C86.7383 523.401 87.6997 524.353 88.6693 525.29C89.3348 525.937 90.0004 526.577 90.6742 527.216L107.108 18.3573C107.104 16.9153 107.314 15.4792 107.733 14.0878C107.734 14.0648 107.74 14.0422 107.749 14.0208C109.162 9.39429 112.761 6.09926 116.968 6.09926H546.559C547.566 6.10048 548.562 6.29042 549.484 6.65712C553.33 8.14475 556.164 12.4738 556.395 17.6729C556.403 17.9035 556.411 18.1267 556.411 18.3573L576.132 507.565C576.723 506.873 577.307 506.181 577.874 505.482C578.087 505.229 578.293 504.976 578.498 504.731C578.671 504.523 578.843 504.322 579.008 504.113C579.69 503.281 580.363 502.447 581.029 501.614V501.607L561.308 18.3574C561.32 15.6488 560.825 12.9579 559.846 10.3985ZM178.472 586.893C181.324 588.232 184.199 589.528 187.1 590.783L187.116 590.79C187.684 591.036 188.25 591.281 188.817 591.519C188.826 591.519 188.826 591.527 188.834 591.527C188.9 591.566 188.972 591.596 189.048 591.616C189.442 591.787 189.836 591.951 190.231 592.114H468.785C469.147 591.966 469.517 591.809 469.878 591.653C470.1 591.564 470.314 591.467 470.536 591.371C471.333 591.028 472.138 590.679 472.935 590.329C473.896 589.905 474.858 589.481 475.811 589.05C477.388 588.343 478.958 587.629 480.519 586.893H178.472Z" fill="#2F2E41"/>
<path d="M558.857 62.2627H104.663V67.4249H558.857V62.2627Z" fill="#2F2E41"/>
<path d="M565.113 126.231H100.033V131.393H565.113V126.231Z" fill="#2F2E41"/>
<path d="M175.357 226.403H170.461L186.895 2.31775H191.791L175.357 226.403Z" fill="#2F2E41"/>
<path d="M496.347 227.89H491.45L471.729 2.31775H476.626L496.347 227.89Z" fill="#2F2E41"/>
<path d="M567.578 220.36H100.855V235.135H567.578V220.36Z" fill="#2F2E41"/>
<path d="M335.058 212.209H339.955C341.133 212.209 342.301 212.419 343.39 212.827C344.479 213.235 345.469 213.834 346.302 214.589C347.136 215.343 347.797 216.239 348.248 217.225C348.699 218.211 348.931 219.267 348.931 220.335H326.081C326.081 218.179 327.027 216.113 328.71 214.589C330.394 213.065 332.677 212.208 335.058 212.208V212.209Z" fill="#2F2E41"/>
<path d="M169.056 569.302C161.66 575.996 162.236 578.785 159.417 577.245C156.073 575.416 152.764 573.531 149.491 571.593C148.472 570.99 147.453 570.38 146.434 569.763C145.514 569.205 144.602 568.647 143.69 568.082C140.469 566.088 137.289 564.043 134.15 561.945C130.904 559.781 127.705 557.562 124.553 555.288C120.444 552.328 116.418 549.283 112.474 546.154C105.119 540.337 98.0665 534.228 91.315 527.826C91.1014 527.626 90.8877 527.425 90.6741 527.216C90.0003 526.577 89.3347 525.937 88.6692 525.29L92.0135 514.356L96.122 354.993L96.3685 306.973L96.3849 302.539L100.033 233.097L100.058 228.664L102.178 135.04L102.194 131.395L102.227 126.233L90.7727 116.154L107.453 67.4268L107.478 62.2648L107.732 14.0879L107.749 10.1531C116.451 2.9826 128.768 1.57688 143.83 2.84132C144.577 2.90832 145.341 2.97533 146.106 3.04959L146.311 6.0993L146.689 11.5365V11.5441L149.647 54.6556V54.6705L150.173 62.2649L150.526 67.4269L151.455 80.9345L138.127 126.233L138.48 131.395L141.052 168.824L141.406 173.986L142.137 184.637L145.161 228.664L145.465 233.097L146.089 242.238L146.87 253.544L146.96 254.861L147.313 260.023L148.332 274.855L148.612 278.99L149.902 297.831L150.074 300.345L150.148 301.379L150.231 302.54L150.362 304.474L150.535 306.973L151.151 315.943L151.406 319.707L151.652 323.255L151.825 325.821L152.112 329.957L152.334 333.155L152.909 341.59L153.156 345.138L153.575 351.304L153.83 354.993L153.862 355.44L154.413 363.473L154.659 367.021L154.84 369.766L155.325 376.795L155.613 380.923L155.917 385.349L156.155 388.897L157.075 402.27L157.355 406.406L157.412 407.232L157.659 410.78L158.826 427.754L158.916 429.115L159.105 431.889L159.154 432.663L160.42 450.99L160.576 453.237L160.666 454.538L160.855 457.372L161.923 472.873L162.17 476.421L162.326 478.72L162.605 482.855L163.419 494.756L163.665 498.304L164.068 504.21L164.356 508.338L164.922 516.632L165.169 520.18L165.818 529.686L166.106 533.814L166.286 538.515L166.426 542.063L169.056 569.302Z" fill="#CCCCCC"/>
<path d="M578.556 517.019C578.334 517.257 578.104 517.487 577.874 517.725C577.307 518.328 576.723 518.923 576.132 519.518C576.123 519.526 576.123 519.533 576.115 519.54L576.091 519.562V519.57C558.426 537.61 538.414 553.649 516.493 567.338C516.42 567.389 516.343 567.436 516.263 567.479C515.992 567.658 515.721 567.821 515.449 567.992C513.486 569.212 511.505 570.417 509.509 571.593C508.531 572.173 507.553 572.745 506.567 573.311V573.318C506.559 573.318 506.559 573.318 506.551 573.326H506.534L506.518 573.34L506.468 573.363C506.444 573.378 506.427 573.385 506.403 573.4C505.647 573.839 504.899 574.27 504.135 574.702C503.905 574.843 503.675 574.969 503.445 575.096C503.042 575.326 502.631 575.557 502.22 575.788C501.818 576.011 501.407 576.241 500.996 576.464C500.478 576.747 499.961 577.037 499.443 577.312L499.476 574.858L499.525 571.593L499.763 556.582L500.585 544.592L505.458 473.625L506.23 462.393L506.403 459.864L508.597 427.932L509.344 416.968L511.045 392.273L511.809 381.042L512.557 370.19L512.59 369.766L512.656 368.754L512.697 368.137V368.129L513.568 355.529L513.601 354.993L514.217 346.082V346.068L515.096 333.155L515.655 325.047L516.279 315.943L516.781 308.646L516.896 306.973L517.2 302.539L517.216 302.361L519.106 274.765L519.599 267.573V267.565L520.117 260.023L520.47 254.861L521.201 244.314L521.974 233.097L522.278 228.664L523.354 212.924V212.917L523.954 204.155L524.554 195.378L525.441 182.54L526.025 173.986L526.378 168.824L528.942 131.395L529.057 129.773L529.303 126.233L530.133 114.124L512.311 86.4388L513.617 67.4268L513.97 62.2648L517.717 7.7282L517.832 6.09928L518.038 3.04957C534.127 1.45043 547.249 2.62554 556.395 10.153L556.649 62.2648L556.674 67.4268L561.875 124.485L561.883 126.233L561.908 131.395L564.02 228.664L564.045 233.097L567.66 302.539L567.685 306.973L569.558 354.993L569.632 369.766L578.498 504.731L578.556 517.019Z" fill="#CCCCCC"/>
<path d="M509.509 571.593C508.531 572.173 507.553 572.745 506.567 573.311V573.318C506.559 573.318 506.559 573.318 506.551 573.325H506.534L506.518 573.34L506.468 573.363C506.444 573.378 506.427 573.385 506.403 573.4C505.647 573.839 504.899 574.27 504.135 574.702C503.905 574.843 503.675 574.969 503.445 575.096C503.042 575.326 502.631 575.557 502.22 575.788C501.818 576.011 501.407 576.241 500.996 576.464C500.478 576.747 499.961 577.037 499.443 577.312C498.317 577.93 497.189 578.54 496.058 579.142C495.647 579.365 495.228 579.581 494.809 579.804C494.398 580.02 493.979 580.236 493.56 580.451V580.474L493.51 580.481L493.494 580.488L493.477 580.503H493.469C492.319 581.098 491.177 581.693 490.018 582.274L490.01 582.281C489.081 582.75 488.153 583.211 487.216 583.672C484.998 584.765 482.765 585.839 480.519 586.893C478.958 587.629 477.389 588.343 475.811 589.05C474.858 589.481 473.896 589.905 472.935 590.329C472.138 590.679 471.333 591.028 470.536 591.37C470.314 591.467 470.1 591.564 469.878 591.653C469.517 591.809 469.147 591.966 468.785 592.114C468.481 592.241 468.186 592.367 467.882 592.494C467.158 592.806 466.427 593.104 465.704 593.401C464.891 593.736 464.085 594.063 463.272 594.39C460.215 595.625 457.126 596.815 454.028 597.961C442.961 602.063 431.651 605.604 420.149 608.567C419.615 608.709 419.073 608.85 418.531 608.984C413.609 610.234 408.651 611.377 403.658 612.413C394.94 614.228 386.142 615.718 377.265 616.883C377.249 616.883 377.224 616.891 377.207 616.891C376.147 617.032 375.079 617.166 374.019 617.3C373.929 617.315 373.83 617.33 373.732 617.337C373.724 617.344 373.715 617.344 373.699 617.337H373.691C372.516 617.478 371.341 617.62 370.157 617.754C370.075 617.768 369.993 617.776 369.911 617.783C368.81 617.902 367.701 618.021 366.591 618.133C365.4 618.252 364.208 618.363 363.009 618.475H363C361.176 618.639 359.352 618.795 357.528 618.929C357.495 618.929 357.462 618.936 357.429 618.936C356.706 618.996 355.983 619.04 355.26 619.092H355.252C346.747 619.702 338.163 620.005 329.5 620C320.092 620 310.779 619.645 301.562 618.936C301.529 618.936 301.496 618.929 301.464 618.929C299.5 618.78 297.539 618.616 295.58 618.438C295.063 618.393 294.553 618.341 294.036 618.297C293.937 618.289 293.838 618.282 293.74 618.267C293.584 618.252 293.428 618.237 293.263 618.222C293.181 618.215 293.091 618.207 293.009 618.193C292.326 618.126 291.644 618.059 290.954 617.984C290.19 617.902 289.418 617.821 288.654 617.731C287.889 617.65 287.117 617.56 286.353 617.464C286.188 617.449 286.016 617.434 285.852 617.404C285.293 617.345 284.734 617.278 284.184 617.203C283.912 617.173 283.649 617.136 283.387 617.099C282.852 617.032 282.327 616.965 281.792 616.891C281.776 616.891 281.751 616.883 281.735 616.883C264.955 614.69 248.391 611.31 232.195 606.775H232.187C231.307 606.53 230.428 606.277 229.549 606.024C229.286 605.957 229.023 605.882 228.76 605.801C226.476 605.139 224.205 604.454 221.948 603.748C218.834 602.781 215.742 601.769 212.671 600.713C211.833 600.423 211.003 600.133 210.165 599.843C208.497 599.248 206.837 598.652 205.186 598.043C202.367 597.001 199.568 595.928 196.788 594.822H196.78V594.814C194.586 593.937 192.4 593.044 190.231 592.114C189.836 591.951 189.442 591.787 189.048 591.616C188.972 591.596 188.9 591.566 188.834 591.527C188.826 591.527 188.826 591.519 188.818 591.519C188.251 591.281 187.684 591.036 187.117 590.79L187.1 590.783C184.2 589.526 181.324 588.229 178.472 586.893C174.939 585.241 171.436 583.531 167.963 581.76C165.087 580.295 162.239 578.79 159.417 577.245C156.073 575.416 152.764 573.531 149.491 571.593H509.509Z" fill="#2F2E41"/>
<path d="M211.676 40.2502C212.584 40.2502 213.32 39.4745 213.32 38.5176C213.32 37.5607 212.584 36.785 211.676 36.785C210.769 36.785 210.033 37.5607 210.033 38.5176C210.033 39.4745 210.769 40.2502 211.676 40.2502Z" fill="white"/>
<path d="M311.527 42.3989C312.435 42.3989 313.17 41.6232 313.17 40.6663C313.17 39.7094 312.435 38.9337 311.527 38.9337C310.619 38.9337 309.884 39.7094 309.884 40.6663C309.884 41.6232 310.619 42.3989 311.527 42.3989Z" fill="white"/>
<path d="M373.154 44.1314C374.062 44.1314 374.798 43.3557 374.798 42.3988C374.798 41.442 374.062 40.6663 373.154 40.6663C372.247 40.6663 371.511 41.442 371.511 42.3988C371.511 43.3557 372.247 44.1314 373.154 44.1314Z" fill="white"/>
<path d="M459.828 263.313C460.736 263.313 461.472 262.647 461.472 261.826C461.472 261.004 460.736 260.338 459.828 260.338C458.921 260.338 458.185 261.004 458.185 261.826C458.185 262.647 458.921 263.313 459.828 263.313Z" fill="white"/>
<path d="M360.007 179.62C360.915 179.62 361.65 178.954 361.65 178.132C361.65 177.31 360.915 176.644 360.007 176.644C359.099 176.644 358.364 177.31 358.364 178.132C358.364 178.954 359.099 179.62 360.007 179.62Z" fill="white"/>
<path d="M277.412 255.875C278.32 255.875 279.055 255.209 279.055 254.388C279.055 253.566 278.32 252.9 277.412 252.9C276.504 252.9 275.769 253.566 275.769 254.388C275.769 255.209 276.504 255.875 277.412 255.875Z" fill="white"/>
<path d="M263.443 177.775C264.351 177.775 265.087 177.109 265.087 176.287C265.087 175.465 264.351 174.799 263.443 174.799C262.536 174.799 261.8 175.465 261.8 176.287C261.8 177.109 262.536 177.775 263.443 177.775Z" fill="white"/>
<path d="M153.336 162.154C154.244 162.154 154.979 161.488 154.979 160.667C154.979 159.845 154.244 159.179 153.336 159.179C152.428 159.179 151.693 159.845 151.693 160.667C151.693 161.488 152.428 162.154 153.336 162.154Z" fill="white"/>
<path d="M528.958 465.891L527.315 465.932L529.78 547.694L531.423 547.653L528.958 465.891Z" fill="#B3B3B3"/>
<path d="M554.431 145.316L552.787 145.338L555.252 295.531L556.896 295.509L554.431 145.316Z" fill="#B3B3B3"/>
<path d="M497.979 300.504H474.778C474.254 300.503 473.737 300.605 473.261 300.805C472.786 301.004 472.365 301.295 472.028 301.657C471.704 301.601 471.376 301.572 471.046 301.572C469.587 301.572 468.187 302.097 467.155 303.031C466.123 303.965 465.543 305.232 465.543 306.553C465.543 307.875 466.123 309.142 467.155 310.076C468.187 311.01 469.587 311.535 471.046 311.535C471.877 311.535 472.697 311.362 473.443 311.031L473.83 315.336L475.368 332.349C475.441 332.562 475.539 332.767 475.66 332.96C475.971 333.477 476.43 333.908 476.989 334.209C477.547 334.509 478.185 334.668 478.835 334.668H493.922C494.573 334.668 495.211 334.509 495.77 334.208C496.33 333.908 496.79 333.477 497.102 332.96C497.22 332.766 497.316 332.561 497.39 332.349L501.447 304.753C501.614 304.262 501.651 303.742 501.556 303.236C501.46 302.729 501.235 302.25 500.897 301.837C500.56 301.424 500.12 301.088 499.614 300.856C499.107 300.625 498.547 300.504 497.979 300.504ZM471.046 310.113C470.004 310.111 469.006 309.736 468.27 309.068C467.533 308.401 467.12 307.496 467.12 306.553C467.12 305.61 467.533 304.706 468.27 304.038C469.006 303.371 470.004 302.995 471.046 302.994C471.117 302.994 471.183 303.011 471.254 303.015C471.099 303.589 471.118 304.189 471.311 304.753L472.971 309.639C472.386 309.946 471.723 310.11 471.046 310.113V310.113Z" fill="#F2F2F2"/>
<path d="M490.017 582.277L486.147 575.895L488.054 575.084L489.574 574.429L496.205 571.595L500.19 569.892L501.833 569.185L503.14 568.627L505.309 571.595L506.402 573.09L506.566 573.314V573.321C506.532 573.333 506.499 573.348 506.468 573.365C506.443 573.38 506.427 573.388 506.402 573.403C505.646 573.842 504.898 574.273 504.134 574.705C503.904 574.846 503.674 574.972 503.444 575.099C503.041 575.329 502.63 575.56 502.22 575.79C501.817 576.013 501.406 576.244 500.995 576.467C499.36 577.375 497.708 578.267 496.057 579.145C495.646 579.368 495.227 579.584 494.808 579.807C494.397 580.023 493.978 580.238 493.559 580.454V580.476L493.51 580.484L493.493 580.491L493.477 580.506H493.469C492.318 581.101 491.176 581.696 490.017 582.277Z" fill="#2F2E41"/>
<g opacity="0.49">
<path d="M486.107 289.322C486.295 289.098 486.465 288.861 486.615 288.615C486.324 288.724 486.022 288.81 485.714 288.871L486.107 289.322Z" fill="white"/>
<path d="M488.229 274.148C486.75 271.584 485.09 269.036 484.497 266.195C483.903 263.348 484.424 260.423 484.606 257.53C484.787 254.638 484.56 251.546 482.712 249.181C480.191 256.406 477.692 264.368 480.918 271.36C482.317 274.393 484.701 276.975 486.238 279.953C487.642 282.673 488.211 286.062 486.615 288.615C489.217 287.663 490.846 284.964 490.947 282.363C491.06 279.473 489.708 276.711 488.229 274.148Z" fill="white"/>
</g>
<g opacity="0.49">
<path d="M483.319 298.992C483.392 298.905 483.458 298.813 483.516 298.717C483.403 298.76 483.286 298.793 483.166 298.817L483.319 298.992Z" fill="white"/>
<path d="M484.143 293.096C483.495 292.136 483.007 291.095 482.693 290.007C482.557 288.887 482.571 287.757 482.736 286.64C482.898 285.515 482.639 284.373 482 283.396C481.02 286.204 480.05 289.297 481.303 292.013C481.846 293.192 482.773 294.195 483.37 295.352C483.679 295.865 483.853 296.435 483.879 297.019C483.904 297.603 483.78 298.184 483.516 298.717C484.018 298.494 484.442 298.148 484.739 297.719C485.036 297.29 485.196 296.795 485.199 296.288C485.156 295.16 484.793 294.061 484.143 293.096Z" fill="white"/>
</g>
<path d="M161.25 70.5732H109.483C107.957 70.5732 106.494 70.0246 105.416 69.0482C104.337 68.0718 103.731 66.7474 103.731 65.3665C103.731 63.9856 104.337 62.6612 105.416 61.6848C106.494 60.7084 107.957 60.1598 109.483 60.1598H161.25C162.775 60.1598 164.238 60.7084 165.317 61.6848C166.395 62.6612 167.001 63.9856 167.001 65.3665C167.001 66.7474 166.395 68.0718 165.317 69.0482C164.238 70.0246 162.775 70.5732 161.25 70.5732Z" fill="#2F2E41"/>
<path d="M604.977 10.696H61.8366C60.3111 10.696 58.8481 10.1474 57.7694 9.171C56.6907 8.19455 56.0847 6.87021 56.0847 5.4893C56.0847 4.1084 56.6907 2.78405 57.7694 1.8076C58.8481 0.831154 60.3111 0.282593 61.8366 0.282593H604.977C606.502 0.282593 607.965 0.831154 609.044 1.8076C610.123 2.78405 610.729 4.1084 610.729 5.4893C610.729 6.87021 610.123 8.19455 609.044 9.171C607.965 10.1474 606.502 10.696 604.977 10.696Z" fill="#2F2E41"/>
<path d="M143.172 122.64H91.4054C89.8799 122.64 88.4169 122.092 87.3383 121.115C86.2596 120.139 85.6536 118.814 85.6536 117.434C85.6536 116.053 86.2596 114.728 87.3383 113.752C88.4169 112.775 89.8799 112.227 91.4054 112.227H143.172C144.698 112.227 146.161 112.775 147.239 113.752C148.318 114.728 148.924 116.053 148.924 117.434C148.924 118.814 148.318 120.139 147.239 121.115C146.161 122.092 144.698 122.64 143.172 122.64Z" fill="#2F2E41"/>
<path d="M555.663 70.5732H503.896C502.371 70.5732 500.908 70.0246 499.829 69.0482C498.751 68.0718 498.145 66.7474 498.145 65.3665C498.145 63.9856 498.751 62.6612 499.829 61.6848C500.908 60.7084 502.371 60.1598 503.896 60.1598H555.663C557.189 60.1598 558.652 60.7084 559.73 61.6848C560.809 62.6612 561.415 63.9856 561.415 65.3665C561.415 66.7474 560.809 68.0718 559.73 69.0482C558.652 70.0246 557.189 70.5732 555.663 70.5732Z" fill="#2F2E41"/>
<path d="M576.206 120.409H524.439C522.913 120.409 521.45 119.86 520.372 118.884C519.293 117.907 518.687 116.583 518.687 115.202C518.687 113.821 519.293 112.497 520.372 111.52C521.45 110.544 522.913 109.995 524.439 109.995H576.206C577.731 109.995 579.194 110.544 580.273 111.52C581.351 112.497 581.958 113.821 581.958 115.202C581.958 116.583 581.351 117.907 580.273 118.884C579.194 119.86 577.731 120.409 576.206 120.409Z" fill="#2F2E41"/>
<path d="M112.359 138.621L110.715 138.643L113.18 288.837L114.824 288.815L112.359 138.621Z" fill="#B3B3B3"/>
<path d="M128.793 311.187L127.149 311.209L129.614 461.402L131.258 461.38L128.793 311.187Z" fill="#B3B3B3"/>
<path d="M110.715 438.37L109.072 438.41L111.537 520.173L113.18 520.132L110.715 438.37Z" fill="#B3B3B3"/>
<path d="M438.028 490.72V487.881C438.027 486.796 437.568 485.753 436.746 484.964C435.923 484.175 434.799 483.701 433.603 483.638V472.552H432.562V483.626H427.876V490.694H405.752V571.982H454.686V506.656C454.686 502.575 452.959 498.65 449.861 495.686C446.763 492.722 442.528 490.945 438.028 490.72Z" fill="#2F2E41"/>
<path d="M420.328 502.239H413.821V506.952H420.328V502.239Z" fill="white"/>
<path d="M431 502.239H424.493V506.952H431V502.239Z" fill="white"/>
<path d="M441.672 502.239H435.164V506.952H441.672V502.239Z" fill="white"/>
<path d="M420.328 514.256H413.821V518.968H420.328V514.256Z" fill="white"/>
<path d="M431 514.256H424.493V518.968H431V514.256Z" fill="white"/>
<path d="M441.672 514.256H435.164V518.968H441.672V514.256Z" fill="white"/>
<path d="M420.328 526.272H413.821V530.985H420.328V526.272Z" fill="white"/>
<path d="M431 526.272H424.493V530.985H431V526.272Z" fill="white"/>
<path d="M441.672 526.272H435.164V530.985H441.672V526.272Z" fill="white"/>
<path d="M420.328 538.289H413.821V543.001H420.328V538.289Z" fill="white"/>
<path d="M431 538.289H424.493V543.001H431V538.289Z" fill="white"/>
<path d="M441.672 538.289H435.164V543.001H441.672V538.289Z" fill="white"/>
<path d="M420.328 550.305H413.821V555.017H420.328V550.305Z" fill="white"/>
<path d="M431 550.305H424.493V555.017H431V550.305Z" fill="white"/>
<path d="M441.672 550.305H435.164V555.017H441.672V550.305Z" fill="white"/>
<path d="M420.328 562.321H413.821V567.034H420.328V562.321Z" fill="white"/>
<path d="M431 562.321H424.493V567.034H431V562.321Z" fill="white"/>
<path d="M441.672 562.321H435.164V567.034H441.672V562.321Z" fill="white"/>
<path d="M389.471 451.111H387.973V442.76C387.973 441.632 387.478 440.55 386.596 439.752C385.715 438.954 384.519 438.505 383.272 438.505H376.781V426.489H375.74V438.505H366.89V451.111H358.17V571.982H407.104V467.072C407.104 464.976 406.648 462.901 405.762 460.964C404.876 459.028 403.577 457.268 401.939 455.786C400.302 454.304 398.358 453.128 396.219 452.326C394.08 451.524 391.787 451.111 389.471 451.111Z" fill="#2F2E41"/>
<path d="M393.179 460.653H372.096V462.067H393.179V460.653Z" fill="white"/>
<path d="M393.179 469.371H372.096V470.785H393.179V469.371Z" fill="white"/>
<path d="M393.179 478.089H372.096V479.502H393.179V478.089Z" fill="white"/>
<path d="M393.179 486.807H372.096V488.22H393.179V486.807Z" fill="white"/>
<path d="M393.179 495.524H372.096V496.938H393.179V495.524Z" fill="white"/>
<path d="M393.179 504.242H372.096V505.656H393.179V504.242Z" fill="white"/>
<path d="M393.179 512.96H372.096V514.374H393.179V512.96Z" fill="white"/>
<path d="M393.179 521.678H372.096V523.091H393.179V521.678Z" fill="white"/>
<path d="M393.179 530.395H372.096V531.809H393.179V530.395Z" fill="white"/>
<path d="M393.179 539.113H372.096V540.527H393.179V539.113Z" fill="white"/>
<path d="M393.179 547.831H372.096V549.245H393.179V547.831Z" fill="white"/>
<path d="M393.179 556.549H372.096V557.963H393.179V556.549Z" fill="white"/>
<path d="M380.685 441.097H374.178V445.809H380.685V441.097Z" fill="white"/>
<path d="M589.04 498.575V505.507C587.857 506.876 586.657 508.244 585.441 509.591C585.178 509.888 584.915 510.178 584.66 510.468C584.258 510.907 583.863 511.346 583.469 511.778C583.337 511.926 583.206 512.068 583.066 512.216C582.392 512.945 581.719 513.674 581.028 514.403C581.028 514.403 581.037 514.411 581.028 514.411C580.363 515.125 579.689 515.839 579.007 516.553C578.637 516.947 578.259 517.334 577.873 517.728C577.306 518.331 576.723 518.926 576.131 519.521C576.123 519.528 576.123 519.536 576.115 519.543L576.09 519.565V498.575L589.04 498.575Z" fill="#2F2E41"/>
<path d="M605.934 484.115C603.781 487.12 601.571 490.081 599.303 492.996C599.303 493.004 599.295 493.004 599.286 493.011C597.931 494.767 596.542 496.507 595.145 498.233C594.249 499.334 593.346 500.43 592.433 501.52C591.521 502.614 590.601 503.697 589.673 504.771C589.467 505.016 589.253 505.262 589.04 505.507C587.857 506.876 586.657 508.245 585.441 509.591C585.178 509.888 584.915 510.179 584.66 510.469C584.258 510.908 583.863 511.346 583.469 511.778C583.329 511.926 583.198 512.068 583.066 512.216C582.392 512.945 581.719 513.674 581.028 514.403C581.028 514.403 581.037 514.411 581.028 514.411C580.363 515.125 579.689 515.839 579.007 516.553C578.637 516.947 578.259 517.334 577.873 517.728H551.045C548.182 517.726 545.437 516.696 543.412 514.864C541.388 513.031 540.25 510.546 540.248 507.954V493.889C540.251 491.298 541.389 488.813 543.414 486.981C545.438 485.149 548.182 484.118 551.045 484.115H605.934Z" fill="#2F2E41"/>
<path d="M620.123 363.722C618.473 363.207 616.74 362.945 614.995 362.949H610.583C608.976 362.95 607.378 363.168 605.842 363.596C602.602 364.518 599.771 366.35 597.76 368.827C595.749 371.304 594.662 374.297 594.658 377.371V494.708C594.658 495.147 594.683 495.579 594.724 496.003C594.796 496.756 594.936 497.502 595.143 498.234C596.54 496.508 597.929 494.768 599.284 493.012C599.293 493.005 599.301 493.005 599.301 492.998C601.569 490.082 603.779 487.121 605.932 484.116C607.091 482.502 608.241 480.873 609.367 479.237C617.501 467.423 624.706 455.104 630.928 442.373V377.371C630.924 374.36 629.881 371.426 627.943 368.978C626.006 366.531 623.271 364.693 620.123 363.722Z" fill="#2F2E41"/>
<path d="M428.447 581.922L417.26 577.079L432.627 534.752L449.137 541.9L428.447 581.922Z" fill="#D17F8B"/>
<path d="M503.444 575.099C502.63 575.56 501.817 576.013 500.995 576.467C499.36 577.375 497.708 578.267 496.057 579.145C495.227 579.584 494.389 580.023 493.559 580.454V580.476L493.51 580.484L493.493 580.491L492.228 580.774L490.412 576.43L489.574 574.429L488.39 571.595L486.221 566.411L474.8 539.113L492.556 535.148L493.222 537.61H493.23L493.559 538.83L499.763 561.606L501.028 566.262L501.069 566.403L501.833 569.185L502.491 571.595L503.222 574.288L503.444 575.099Z" fill="#D17F8B"/>
<path d="M458.154 397.952C459.75 400.297 462.295 401.985 465.247 402.656C468.198 403.326 471.323 402.925 473.952 401.539C474.481 401.25 474.983 400.921 475.452 400.556L510.818 418.928L509.282 400.069L475.933 385.513C474.118 383.863 471.75 382.805 469.2 382.504C466.649 382.204 464.06 382.678 461.839 383.852C459.297 385.234 457.465 387.473 456.747 390.077C456.029 392.682 456.483 395.438 458.009 397.739C458.057 397.81 458.105 397.881 458.154 397.952Z" fill="#D17F8B"/>
<path d="M495.613 412.01L501.865 415.459L529.941 430.957C531.784 432.001 533.836 432.706 535.98 433.032C538.124 433.358 540.318 433.298 542.437 432.857C544.555 432.415 546.557 431.6 548.328 430.458C550.098 429.316 551.603 427.87 552.756 426.202L552.765 426.188C554.844 423.088 555.58 419.4 554.83 415.837L542.351 359.402C541.89 357.186 540.906 355.087 539.466 353.248C538.027 351.408 536.165 349.872 534.009 348.743C531.853 347.615 529.453 346.922 526.973 346.71C524.494 346.499 521.993 346.774 519.642 347.518C515.691 348.775 512.416 351.348 510.486 354.713C508.555 358.077 508.113 361.982 509.25 365.631L522.299 405.682L502.297 397.241L495.613 412.01Z" fill="#F3821A"/>
<path d="M610.739 467.656C610.731 467.633 610.714 467.552 610.69 467.425L610.665 467.343C610.607 467.076 610.542 466.778 610.468 466.451C608.791 458.914 606.637 451.471 604.017 444.159C602.465 439.68 600.408 435.358 597.879 431.261C597.797 431.127 597.707 430.993 597.616 430.859L597.312 430.413L594.757 431.261L594.658 431.291L555.809 444.181L544.576 447.907L544.223 448.027L542.308 455.093L515.447 451.946L493.557 449.38L487.271 448.644C484.546 448.322 481.778 448.495 479.127 449.151C476.476 449.808 473.996 450.935 471.831 452.467C469.572 454.053 467.684 456.029 466.278 458.282C464.871 460.535 463.974 463.018 463.639 465.588C463.557 466.153 463.508 466.726 463.483 467.291L461.585 531.386V531.468L462.464 533.06L480.829 566.412H493.557L501.067 566.405H507.172L494.477 537.329L494.765 536.935C495.959 535.277 496.712 533.391 496.965 531.426C497.217 529.46 496.962 527.468 496.219 525.606L497.649 521.858C500.615 514.115 499.21 510.395 497.435 505.695C495.841 501.872 494.905 497.851 494.658 493.771L494.362 488.468C501.815 489.65 508.758 490.967 515.447 492.291C517.682 492.73 519.895 493.174 522.086 493.622C528.323 494.879 534.346 496.092 540.246 497.103C552.193 499.164 563.639 500.421 575.398 499.64C575.628 499.625 575.858 499.61 576.088 499.588C578.948 499.38 581.823 499.045 584.732 498.576C586.367 498.308 588.011 498.003 589.671 497.646C590.131 497.542 590.599 497.438 591.059 497.334C592.337 497.029 593.568 496.582 594.724 496.003C596.369 495.171 597.899 494.168 599.284 493.012C599.293 493.005 599.301 493.005 599.301 492.998C601.569 490.082 603.779 487.121 605.932 484.116C607.091 482.502 608.241 480.873 609.367 479.237C611.01 475.153 611.634 471.033 610.739 467.656Z" fill="#2F2E41"/>
<path d="M611.01 455.613C610.887 455.137 610.731 454.654 610.566 454.185C609.262 450.636 607.742 447.155 606.014 443.757C604.075 439.889 601.75 435.746 598.981 431.261C597.641 429.089 596.2 426.83 594.658 424.485C593.886 423.309 593.083 422.112 592.251 420.892C592.218 420.836 592.183 420.781 592.144 420.728L591.906 420.371L553.467 425.028L539.153 426.761L538.298 433.217L538.093 434.816C538.085 434.816 538.085 434.816 538.093 434.824L537.518 439.182V439.19L536.754 444.947L536.688 444.94L515.447 442.448L493.557 439.882L481.799 438.506C479.074 438.184 476.305 438.357 473.654 439.013C471.004 439.669 468.524 440.796 466.359 442.329C464.1 443.914 462.212 445.891 460.806 448.144C459.399 450.396 458.502 452.88 458.167 455.45C458.093 455.97 458.043 456.506 458.019 457.034L446.926 480.829C440.288 495.059 436.061 510.115 434.387 525.487L426.252 549.029L427.411 549.126L444.65 550.576L449.202 550.963L459.227 537.716C460.369 536.206 461.453 534.651 462.464 533.059C464.128 530.46 465.607 527.767 466.893 524.996L488.577 478.285C490.254 478.545 491.914 478.793 493.557 479.029C501.158 480.144 508.454 481.054 515.447 481.758C538.183 484.057 557.871 484.235 575.398 482.287C580.32 481.744 585.077 481.03 589.671 480.144C591.355 479.825 593.018 479.48 594.658 479.11C595.045 479.029 595.423 478.947 595.8 478.858C599.196 478.065 602.318 476.514 604.881 474.346C607.443 472.179 609.364 469.464 610.468 466.451C611.785 462.959 611.974 459.199 611.01 455.613Z" fill="#2F2E41"/>
<path d="M529.272 315.129C543.956 315.129 555.86 304.113 555.86 290.524C555.86 276.935 543.956 265.919 529.272 265.919C514.587 265.919 502.683 276.935 502.683 290.524C502.683 304.113 514.587 315.129 529.272 315.129Z" fill="#D17F8B"/>
<path d="M592.407 421.718C592.366 421.442 592.316 421.167 592.251 420.892C591.618 417.872 589.975 414.912 588.389 412.041C586.877 409.303 585.439 406.715 584.847 404.141C584.264 401.605 584.609 399.061 584.946 396.606C585.307 393.944 585.685 391.192 584.839 388.521C580.547 374.884 574.652 361.703 567.255 349.203C565.389 343.707 561.811 338.814 556.95 335.113C552.09 331.411 546.153 329.056 539.851 328.332C540.587 327.088 540.893 325.673 540.731 324.27C540.628 323.364 540.327 322.485 539.846 321.684C539.365 320.884 538.713 320.178 537.929 319.607C537.175 319.057 536.308 318.648 535.379 318.403C534.449 318.158 533.476 318.081 532.514 318.179L520.155 319.436C518.174 319.661 516.371 320.585 515.138 322.007C513.906 323.429 513.343 325.234 513.573 327.03C513.643 327.583 513.781 328.127 513.984 328.651C502.513 341.877 496.622 353.926 496.08 365.322V365.329C496.014 366.645 496.022 367.963 496.104 369.279C496.364 373.533 497.385 377.72 499.128 381.678C501.186 386.25 503.94 390.539 507.312 394.42C508.002 395.208 508.717 395.982 509.457 396.74C510.147 397.484 510.919 398.265 511.774 399.083L513.935 402.148L515.948 405.012L526.712 427.497L532.193 427.334L532.957 432.28L533.138 433.433L536.688 444.94L536.951 445.802L541.807 443.712L570.78 431.261L592.44 421.948L592.407 421.718Z" fill="#F3821A"/>
<path opacity="0.2" d="M499.453 381.559C501.924 387.036 505.397 392.098 509.726 396.53C510.468 397.332 511.251 398.119 512.07 398.908L516.276 404.882C531.781 394.362 544.343 352.94 544.343 352.94L526.849 349.859L499.453 381.559Z" fill="black"/>
<path d="M488.862 317.428C490.394 319.81 490.839 322.639 490.102 325.313C489.365 327.987 487.504 330.296 484.915 331.747C484.384 332.034 483.827 332.281 483.251 332.486L484.489 369.381L466.839 359.324L468.369 325.829C467.618 323.6 467.703 321.209 468.611 319.028C469.519 316.848 471.2 315.001 473.389 313.775C475.921 312.389 478.957 311.97 481.829 312.61C484.702 313.25 487.176 314.897 488.707 317.189C488.76 317.268 488.812 317.348 488.862 317.428Z" fill="#D17F8B"/>
<path d="M486.041 355.454L466.63 357.953L467.465 394.339C467.513 396.935 468.294 399.476 469.733 401.722C471.172 403.967 473.222 405.842 475.687 407.169C478.699 408.773 482.205 409.447 485.677 409.091C489.149 408.734 492.398 407.365 494.936 405.191L540.762 365.29C543.986 362.522 545.916 358.74 546.154 354.722C546.392 350.705 544.921 346.758 542.042 343.693C539.222 340.671 535.191 338.787 530.836 338.455C526.481 338.123 522.159 339.371 518.821 341.924C518.69 342.024 518.561 342.126 518.434 342.229C517.981 342.596 517.55 342.984 517.144 343.393L486.884 374.904L486.041 355.454Z" fill="#F3821A"/>
<path d="M432.02 575.011L419.917 569.759L418.019 568.934L414.986 575.673L393.82 579.89C392.773 580.098 391.827 580.603 391.12 581.332C390.414 582.061 389.983 582.975 389.891 583.941C389.799 584.908 390.051 585.875 390.61 586.703C391.169 587.53 392.006 588.174 392.998 588.541L413.68 596.18L420.245 590.832L418.635 598.009L426.424 600.888L434.962 576.29L432.02 575.011Z" fill="#2F2E41"/>
<path d="M600.421 279.853C595.901 275.082 593.752 268.752 590.139 263.335C586.526 257.917 580.239 253.068 573.597 254.329C569.018 255.198 565.479 258.855 563.688 262.933C561.897 267.011 561.561 271.507 561.247 275.913C561.358 266.86 554.769 258.083 545.692 255.194C536.617 252.306 525.755 255.528 520.051 262.801C517.563 260.713 514.314 259.524 510.921 259.459C507.528 259.395 504.228 260.46 501.644 262.451C496.543 266.579 495.414 274.434 499.166 279.698C502.917 284.963 511.042 286.924 517.004 284.004L519.112 285.759C517.926 289.516 520.226 293.953 524.094 295.367C527.23 296.514 531.658 296.323 532.832 299.302C533.652 301.384 532.119 303.606 530.488 305.206C528.858 306.805 526.922 308.457 526.726 310.671C526.43 314.011 530.243 316.351 533.709 317.056C542.067 318.755 551.341 315.251 556.158 308.574C556.251 308.446 556.352 308.317 556.461 308.188C559.163 305.059 561.133 301.464 562.249 297.623C563.365 293.782 563.605 289.776 562.953 285.848C562.682 284.305 562.955 283.157 564.13 282.792C569.21 281.212 583.443 284.528 587.751 287.524C592.059 290.52 595.508 294.486 599.657 297.675C603.807 300.865 609.094 303.326 614.363 302.457C618.582 301.761 622.172 298.988 624.586 295.644C627 292.299 628.39 288.4 629.634 284.526C620.304 289.405 607.534 287.362 600.421 279.853Z" fill="#2F2E41"/>
<path d="M516.492 567.341V567.504L516.262 567.482C515.991 567.66 515.72 567.824 515.449 567.995C513.485 569.215 511.505 570.415 509.508 571.595C508.53 572.175 507.552 572.748 506.566 573.314V573.321C506.558 573.321 506.55 573.328 506.542 573.328H506.534L506.517 573.343L506.468 573.365C506.443 573.38 506.427 573.388 506.402 573.403V435.901C506.402 431.914 504.923 428.679 503.107 428.671H366.303C364.479 428.679 363.008 431.914 363 435.901V618.478C361.176 618.642 359.351 618.798 357.527 618.932C357.494 618.932 357.462 618.939 357.429 618.939C356.706 618.999 355.983 619.043 355.259 619.095H355.251C354.816 618.366 354.388 617.63 353.961 616.886V426.521C353.961 425.421 354.01 424.312 354.093 423.219C354.21 421.717 354.416 420.223 354.709 418.741C356.098 411.831 359.236 407.152 362.803 407.138H506.599C507.12 407.141 507.634 407.239 508.111 407.428C508.812 407.709 509.445 408.11 509.976 408.61C510.697 409.289 511.313 410.052 511.809 410.879C513.567 413.683 514.824 417.864 515.268 422.728C515.268 422.773 515.276 422.817 515.276 422.862C515.391 424.067 515.449 425.294 515.441 426.521L515.556 442.462L515.63 451.967L515.852 481.794L515.934 492.386L516.492 567.341Z" fill="#2F2E41"/>
<path d="M408.886 362.916L399.37 400.817L393.289 406.846H388.902L406.983 337.935L407.877 349.642V349.65L408.886 362.916Z" fill="#2F2E41"/>
<path d="M454.683 401.65L398.857 401.33L393.902 401.3L390.369 401.278L386.252 401.255H386.219C385.622 401.256 385.049 401.47 384.625 401.85L377.673 408.143C377.519 408.28 377.394 408.442 377.304 408.619C377.26 408.669 377.224 408.724 377.197 408.783C377.046 409.099 376.984 409.444 377.016 409.788C377.047 410.131 377.172 410.462 377.378 410.751C377.584 411.041 377.866 411.28 378.198 411.448C378.531 411.616 378.903 411.707 379.284 411.713H451.601C452.035 411.712 452.46 411.599 452.826 411.389C453.193 411.178 453.486 410.878 453.672 410.523L454.239 409.408L455.406 407.139L456.729 404.58C456.87 404.308 456.943 404.011 456.942 403.71C456.939 403.167 456.7 402.647 456.278 402.262C455.855 401.876 455.282 401.656 454.683 401.65Z" fill="#2F2E41"/>
<path opacity="0.17" d="M454.239 409.406L453.668 410.526C453.482 410.88 453.19 411.179 452.824 411.389C452.459 411.599 452.036 411.712 451.603 411.714H379.283C378.902 411.708 378.529 411.617 378.197 411.449C377.865 411.282 377.583 411.043 377.377 410.753C377.171 410.464 377.047 410.133 377.016 409.79C376.985 409.446 377.048 409.102 377.199 408.785C377.224 408.726 377.259 408.671 377.303 408.622L454.239 409.406Z" fill="black"/>
<path opacity="0.17" d="M407.877 349.642V349.65L392.395 406.846H388.902L406.983 337.935L407.877 349.642Z" fill="black"/>
<path d="M426.876 360.122L404.962 209.195C404.882 208.629 404.556 208.115 404.058 207.767L388.972 190.674L387.616 189.729C387.114 189.385 386.482 189.233 385.857 189.305L383.59 189.58C382.964 189.653 382.396 189.948 382.011 190.4C381.626 190.852 381.455 191.424 381.535 191.99L404.247 348.37V348.377L405.636 357.943L407.287 369.301V369.316L409.851 386.989C409.892 387.292 410.005 387.583 410.182 387.842C410.359 388.102 410.597 388.323 410.878 388.491C411.154 388.664 411.468 388.781 411.798 388.834C412.128 388.888 412.467 388.878 412.793 388.804L414.231 388.477C414.781 388.348 415.264 388.048 415.595 387.629L416.235 386.803L416.531 386.416L426.457 361.647C426.806 361.205 426.955 360.66 426.876 360.122Z" fill="#2F2E41"/>
<path opacity="0.17" d="M388.968 190.674L416.534 386.42L416.234 386.803L415.596 387.626C415.266 388.046 414.783 388.347 414.231 388.474L412.791 388.802C412.465 388.875 412.126 388.885 411.795 388.832C411.465 388.778 411.15 388.662 410.873 388.491C410.595 388.32 410.361 388.097 410.185 387.838C410.008 387.58 409.894 387.29 409.85 386.989L381.539 191.993C381.457 191.426 381.627 190.854 382.011 190.401C382.395 189.948 382.962 189.651 383.587 189.577L385.861 189.306C386.17 189.269 386.483 189.287 386.784 189.36C387.085 189.433 387.366 189.56 387.612 189.732L388.968 190.674Z" fill="black"/>
<path d="M389.78 196.272L404.409 215.173L421.796 334.928L412.369 351.857L389.78 196.272Z" fill="#F3821A"/>
<path d="M610.601 437.716C610.601 439.024 610.163 440.302 609.344 441.38C608.526 442.458 607.365 443.286 606.016 443.755C605.376 443.978 604.703 444.113 604.019 444.157C603.839 444.172 603.65 444.179 603.469 444.179H589.673V504.771C589.467 505.016 589.253 505.262 589.04 505.507C587.857 506.876 586.657 508.244 585.441 509.591C585.178 509.888 584.915 510.178 584.66 510.468C584.258 510.907 583.863 511.346 583.469 511.778C583.329 511.926 583.198 512.068 583.066 512.216C582.392 512.945 581.719 513.674 581.028 514.403C581.028 514.403 581.037 514.411 581.028 514.411C580.363 515.125 579.689 515.839 579.007 516.553C577.762 515.924 576.759 514.966 576.131 513.808C576.123 513.801 576.123 513.793 576.115 513.778C576.105 513.762 576.097 513.744 576.09 513.726C575.629 512.856 575.393 511.902 575.4 510.937V444.18H544.471C543.558 444.185 542.653 444.025 541.809 443.711C540.744 443.326 539.798 442.714 539.051 441.926C538.304 441.139 537.779 440.2 537.52 439.189V439.181C537.135 437.712 537.338 436.168 538.095 434.822C538.087 434.815 538.087 434.815 538.095 434.815C538.417 434.227 538.841 433.689 539.352 433.223C539.352 433.216 539.352 433.216 539.36 433.208C540.026 432.592 540.821 432.102 541.699 431.767C542.576 431.433 543.519 431.26 544.471 431.26H603.469C605.36 431.26 607.174 431.941 608.511 433.152C609.848 434.362 610.6 436.004 610.601 437.716Z" fill="#2F2E41"/>
<path d="M610.127 313.249C607.19 313.249 604.282 313.772 601.569 314.789C598.856 315.807 596.391 317.298 594.315 319.177C592.238 321.057 590.591 323.289 589.467 325.745C588.343 328.201 587.765 330.833 587.765 333.491V333.491C587.766 338.187 589.57 342.737 592.868 346.361C596.166 349.985 600.754 352.459 605.845 353.359V386.467H620.119V313.249H610.127Z" fill="#2F2E41"/>
<path d="M519.761 261.711C525.871 269.055 533.859 286.793 530.954 295.603L519.761 261.711Z" fill="#FD6584"/>
</g>
<defs>
<clipPath id="clip0_70_126">
<rect width="659" height="620" fill="white"/>
</clipPath>
</defs>
</svg>
