<svg width="731" height="730" viewBox="0 0 731 730" fill="none" xmlns="http://www.w3.org/2000/svg">
<g clip-path="url(#clip0_73_291)">
<path d="M180.432 666.104L181.919 704.272L181.919 704.273C182.169 710.724 180.306 717.032 176.738 721.81C173.17 726.587 168.19 729.444 162.893 729.75L162.244 729.787L159.81 667.295L180.432 666.104Z" fill="#2F2E41"/>
<path d="M626.008 601.602C611.081 637.078 592.149 671.387 568.194 702.439C567.662 703.141 567.125 703.824 566.583 704.519L509.827 671.797C510.174 671.094 510.555 670.306 510.964 669.444C535.344 618.642 682.515 308.747 677.864 238.56C678.406 244.348 695.85 435.786 626.008 601.602Z" fill="#60A042"/>
<path d="M579.144 708.753C578.349 709.303 577.535 709.841 576.715 710.361L534.138 685.813C534.733 685.299 535.426 684.691 536.223 684.007C549.268 672.601 588.055 638.38 626.008 601.603C666.795 562.08 706.625 519.615 712.54 499.344C711.339 503.993 674.007 645.284 579.144 708.753Z" fill="#60A042"/>
<path d="M70.8246 728.263C107.114 728.263 136.532 692.435 136.532 648.24C136.532 604.044 107.114 568.216 70.8246 568.216C34.5351 568.216 5.1167 604.044 5.1167 648.24C5.1167 692.435 34.5351 728.263 70.8246 728.263Z" fill="#F3821A"/>
<path d="M97.145 614.658H44.5042C42.1781 614.662 39.9481 615.788 38.3033 617.792C36.6585 619.795 35.7333 622.51 35.7307 625.343V671.136C35.7333 673.968 36.6585 676.684 38.3033 678.687C39.9481 680.691 42.1781 681.817 44.5042 681.821H97.145C99.4711 681.817 101.701 680.691 103.346 678.688C104.991 676.684 105.916 673.969 105.919 671.136V625.343C105.916 622.51 104.991 619.795 103.346 617.791C101.701 615.788 99.471 614.662 97.145 614.658ZM97.145 620.764C97.4592 620.766 97.7721 620.815 98.0762 620.912L70.8306 647.381L43.7444 620.858C43.9944 620.796 44.2489 620.764 44.5041 620.764H97.145ZM97.145 675.715H44.5042C43.5073 675.714 42.5516 675.231 41.8467 674.372C41.1418 673.514 40.7453 672.35 40.7441 671.136V625.755L69.2539 653.672C69.6979 654.106 70.2502 654.344 70.8198 654.345C71.3895 654.346 71.9425 654.111 72.3878 653.679L100.905 625.974V671.136C100.904 672.35 100.507 673.514 99.8025 674.372C99.0976 675.231 98.1419 675.714 97.145 675.715Z" fill="white"/>
<path d="M324.407 532.706L339.109 532.854C340.597 532.869 342.069 532.488 343.423 531.739C344.778 530.99 345.982 529.889 346.952 528.515C347.921 527.141 348.633 525.526 349.037 523.782C349.441 522.038 349.528 520.208 349.292 518.419C349.038 516.494 348.416 514.668 347.477 513.089C346.538 511.51 345.308 510.221 343.885 509.327C342.462 508.432 340.887 507.957 339.286 507.94C337.685 507.922 336.102 508.362 334.667 509.225L320.802 517.557L273.38 530.437L253.064 505.14L241.394 528.548L268.809 554.343L324.407 532.706Z" fill="#9E616A"/>
<path d="M321.651 717.699L304.329 721.756C292.497 676.334 279.678 633.319 279.679 600.05C262.935 622.746 242.171 635.73 217.72 639.807L220.385 589.502L240.372 576.521L270.961 559.326C273.639 557.821 276.528 556.951 279.474 556.762C285.201 556.395 290.837 558.621 295.297 563.011C299.757 567.401 302.725 573.646 303.632 580.542L321.651 717.699Z" fill="#2F2E41"/>
<path d="M238.706 633.722L231.802 640.112C228.834 642.86 225.327 644.614 221.629 645.201C217.932 645.788 214.173 645.188 210.725 643.459C190.95 625.407 176.902 630.733 164.169 657.979C148.897 636.988 145.129 606.67 158.759 575.303L234.376 577.332L249.699 571.652L238.706 633.722Z" fill="#2F2E41"/>
<path d="M213.523 727.729C209.19 729.352 204.527 729.068 200.349 726.924C196.171 724.78 192.746 720.915 190.674 716.004C183.878 708.715 178.144 698.278 173.171 685.587C169.603 676.277 166.539 666.693 163.999 656.895C160.558 643.951 166.312 629.811 177.021 625.938C177.34 625.823 177.662 625.714 177.988 625.613C192.285 621.142 206.966 631.185 211.853 648.147L226.064 697.47C226.903 700.383 227.263 703.47 227.123 706.553C226.983 709.636 226.346 712.656 225.248 715.439C224.15 718.222 222.612 720.715 220.723 722.774C218.834 724.834 216.63 726.42 214.238 727.442C214.001 727.544 213.763 727.639 213.523 727.729Z" fill="#2F2E41"/>
<path opacity="0.2" d="M170.751 679.97C170.751 679.97 187.407 702.689 190.738 715.671L170.751 679.97Z" fill="black"/>
<path d="M106.154 572.754L100.58 589.323C100.016 590.999 99.7591 592.805 99.8271 594.615C99.8951 596.425 100.287 598.195 100.974 599.802C101.661 601.409 102.628 602.814 103.807 603.919C104.986 605.024 106.349 605.802 107.801 606.2C109.363 606.628 110.986 606.603 112.538 606.128C114.091 605.652 115.531 604.74 116.741 603.463C117.952 602.187 118.899 600.582 119.507 598.778C120.116 596.975 120.368 595.022 120.243 593.078L119.042 574.306L126.842 515.901L153.674 502.327L140.165 480.436L110.315 501.851L106.154 572.754Z" fill="#9E616A"/>
<path d="M239.372 575.303C220.23 614.462 182.07 629.625 149.385 598.962C155.135 575.955 173.697 512.37 161.705 509.936C136.244 522.94 136.207 492.408 131.444 477.127L189.406 451.164L220.718 461.711L227.137 464.485C231.314 466.29 234.937 469.61 237.519 473.998C240.101 478.386 241.517 483.632 241.578 489.029C228.425 512.171 218.688 536.859 239.372 575.303Z" fill="#F3821A"/>
<path d="M246.701 543.66L223.716 520.536L231.378 466.58L262.69 507.148L246.701 543.66Z" fill="#F3821A"/>
<path d="M628.089 172.995H624.803V63.4185C624.803 46.5988 619.317 30.4681 609.551 18.5748C599.786 6.68158 586.541 0 572.73 0H382.106C368.295 0 355.05 6.68158 345.284 18.5748C335.518 30.4681 330.032 46.5988 330.032 63.4185V664.568C330.032 681.387 335.518 697.518 345.284 709.411C355.05 721.305 368.295 727.986 382.106 727.986H572.729C586.54 727.986 599.785 721.305 609.551 709.411C619.316 697.518 624.803 681.387 624.803 664.568V250.994H628.088L628.089 172.995Z" fill="#3F3D56"/>
<path d="M574.831 16.4978H549.948C551.093 19.9147 551.53 23.6221 551.221 27.2933C550.912 30.9645 549.867 34.4868 548.177 37.5498C546.487 40.6129 544.204 43.1226 541.529 44.858C538.855 46.5933 535.871 47.5009 532.841 47.5009H423.635C420.606 47.5006 417.622 46.5928 414.948 44.8576C412.274 43.1223 409.992 40.6129 408.302 37.5502C406.612 34.4876 405.566 30.9658 405.257 27.2951C404.948 23.6244 405.385 19.9175 406.529 16.5008H383.285C372.971 16.5008 363.079 21.4907 355.786 30.3728C348.493 39.2548 344.396 51.3015 344.396 63.8626V664.127C344.396 676.688 348.493 688.734 355.786 697.616C363.079 706.498 372.971 711.488 383.285 711.488H574.824C585.138 711.488 595.029 706.498 602.322 697.616C609.615 688.734 613.713 676.688 613.713 664.127V664.126V63.8596C613.713 51.2985 609.615 39.2518 602.322 30.3698C595.029 21.4877 585.138 16.4978 574.824 16.4978H574.831L574.831 16.4978Z" fill="white"/>
<path d="M479.387 677.943C491.181 677.943 500.742 666.299 500.742 651.936C500.742 637.572 491.181 625.928 479.387 625.928C467.593 625.928 458.032 637.572 458.032 651.936C458.032 666.299 467.593 677.943 479.387 677.943Z" fill="#E6E6E6"/>
<path d="M392.754 411.418C390.736 411.418 389.093 413.701 389.093 416.507C389.093 419.313 390.736 421.597 392.754 421.597H565.354C567.373 421.597 569.016 419.313 569.016 416.507C569.016 413.701 567.373 411.418 565.354 411.418H392.754Z" fill="#E6E6E6"/>
<path d="M392.754 531.453C390.736 531.453 389.093 533.737 389.093 536.542C389.093 539.348 390.736 541.632 392.754 541.632H565.354C567.373 541.632 569.016 539.348 569.016 536.542C569.016 533.737 567.373 531.453 565.354 531.453H392.754Z" fill="#E6E6E6"/>
<path d="M392.754 441.954C390.736 441.954 389.093 444.238 389.093 447.044C389.093 449.85 390.736 452.133 392.754 452.133H467.025C469.043 452.133 470.686 449.85 470.686 447.044C470.686 444.238 469.043 441.954 467.025 441.954H392.754Z" fill="#E6E6E6"/>
<path d="M392.754 471.061C390.736 471.061 389.093 473.345 389.093 476.151C389.093 478.957 390.736 481.24 392.754 481.24H565.354C567.373 481.24 569.016 478.957 569.016 476.151C569.016 473.345 567.373 471.061 565.354 471.061H392.754Z" fill="#E6E6E6"/>
<path d="M392.754 501.598C390.736 501.598 389.093 503.881 389.093 506.687C389.093 509.493 390.736 511.776 392.754 511.776H467.025C469.043 511.776 470.686 509.493 470.686 506.687C470.686 503.881 469.043 501.598 467.025 501.598H392.754Z" fill="#E6E6E6"/>
<path d="M425.338 179.679H532.781C533.968 179.681 535.106 180.256 535.945 181.278C536.785 182.3 537.257 183.686 537.258 185.132V321.408C537.257 322.854 536.785 324.239 535.945 325.262C535.106 326.284 533.968 326.859 532.781 326.86H425.338C424.151 326.859 423.013 326.284 422.174 325.262C421.335 324.239 420.862 322.854 420.861 321.408V185.132C420.862 183.686 421.335 182.3 422.174 181.278C423.013 180.256 424.151 179.681 425.338 179.679Z" fill="#F3821A"/>
<path d="M509.887 298.758C510.287 298.759 510.683 298.664 511.052 298.478C511.421 298.293 511.757 298.021 512.04 297.677C512.323 297.333 512.547 296.925 512.7 296.476C512.854 296.026 512.933 295.545 512.933 295.058C512.933 294.571 512.854 294.09 512.702 293.64C512.549 293.191 512.325 292.782 512.042 292.438C511.759 292.094 511.424 291.821 511.055 291.636C510.685 291.45 510.29 291.354 509.89 291.355H448.232C447.832 291.354 447.437 291.449 447.067 291.634C446.698 291.82 446.362 292.092 446.079 292.436C445.796 292.779 445.572 293.187 445.419 293.637C445.265 294.086 445.186 294.568 445.186 295.054C445.186 295.541 445.265 296.023 445.418 296.472C445.57 296.922 445.795 297.33 446.077 297.674C446.36 298.018 446.695 298.291 447.064 298.477C447.434 298.663 447.829 298.758 448.229 298.758H509.887Z" fill="white"/>
<path d="M509.887 276.949C510.693 276.949 511.466 276.559 512.036 275.865C512.606 275.171 512.927 274.229 512.927 273.248C512.927 272.266 512.606 271.324 512.036 270.63C511.466 269.936 510.693 269.546 509.887 269.546H448.232C447.426 269.546 446.653 269.935 446.082 270.629C445.512 271.323 445.192 272.264 445.191 273.246C445.191 274.228 445.511 275.169 446.08 275.864C446.65 276.558 447.423 276.949 448.229 276.949H509.887Z" fill="white"/>
<path d="M479.059 207.782C482.843 207.782 486.542 209.149 489.688 211.709C492.834 214.269 495.286 217.908 496.734 222.165C498.182 226.423 498.561 231.107 497.823 235.627C497.085 240.147 495.263 244.298 492.587 247.557C489.912 250.815 486.503 253.034 482.792 253.933C479.081 254.832 475.234 254.371 471.738 252.607C468.242 250.844 465.255 247.858 463.152 244.026C461.05 240.194 459.928 235.69 459.928 231.082C459.934 224.904 461.951 218.982 465.538 214.614C469.124 210.246 473.987 207.789 479.059 207.782Z" fill="white"/>
<path d="M234.958 444.1H178.162C176.994 444.098 175.874 443.532 175.048 442.526C174.222 441.52 173.757 440.156 173.756 438.733V408.918C173.756 398.323 177.212 388.161 183.364 380.668C189.516 373.176 197.86 368.967 206.56 368.967C215.261 368.967 223.605 373.176 229.757 380.668C235.909 388.161 239.365 398.323 239.365 408.918V438.733C239.364 440.156 238.899 441.52 238.073 442.526C237.247 443.532 236.127 444.098 234.958 444.1Z" fill="#2F2E41"/>
<path d="M233.935 427.062C240.306 412.868 236.023 395.071 224.367 387.311C212.712 379.552 198.098 384.768 191.727 398.963C185.356 413.158 189.639 430.955 201.295 438.714C212.95 446.474 227.563 441.257 233.935 427.062Z" fill="#D17F8B"/>
<path d="M247.126 411.9H212.396L212.04 405.827L210.259 411.9H204.912L204.206 399.864L200.677 411.9H190.33V411.303C190.337 402.925 193.074 394.892 197.939 388.967C202.803 383.042 209.399 379.709 216.279 379.7H221.176C228.056 379.709 234.652 383.042 239.517 388.967C244.381 394.892 247.118 402.925 247.126 411.303V411.9Z" fill="#2F2E41"/>
<path d="M212.112 449.665C211.85 449.665 211.59 449.637 211.332 449.581L185.902 444.117V392.931H213.896L213.203 393.915C203.56 407.611 210.825 429.82 216.013 441.839C216.396 442.719 216.566 443.713 216.505 444.706C216.444 445.699 216.154 446.651 215.668 447.452C215.261 448.137 214.727 448.695 214.109 449.08C213.49 449.465 212.806 449.665 212.112 449.665Z" fill="#2F2E41"/>
<path d="M296.78 702.38L328.155 702.378H328.157C333.459 702.379 338.545 704.944 342.295 709.511C346.044 714.077 348.151 720.271 348.151 726.729V727.52L296.781 727.523L296.78 702.38Z" fill="#2F2E41"/>
<path d="M730.179 730H0.821348C0.603513 730 0.394599 729.895 0.240567 729.707C0.086534 729.52 0 729.265 0 729C0 728.735 0.086534 728.48 0.240567 728.292C0.394599 728.105 0.603513 728 0.821348 728H730.179C730.396 728 730.605 728.105 730.759 728.292C730.914 728.48 731 728.735 731 729C731 729.265 730.914 729.52 730.759 729.707C730.605 729.895 730.396 730 730.179 730Z" fill="#CACACA"/>
</g>
<defs>
<clipPath id="clip0_73_291">
<rect width="731" height="730" fill="white"/>
</clipPath>
</defs>
</svg>
