<svg width="517" height="465" viewBox="0 0 517 465" fill="none" xmlns="http://www.w3.org/2000/svg">
<g clip-path="url(#clip0_59_261)">
<path d="M264.028 270.416L151.511 272.394C149.735 272.429 147.969 272.114 146.316 271.466C144.662 270.818 143.152 269.85 141.872 268.617C140.593 267.385 139.569 265.912 138.86 264.284C138.151 262.655 137.769 260.902 137.738 259.126C137.707 257.35 138.026 255.585 138.678 253.933C139.33 252.28 140.301 250.773 141.536 249.496C142.771 248.219 144.246 247.199 145.876 246.493C147.506 245.787 149.26 245.41 151.036 245.382L263.554 243.404C265.231 243.375 266.852 244.013 268.059 245.178C269.266 246.344 269.96 247.941 269.99 249.618L270.242 263.98C270.27 265.584 269.688 267.139 268.613 268.33C267.537 269.521 266.05 270.259 264.451 270.394C264.311 270.406 264.17 270.413 264.028 270.416Z" fill="#F3821A"/>
<path d="M242.299 274.086L149.988 278.3C149.158 278.338 148.328 278.212 147.547 277.93C146.766 277.647 146.048 277.214 145.435 276.654C144.821 276.094 144.324 275.418 143.971 274.666C143.619 273.914 143.418 273.1 143.38 272.27L142.403 250.869C142.326 249.193 142.919 247.555 144.05 246.316C145.181 245.077 146.758 244.337 148.434 244.261L240.745 240.047C241.575 240.009 242.404 240.135 243.185 240.417C243.966 240.7 244.684 241.133 245.298 241.693C245.911 242.253 246.409 242.929 246.761 243.681C247.114 244.433 247.315 245.247 247.353 246.077L248.33 267.478C248.402 269.112 247.84 270.711 246.76 271.94C245.681 273.169 244.167 273.933 242.537 274.071C242.459 274.078 242.379 274.083 242.299 274.086Z" fill="#2F2E41"/>
<path d="M86.1934 457.694V337.977C86.1953 336.3 86.8623 334.692 88.0482 333.506C89.2342 332.32 90.842 331.653 92.5191 331.651H106.883C108.56 331.653 110.168 332.32 111.354 333.506C112.54 334.692 113.207 336.3 113.209 337.977V457.694C113.207 459.371 112.54 460.979 111.354 462.164C110.168 463.35 108.56 464.017 106.883 464.019H92.5191C90.842 464.017 89.2341 463.35 88.0482 462.164C86.8623 460.979 86.1953 459.371 86.1934 457.694Z" fill="#F3821A"/>
<path d="M123.888 457.694V337.977C123.89 336.3 124.557 334.692 125.743 333.506C126.928 332.32 128.536 331.653 130.213 331.651H144.578C146.255 331.653 147.863 332.32 149.049 333.506C150.234 334.692 150.902 336.3 150.903 337.977V457.694C150.902 459.371 150.234 460.979 149.049 462.164C147.863 463.35 146.255 464.017 144.578 464.019H130.213C128.536 464.017 126.928 463.35 125.743 462.164C124.557 460.979 123.89 459.371 123.888 457.694Z" fill="#F3821A"/>
<path d="M127.639 206.713C155.051 206.713 177.272 184.492 177.272 157.08C177.272 129.669 155.051 107.447 127.639 107.447C100.228 107.447 78.0061 129.669 78.0061 157.08C78.0061 184.492 100.228 206.713 127.639 206.713Z" fill="#F3821A"/>
<path d="M154.505 174.027C156.102 173.502 157.567 172.642 158.804 171.503C159.623 170.691 160.254 169.709 160.654 168.626C161.054 167.544 161.212 166.387 161.117 165.237C161.065 164.418 160.825 163.621 160.414 162.91C160.003 162.2 159.434 161.593 158.75 161.139C156.975 160 154.601 159.997 152.184 161.062L152.276 141.686L150.329 141.677L150.222 164.455L151.721 163.512C153.46 162.42 155.944 161.651 157.699 162.777C158.133 163.075 158.492 163.468 158.749 163.927C159.005 164.386 159.153 164.898 159.18 165.423C159.245 166.28 159.126 167.141 158.829 167.947C158.532 168.753 158.065 169.486 157.459 170.095C155.31 172.148 152.174 172.79 148.599 173.364L148.907 175.286C150.807 175.034 152.68 174.613 154.505 174.027Z" fill="#2F2E41"/>
<path d="M172.34 140.707L161.947 142.08L162.202 144.009L172.595 142.636L172.34 140.707Z" fill="#2F2E41"/>
<path d="M139.536 145.038L129.143 146.411L129.398 148.34L139.791 146.968L139.536 145.038Z" fill="#2F2E41"/>
<path d="M22.3396 153.161L93.6009 240.259C94.7251 241.631 95.5678 243.212 96.0809 244.911C96.594 246.609 96.7674 248.392 96.5912 250.158C96.4151 251.923 95.8928 253.637 95.0542 255.2C94.2156 256.764 93.0772 258.147 91.704 259.271C90.3307 260.394 88.7496 261.236 87.0508 261.749C85.3521 262.261 83.5691 262.434 81.8036 262.257C80.0381 262.08 78.3248 261.557 76.7615 260.718C75.1982 259.878 73.8156 258.739 72.6926 257.366L1.43091 170.269C0.904808 169.626 0.510482 168.885 0.270478 168.09C0.0304728 167.295 -0.0505307 166.46 0.0321049 165.633C0.11474 164.807 0.359382 164.005 0.752076 163.273C1.14477 162.541 1.67781 161.893 2.32077 161.367L13.4378 152.271C14.7363 151.209 16.4037 150.706 18.0731 150.873C19.7424 151.04 21.2771 151.863 22.3396 153.161H22.3396Z" fill="#F3821A"/>
<path d="M46.1058 172.6L104.622 244.12C105.148 244.763 105.542 245.503 105.782 246.298C106.022 247.093 106.103 247.928 106.021 248.755C105.938 249.581 105.693 250.384 105.301 251.116C104.908 251.848 104.375 252.495 103.732 253.021L84.7435 268.557C84.1006 269.083 83.3604 269.478 82.5651 269.718C81.7698 269.958 80.9349 270.039 80.1083 269.956C79.2817 269.873 78.4795 269.629 77.7475 269.236C77.0154 268.843 76.3679 268.31 75.8419 267.667L17.3257 196.148C16.2652 194.849 15.7633 193.182 15.9301 191.513C16.0969 189.844 16.9189 188.31 18.2156 187.247L37.2043 171.71C38.5027 170.648 40.17 170.145 41.8394 170.312C43.5087 170.479 45.0434 171.302 46.1058 172.6L46.1058 172.6Z" fill="#2F2E41"/>
<path d="M451.802 85.6544C451.086 83.9554 449.888 82.5035 448.356 81.4783C446.824 80.4532 445.025 79.8998 443.181 79.8867H271.109C268.635 79.888 266.263 80.8712 264.514 82.6201C262.765 84.3691 261.782 86.7409 261.781 89.2144V306.902C261.782 309.376 262.765 311.747 264.514 313.496C266.263 315.245 268.635 316.229 271.109 316.23H443.188C445.66 316.227 448.031 315.243 449.78 313.494C451.528 311.746 452.512 309.375 452.515 306.902V89.2144C452.519 87.9924 452.279 86.7821 451.808 85.6544H451.802ZM450.438 306.902C450.435 308.826 449.67 310.67 448.31 312.031C446.949 313.391 445.105 314.156 443.181 314.159H271.109C269.185 314.158 267.339 313.394 265.979 312.033C264.618 310.673 263.853 308.828 263.852 306.904V89.2156C263.855 87.2919 264.62 85.4478 265.981 84.0876C267.341 82.7273 269.185 81.9619 271.109 81.9593H443.188C444.637 81.9648 446.051 82.402 447.251 83.215C448.451 84.028 449.381 85.18 449.923 86.524C450.028 86.7918 450.119 87.065 450.196 87.3426C450.36 87.9533 450.444 88.5831 450.444 89.2156L450.438 306.902Z" fill="#3F3D56"/>
<path d="M415.893 131.282H364.062C363.517 131.283 362.977 131.176 362.473 130.968C361.969 130.76 361.511 130.455 361.126 130.07C360.74 129.685 360.434 129.227 360.225 128.724C360.016 128.22 359.909 127.681 359.909 127.135C359.909 126.59 360.016 126.051 360.225 125.547C360.434 125.044 360.74 124.586 361.126 124.201C361.511 123.816 361.969 123.511 362.473 123.303C362.977 123.095 363.517 122.988 364.062 122.989H415.893C416.438 122.988 416.978 123.095 417.482 123.303C417.985 123.511 418.443 123.816 418.829 124.201C419.215 124.586 419.521 125.044 419.73 125.547C419.938 126.051 420.046 126.59 420.046 127.135C420.046 127.681 419.938 128.22 419.73 128.724C419.521 129.227 419.215 129.685 418.829 130.07C418.443 130.455 417.985 130.76 417.482 130.968C416.978 131.176 416.438 131.283 415.893 131.282Z" fill="#3F3D56"/>
<path d="M415.893 153.051H364.062C363.517 153.052 362.977 152.945 362.473 152.737C361.969 152.529 361.511 152.224 361.126 151.839C360.74 151.454 360.434 150.996 360.225 150.493C360.016 149.989 359.909 149.449 359.909 148.904C359.909 148.359 360.016 147.819 360.225 147.316C360.434 146.812 360.74 146.355 361.126 145.97C361.511 145.585 361.969 145.279 362.473 145.071C362.977 144.863 363.517 144.757 364.062 144.758H415.893C416.438 144.757 416.978 144.863 417.482 145.071C417.985 145.279 418.443 145.585 418.829 145.97C419.215 146.355 419.521 146.812 419.73 147.316C419.938 147.819 420.046 148.359 420.046 148.904C420.046 149.449 419.938 149.989 419.73 150.493C419.521 150.996 419.215 151.454 418.829 151.839C418.443 152.224 417.985 152.529 417.482 152.737C416.978 152.945 416.438 153.052 415.893 153.051Z" fill="#3F3D56"/>
<path d="M337.468 165.446H299.59C298.354 165.445 297.168 164.953 296.293 164.078C295.419 163.204 294.927 162.018 294.925 160.781V116.082C294.927 114.846 295.419 113.66 296.293 112.785C297.168 111.911 298.354 111.419 299.59 111.417H337.468C338.705 111.419 339.891 111.911 340.765 112.785C341.64 113.66 342.132 114.846 342.133 116.082V160.781C342.132 162.018 341.64 163.204 340.765 164.078C339.891 164.953 338.705 165.445 337.468 165.446Z" fill="#F3821A"/>
<path d="M415.533 197.625H298.396C297.296 197.625 296.241 197.189 295.464 196.411C294.686 195.633 294.249 194.579 294.249 193.479C294.249 192.379 294.686 191.324 295.464 190.547C296.241 189.769 297.296 189.332 298.396 189.332H415.533C416.633 189.332 417.688 189.769 418.465 190.547C419.243 191.324 419.68 192.379 419.68 193.479C419.68 194.579 419.243 195.633 418.465 196.411C417.688 197.189 416.633 197.625 415.533 197.625Z" fill="#CCCCCC"/>
<path d="M415.533 219.394H298.396C297.297 219.393 296.244 218.955 295.468 218.177C294.692 217.4 294.256 216.346 294.256 215.248C294.256 214.149 294.692 213.095 295.468 212.318C296.244 211.54 297.297 211.103 298.396 211.101H415.533C416.078 211.1 416.618 211.207 417.122 211.415C417.626 211.623 418.084 211.928 418.469 212.313C418.855 212.698 419.161 213.156 419.37 213.659C419.579 214.163 419.686 214.702 419.686 215.248C419.686 215.793 419.579 216.332 419.37 216.836C419.161 217.339 418.855 217.797 418.469 218.182C418.084 218.567 417.626 218.872 417.122 219.08C416.618 219.288 416.078 219.395 415.533 219.394Z" fill="#CCCCCC"/>
<path d="M415.533 241.163H298.396C297.297 241.161 296.244 240.724 295.468 239.946C294.692 239.169 294.256 238.115 294.256 237.016C294.256 235.918 294.692 234.864 295.468 234.087C296.244 233.309 297.297 232.871 298.396 232.87H415.533C416.078 232.869 416.618 232.976 417.122 233.184C417.626 233.392 418.084 233.697 418.469 234.082C418.855 234.467 419.161 234.925 419.37 235.428C419.579 235.932 419.686 236.471 419.686 237.016C419.686 237.561 419.579 238.101 419.37 238.605C419.161 239.108 418.855 239.566 418.469 239.951C418.084 240.336 417.626 240.641 417.122 240.849C416.618 241.057 416.078 241.164 415.533 241.163Z" fill="#CCCCCC"/>
<path d="M415.533 262.932H298.396C297.297 262.93 296.244 262.492 295.468 261.715C294.692 260.938 294.256 259.884 294.256 258.785C294.256 257.687 294.692 256.633 295.468 255.855C296.244 255.078 297.297 254.64 298.396 254.639H415.533C416.078 254.638 416.618 254.744 417.122 254.952C417.626 255.16 418.084 255.466 418.469 255.851C418.855 256.236 419.161 256.693 419.37 257.197C419.579 257.7 419.686 258.24 419.686 258.785C419.686 259.33 419.579 259.87 419.37 260.373C419.161 260.877 418.855 261.334 418.469 261.72C418.084 262.105 417.626 262.41 417.122 262.618C416.618 262.826 416.078 262.933 415.533 262.932Z" fill="#CCCCCC"/>
<path d="M415.533 284.701H298.396C297.297 284.699 296.244 284.261 295.468 283.484C294.692 282.706 294.256 281.653 294.256 280.554C294.256 279.455 294.692 278.402 295.468 277.624C296.244 276.847 297.297 276.409 298.396 276.407H415.533C416.078 276.407 416.618 276.513 417.122 276.721C417.626 276.929 418.084 277.234 418.469 277.62C418.855 278.005 419.161 278.462 419.37 278.966C419.579 279.469 419.686 280.009 419.686 280.554C419.686 281.099 419.579 281.639 419.37 282.142C419.161 282.646 418.855 283.103 418.469 283.488C418.084 283.873 417.626 284.179 417.122 284.387C416.618 284.595 416.078 284.701 415.533 284.701Z" fill="#CCCCCC"/>
<path d="M456.809 118.724C489.594 118.724 516.171 92.1467 516.171 59.3619C516.171 26.5773 489.594 0 456.809 0C424.025 0 397.448 26.5773 397.448 59.3619C397.448 92.1467 424.025 118.724 456.809 118.724Z" fill="#F3821A"/>
<path d="M455.66 100.222C459.518 100.222 462.645 97.0947 462.645 93.2371C462.645 89.3795 459.518 86.2523 455.66 86.2523C451.803 86.2523 448.675 89.3795 448.675 93.2371C448.675 97.0947 451.803 100.222 455.66 100.222Z" fill="white"/>
<path d="M454.912 20.3522C449.646 20.4044 444.609 22.5095 440.872 26.2193C437.135 29.9291 434.993 34.9509 434.902 40.216C434.901 40.3167 434.9 41.0254 434.9 41.9522C434.9 43.3111 435.44 44.6144 436.401 45.5753C437.362 46.5362 438.665 47.0762 440.024 47.0763C441.384 47.076 442.688 46.5355 443.649 45.5737C444.611 44.6119 445.151 43.3076 445.15 41.9476V41.9443C445.15 41.3139 445.15 40.8775 445.15 40.8507C445.149 39.1637 445.588 37.5057 446.423 36.0397C447.258 34.5738 448.46 33.3504 449.911 32.4899C451.362 31.6294 453.012 31.1614 454.698 31.132C456.385 31.1026 458.051 31.5129 459.531 32.3223C461.011 33.1318 462.255 34.3126 463.14 35.7486C464.025 37.1846 464.522 38.8263 464.58 40.5123C464.638 42.1983 464.257 43.8704 463.473 45.3642C462.689 46.8581 461.53 48.1221 460.109 49.032L460.111 49.0342C460.111 49.0342 452.818 53.7292 450.595 60.1698L450.597 60.1702C450.206 61.4896 450.008 62.8587 450.009 64.2348C450.009 64.8005 450.042 69.75 450.106 73.7672C450.129 75.1533 450.695 76.4751 451.683 77.4472C452.672 78.4194 454.003 78.9641 455.389 78.9637C456.083 78.9637 456.77 78.827 457.411 78.5614C458.052 78.2959 458.634 77.9067 459.125 77.4161C459.615 76.9254 460.005 76.3429 460.27 75.7019C460.536 75.0608 460.672 74.3738 460.672 73.6799L460.672 73.6475C460.65 69.9685 460.638 65.6845 460.638 65.3736C460.638 61.4189 464.453 57.4785 467.587 54.9089C471.214 51.971 473.764 47.9121 474.835 43.3688C475.066 42.4323 475.193 41.4733 475.215 40.509C475.215 37.8619 474.693 35.2408 473.68 32.7952C472.667 30.3495 471.183 28.1274 469.311 26.2556C467.439 24.3838 465.217 22.8991 462.771 21.886C460.326 20.873 457.705 20.3517 455.057 20.3517C455.009 20.3517 454.96 20.3518 454.912 20.3522Z" fill="white"/>
<path d="M115.196 135.12C124.083 129.278 135.251 131.907 145.128 132.67C154.052 133.359 164.63 132.68 170.907 125.388C177.437 117.803 176.891 106.54 171.485 98.5165C166.163 90.619 157.329 85.6323 147.984 84.3174C142.806 83.5588 137.527 83.8865 132.483 85.2795C127.438 86.6725 122.739 89.1005 118.684 92.4088L121.86 93.7244C120.009 76.0294 106.999 60.033 89.5438 55.694C71.8826 51.3038 52.1318 58.7965 42.7093 74.5437C33.4201 90.068 34.5206 111.731 47.8913 124.632C54.3125 130.827 63.047 133.984 71.9113 132.299C80.0864 130.746 87.3502 124.786 88.8801 116.371C90.2983 108.569 87.2002 99.7077 79.6117 96.3006C77.5353 95.3323 75.266 94.8481 72.9752 94.8847C70.6843 94.9213 68.4317 95.4777 66.3872 96.5119C64.5356 97.5537 62.971 99.0382 61.8335 100.833C60.696 102.627 60.021 104.675 59.8688 106.795C59.7274 108.846 60.1453 110.898 61.0781 112.731C62.1315 114.881 65.3418 112.997 64.2912 110.852C63.6125 109.276 63.4196 107.532 63.7372 105.845C64.0547 104.158 64.8683 102.604 66.0738 101.382C68.8322 98.5005 73.1865 98.0219 76.8519 99.2C83.5588 101.356 86.5201 109.05 85.2562 115.577C83.8406 122.888 77.5992 127.586 70.4926 128.789C62.7642 130.097 55.2276 126.833 49.8628 121.345C38.6275 109.85 37.6552 91.337 45.2343 77.6183C52.9229 63.7012 69.3237 56.2282 84.9457 58.5626C100.393 60.871 113.115 73.0212 117.08 88.0029C117.58 89.8799 117.934 91.7928 118.139 93.7244C118.152 94.0865 118.269 94.4374 118.475 94.7352C118.682 95.0329 118.97 95.2649 119.304 95.4036C119.639 95.5423 120.007 95.5818 120.363 95.5173C120.72 95.4528 121.05 95.2872 121.316 95.04C134.515 84.0773 156.47 85.2531 167.294 99.0445C172.602 105.808 174.166 116.311 167.967 123.105C162.065 129.574 152.264 129.581 144.203 128.872C133.891 127.966 122.555 125.835 113.318 131.907C111.325 133.217 113.187 136.441 115.196 135.12V135.12Z" fill="#2F2E41"/>
<path d="M155.219 379.725H80.7956C79.3157 379.723 77.8969 379.134 76.8505 378.088C75.8041 377.041 75.2155 375.623 75.2139 374.143V349.335C75.2155 347.855 75.8041 346.436 76.8505 345.39C77.8969 344.344 79.3157 343.755 80.7956 343.753H155.219C156.699 343.755 158.117 344.344 159.164 345.39C160.21 346.436 160.799 347.855 160.801 349.335V374.143C160.799 375.623 160.21 377.041 159.164 378.088C158.117 379.134 156.699 379.723 155.219 379.725Z" fill="#2F2E41"/>
<path d="M157.762 257.416C155.432 245.5 146.382 236.063 134.636 232.183C138.878 230.818 141.575 228.797 141.575 226.537C141.575 222.426 132.689 219.094 121.728 219.094C110.768 219.094 101.882 222.426 101.882 226.537C101.882 228.83 104.652 230.879 109.002 232.244C90.9939 237.613 77.9233 253.285 77.9233 271.74C77.9233 271.74 72.3801 307.275 68.0278 335.681C65.2434 353.854 80.4573 370.097 100.257 370.097H169.89C174.452 370.097 178.163 366.657 178.163 362.428C178.163 362.428 165.331 296.126 157.762 257.416Z" fill="#2F2E41"/>
</g>
<defs>
<clipPath id="clip0_59_261">
<rect width="516.171" height="464.019" fill="white"/>
</clipPath>
</defs>
</svg>
