<svg width="789" height="500" viewBox="0 0 789 500" fill="none" xmlns="http://www.w3.org/2000/svg">
<g clip-path="url(#clip0_8_26)">
<path d="M546.464 467.239L573.483 481.542L546.846 475.682C547.051 477.686 547.33 479.657 547.703 481.585C547.806 482.12 547.917 482.647 548.039 483.173C548.949 487.601 550.599 491.875 552.93 495.846C553.377 496.577 553.824 497.29 554.29 497.978C554.738 498.675 555.203 499.346 555.678 500H627.299C627.895 499.346 628.464 498.666 628.985 497.978C634.092 491.425 636.161 483.301 634.743 475.367C634.483 473.753 634.109 472.156 633.625 470.585C633.156 468.98 632.586 467.4 631.92 465.854C630.757 463.122 629.384 460.468 627.811 457.912C624.532 452.527 619.417 447.668 613.388 443.353C610.47 441.277 607.428 439.349 604.276 437.577C603.68 437.229 603.074 436.889 602.459 436.558C601.519 436.049 600.577 435.547 599.627 435.063C597.736 434.078 595.826 433.144 593.916 432.26C593.413 432.022 592.919 431.793 592.425 431.572C588.279 429.686 584.151 427.996 580.22 426.51C579.726 426.323 579.223 426.136 578.729 425.958C570.907 423.041 562.906 420.542 554.765 418.474C554.765 418.474 554.738 418.542 554.691 418.687C554.57 419.077 554.262 420.02 553.843 421.413C552.679 425.278 550.629 432.651 548.979 441.553C548.886 442.037 548.802 442.529 548.709 443.022C547.332 450.551 546.569 458.163 546.427 465.795C546.417 466.27 546.417 466.737 546.417 467.213L546.464 467.239Z" fill="#60A042"/>
<path d="M552.79 417.608C552.799 417.633 552.893 418.05 553.107 418.814C553.284 419.451 553.526 420.326 553.843 421.413C554.933 425.21 556.871 431.572 559.629 439.234C559.787 439.676 559.955 440.134 560.122 440.593C562.042 445.834 564.325 451.627 566.961 457.581C567.623 459.076 568.284 460.545 568.965 461.981C569.169 462.431 569.374 462.873 569.589 463.306C572.477 469.405 575.449 474.985 578.505 480.048L579.278 481.313C582.83 487.186 586.943 492.763 591.568 497.978C592.192 498.675 592.826 499.346 593.468 500H595.63C594.978 499.346 594.325 498.666 593.692 497.978C588.801 492.583 584.475 486.781 580.769 480.651C580.508 480.234 580.247 479.818 579.996 479.394C576.707 473.949 573.716 468.258 571.042 462.618C570.828 462.185 570.623 461.743 570.418 461.293C566.924 453.835 563.989 446.505 561.623 440.049C561.455 439.591 561.287 439.132 561.129 438.682C557.681 429.151 555.52 421.677 554.69 418.687C554.579 418.245 554.486 417.897 554.42 417.659C554.355 417.438 554.327 417.311 554.318 417.285L553.563 417.447H553.554L552.79 417.608Z" fill="#60A042"/>
<path d="M547.302 443.124C547.768 443.099 548.243 443.065 548.709 443.022C552.616 442.683 556.455 441.866 560.123 440.593C560.626 440.423 561.129 440.236 561.623 440.049C563.078 439.484 564.499 438.849 565.881 438.147C571.55 435.288 576.449 431.312 580.22 426.51C580.341 426.365 580.453 426.221 580.564 426.077C580.061 425.89 579.567 425.703 579.083 425.516C578.971 425.66 578.85 425.813 578.729 425.958C575.115 430.458 570.47 434.189 565.117 436.889C563.823 437.55 562.491 438.148 561.129 438.682C560.626 438.877 560.123 439.055 559.629 439.234C556.206 440.428 552.625 441.207 548.979 441.553C548.504 441.595 548.029 441.638 547.554 441.663C547.47 442.139 547.386 442.623 547.302 443.124Z" fill="white"/>
<path d="M545.197 465.676C545.197 466.16 545.206 466.636 545.206 467.12C545.625 467.162 546.045 467.205 546.464 467.239C554.421 467.873 562.417 466.513 569.589 463.306C570.073 463.085 570.558 462.856 571.042 462.618C571.238 462.533 571.434 462.431 571.62 462.338C577.668 459.275 582.839 454.956 586.713 449.73C590.587 444.504 593.055 438.519 593.916 432.26C593.944 432.116 593.962 431.98 593.981 431.836C593.487 431.598 592.984 431.368 592.481 431.131C592.462 431.275 592.443 431.428 592.425 431.572C591.668 437.701 589.316 443.577 585.564 448.71C581.812 453.843 576.769 458.084 570.856 461.08C570.715 461.16 570.569 461.23 570.418 461.293C569.943 461.539 569.458 461.769 568.965 461.981C561.981 465.12 554.181 466.44 546.427 465.795C546.017 465.761 545.606 465.718 545.197 465.676Z" fill="white"/>
<path d="M546.631 481.254C546.743 481.797 546.864 482.341 547.004 482.885C547.349 482.986 547.694 483.088 548.038 483.173C558.349 486.07 569.469 485.408 579.278 481.313C579.772 481.101 580.275 480.88 580.769 480.651C581.291 480.413 581.813 480.158 582.334 479.895C589.02 476.507 594.622 471.59 598.589 465.628C602.556 459.665 604.75 452.864 604.956 445.893C605.05 443.107 604.822 440.32 604.276 437.577C604.258 437.45 604.229 437.331 604.202 437.204C603.596 436.847 602.981 436.499 602.366 436.15C602.403 436.286 602.431 436.422 602.459 436.558C602.941 438.559 603.24 440.594 603.354 442.64C603.787 449.9 601.974 457.126 598.121 463.492C594.268 469.858 588.53 475.109 581.561 478.646C581.049 478.901 580.527 479.156 579.996 479.393C579.502 479.623 579.008 479.844 578.505 480.048C576.898 480.715 575.245 481.288 573.558 481.763C565.129 484.157 556.091 484.095 547.703 481.585C547.34 481.483 546.985 481.373 546.631 481.254Z" fill="white"/>
<path d="M605.409 244.474H657.584V196.907H605.409V244.474Z" fill="#9E616A"/>
<path d="M690.123 481.197L679.843 481.196L674.953 445.048L690.125 445.049L690.123 481.197Z" fill="#9E616A"/>
<path d="M660.026 495.03C660.03 496.08 660.491 497.086 661.306 497.827C662.121 498.569 663.225 498.987 664.377 498.989H683.719L684.101 498.267L687.054 492.712L688.21 498.267L688.359 498.989H695.654L695.589 498.267L693.604 476.573L690.12 476.386L679.107 475.783L677.355 475.689V482.035L661.908 491.76C661.327 492.125 660.852 492.614 660.524 493.183C660.196 493.753 660.025 494.387 660.026 495.03Z" fill="#2F2E41"/>
<path d="M630.003 475.246L620.123 477.837L604.463 444.33L619.044 440.507L630.003 475.246Z" fill="#9E616A"/>
<path d="M605.269 496.126C605.594 497.134 606.342 497.983 607.35 498.491C608.359 498.998 609.546 499.122 610.654 498.836L612.825 498.267L624.835 495.115L629.251 493.96L630.546 487.088L633.705 492.796L640.711 490.953L631.944 469.93L628.543 470.627L627.323 470.873L617.773 472.827L616.058 473.175L617.987 479.274L606.089 492.516C605.643 493.013 605.335 493.601 605.192 494.229C605.05 494.858 605.076 495.509 605.269 496.126Z" fill="#2F2E41"/>
<path d="M570.014 387.971C569.144 385.879 568.823 383.63 569.077 381.405C569.331 379.179 570.153 377.039 571.477 375.155L595.16 263.161L604.477 220.691H660.38C660.38 220.691 695.319 255.941 687.865 300.959L689.951 364.359C691.93 368.707 692.419 373.5 691.352 378.107L690.522 381.693L690.842 382.233C692.367 384.806 693.187 387.678 693.23 390.603C693.274 393.527 692.54 396.418 691.092 399.028L690.924 449.685L674.154 448.835L651.994 386.324L635.689 311.152L608.204 369.336L607.272 382.926L607.724 394.906L620.771 443.124L602.602 449.495L570.014 387.971Z" fill="#2F2E41"/>
<path d="M787.891 500H517.904C517.61 500 517.328 499.893 517.12 499.704C516.912 499.514 516.795 499.257 516.795 498.989C516.795 498.72 516.912 498.463 517.12 498.274C517.328 498.084 517.61 497.977 517.904 497.977H787.891C788.184 497.978 788.466 498.085 788.673 498.275C788.88 498.464 788.997 498.721 788.997 498.989C788.997 499.256 788.88 499.513 788.673 499.703C788.466 499.892 788.184 499.999 787.891 500V500Z" fill="#E6E6E6"/>
<path d="M503.583 86.0721C518.968 86.0721 531.439 74.7023 531.439 60.677C531.439 46.6517 518.968 35.2819 503.583 35.2819C488.199 35.2819 475.727 46.6517 475.727 60.677C475.727 74.7023 488.199 86.0721 503.583 86.0721Z" fill="#F3821A"/>
<path d="M517.883 50.0931C517.464 49.7287 516.907 49.5254 516.328 49.5254C515.749 49.5254 515.192 49.7287 514.773 50.0931C508.862 54.3907 503.553 59.3343 498.966 64.8127C497.839 62.826 496.713 60.8393 495.587 58.8526C494.287 56.5594 490.49 58.5851 491.789 60.8764C493.436 63.7823 495.084 66.6882 496.731 69.594C497.549 71.036 499.639 70.7418 500.529 69.594C505.418 63.3169 511.261 57.7055 517.883 52.9285C518.292 52.5509 518.522 52.0416 518.522 51.5108C518.521 50.98 518.292 50.4707 517.883 50.0931Z" fill="white"/>
<path d="M529.469 78.7424C529.21 79.1947 528.907 79.6248 528.564 80.0276L575.85 111.683L629.624 127.591C633.006 128.592 635.847 130.724 637.573 133.559C639.298 136.394 639.781 139.72 638.922 142.867C638.064 146.013 635.928 148.746 632.947 150.513C629.965 152.281 626.36 152.951 622.857 152.391H622.857C611.506 150.573 600.535 147.154 590.339 142.254L556.684 126.08L515.967 81.8721C514.481 80.9537 513.318 79.6634 512.618 78.1566C511.918 76.6497 511.71 74.9905 512.02 73.3785C512.329 71.7665 513.144 70.2705 514.364 69.0705C515.585 67.8704 517.159 67.0174 518.899 66.6142C520.639 66.2109 522.469 66.2746 524.17 66.7974C525.871 67.3203 527.37 68.2802 528.487 69.5615C529.604 70.8429 530.291 72.3911 530.465 74.0199C530.639 75.6487 530.293 77.2887 529.469 78.7425V78.7424Z" fill="#9E616A"/>
<path d="M568.877 132.154L579.221 111.432L630.827 120.992C633.405 122.205 635.696 123.87 637.569 125.891C639.441 127.912 640.858 130.25 641.74 132.77C642.622 135.29 642.95 137.944 642.707 140.581C642.463 143.217 641.652 145.783 640.321 148.134C638.989 150.484 637.163 152.572 634.946 154.279C632.73 155.986 630.166 157.279 627.401 158.082C621.818 159.706 615.756 159.24 610.549 156.789L568.877 132.154Z" fill="#2F2E41"/>
<path d="M621.892 24.8922H3.46401C2.54561 24.8913 1.66511 24.5583 1.0157 23.9663C0.366292 23.3742 0.00100865 22.5715 0 21.7342V3.158C0.00100865 2.32073 0.366292 1.51802 1.0157 0.925975C1.66511 0.333934 2.54561 0.000919549 3.46401 0H621.892C622.811 0.000919549 623.691 0.333934 624.341 0.925975C624.99 1.51802 625.355 2.32073 625.356 3.158V21.7343C625.355 22.5715 624.99 23.3742 624.341 23.9663C623.691 24.5583 622.811 24.8913 621.892 24.8922Z" fill="#E4E4E4"/>
<path d="M20.1031 16.0236C22.8192 16.0236 25.0211 14.0162 25.0211 11.54C25.0211 9.06382 22.8192 7.05646 20.1031 7.05646C17.3869 7.05646 15.1851 9.06382 15.1851 11.54C15.1851 14.0162 17.3869 16.0236 20.1031 16.0236Z" fill="white"/>
<path d="M38.7703 16.0236C41.4865 16.0236 43.6884 14.0162 43.6884 11.54C43.6884 9.06382 41.4865 7.05646 38.7703 7.05646C36.0542 7.05646 33.8523 9.06382 33.8523 11.54C33.8523 14.0162 36.0542 16.0236 38.7703 16.0236Z" fill="white"/>
<path d="M57.4385 16.0236C60.1547 16.0236 62.3566 14.0162 62.3566 11.54C62.3566 9.06382 60.1547 7.05646 57.4385 7.05646C54.7224 7.05646 52.5205 9.06382 52.5205 11.54C52.5205 14.0162 54.7224 16.0236 57.4385 16.0236Z" fill="white"/>
<path d="M603.603 8.45407H582.106C581.684 8.45407 581.279 8.30112 580.981 8.02889C580.682 7.75665 580.514 7.38744 580.514 7.00244C580.514 6.61744 580.682 6.24821 580.981 5.97598C581.279 5.70375 581.684 5.55081 582.106 5.55081H603.603C604.025 5.55081 604.43 5.70375 604.728 5.97598C605.027 6.24821 605.195 6.61744 605.195 7.00244C605.195 7.38744 605.027 7.75665 604.728 8.02889C604.43 8.30112 604.025 8.45407 603.603 8.45407Z" fill="white"/>
<path d="M603.603 13.8977H582.106C581.684 13.8977 581.279 13.7447 580.981 13.4725C580.682 13.2003 580.514 12.831 580.514 12.446C580.514 12.061 580.682 11.6918 580.981 11.4196C581.279 11.1473 581.684 10.9944 582.106 10.9944H603.603C604.025 10.9944 604.43 11.1473 604.728 11.4196C605.027 11.6918 605.195 12.061 605.195 12.446C605.195 12.831 605.027 13.2003 604.728 13.4725C604.43 13.7447 604.025 13.8977 603.603 13.8977Z" fill="white"/>
<path d="M603.603 19.3413H582.106C581.684 19.3413 581.279 19.1884 580.981 18.9161C580.682 18.6439 580.514 18.2747 580.514 17.8897C580.514 17.5047 580.682 17.1355 580.981 16.8632C581.279 16.591 581.684 16.438 582.106 16.438H603.603C604.025 16.438 604.43 16.591 604.728 16.8632C605.027 17.1355 605.195 17.5047 605.195 17.8897C605.195 18.2747 605.027 18.6439 604.728 18.9161C604.43 19.1884 604.025 19.3413 603.603 19.3413Z" fill="white"/>
<path d="M444.583 257.461H180.773C172.621 257.453 164.805 254.496 159.04 249.241C153.276 243.985 150.033 236.86 150.024 229.428V98.4371C150.033 91.0051 153.276 83.8799 159.04 78.6247C164.805 73.3696 172.621 70.4137 180.773 70.4056H444.583C452.736 70.4137 460.551 73.3696 466.316 78.6247C472.081 83.8799 475.323 91.0051 475.332 98.4371V229.428C475.323 236.86 472.081 243.985 466.316 249.241C460.552 254.496 452.736 257.453 444.583 257.461V257.461Z" fill="#F2F2F2"/>
<path d="M376.705 137.012C378.828 136.168 374.523 135.677 369.637 135.516C364.752 135.354 358.842 135.363 355.72 134.904C352.701 134.459 352.923 133.669 352.669 132.953C352.415 132.237 351.255 131.503 346.543 131.344C340.672 131.146 330.991 131.909 326.559 131.451C322.423 131.023 324.881 129.682 318.85 129.631C315.407 129.601 310.97 130.043 307.138 130.15C304.422 130.258 301.701 130.128 299.012 129.764C297.144 129.485 295.843 129.131 293.741 128.885C288.222 128.238 277.425 128.455 267.788 129.285C258.151 130.114 249.891 131.472 245.232 132.818C240.573 134.164 239.286 135.489 240.371 136.613C241.064 137.33 242.838 138.001 247.139 138.289C255.185 138.829 269.509 137.9 277.823 138.391C282.457 138.665 284.512 139.343 288.578 139.714C292.945 140.112 299.339 140.133 305.621 140.124C318.701 140.104 332.116 139.982 345.795 139.757C351.508 139.663 357.495 139.541 363.574 139.094C369.654 138.647 375.855 137.784 377.137 136.975" fill="#E6E6E6"/>
<path d="M422.622 122.075C422.52 121.838 422.41 121.604 422.296 121.375C422.481 121.441 422.666 121.513 422.848 121.591L422.622 122.075Z" fill="#E6E6E6"/>
<path d="M323.412 150.691C321.724 148.144 319.722 145.425 316.588 144.594C312.959 143.631 309.23 145.544 306.067 147.431C296.61 153.077 287.501 159.195 278.785 165.757L278.794 165.856L299.153 164.576C304.056 164.268 309.128 163.917 313.461 161.803C315.105 161 316.708 159.928 318.571 159.854C320.886 159.761 322.904 161.235 324.49 162.775C333.873 171.883 336.588 185.813 347.114 193.815C340.477 178.892 332.551 164.472 323.412 150.691V150.691Z" fill="#E6E6E6"/>
<path d="M381.086 227.949C380.049 226.754 379.625 226.475 378.601 225.269C370.268 215.443 362.435 205.285 355.103 194.795C350.123 187.671 345.389 180.41 340.903 173.012C338.767 169.495 336.69 165.95 334.671 162.378C333.105 159.608 331.573 156.822 330.076 154.019C329.648 153.218 329.233 152.414 328.819 151.608C327.844 149.712 326.887 147.807 325.859 145.938C324.688 143.806 323.263 141.572 321.113 140.14C320.135 139.462 318.965 139.051 317.74 138.957C316.015 138.966 314.325 139.407 312.856 140.232C301.738 145.561 291.36 152.085 281.945 159.665C272.516 167.215 264.087 175.744 256.832 185.08C256.61 185.369 256.085 185.093 256.309 184.802C257.191 183.664 258.091 182.539 259.008 181.426C270.413 167.599 284.396 155.707 300.32 146.296C302.999 144.714 305.728 143.205 308.508 141.771C309.909 141.048 311.316 140.333 312.747 139.664C314.119 138.93 315.657 138.496 317.243 138.394C322.698 138.316 325.522 143.948 327.462 147.738C328.072 148.93 328.689 150.119 329.313 151.304C331.673 155.804 334.124 160.263 336.666 164.68C338.234 167.408 339.837 170.12 341.474 172.815C346.57 181.209 351.985 189.434 357.721 197.488C365.32 208.157 372.858 217.582 381.514 227.559C381.753 227.835 381.327 228.228 381.086 227.949Z" fill="#E4E4E4"/>
<path d="M281.406 156.884C281.089 156.562 280.774 156.24 280.455 155.918C277.94 153.382 275.241 150.875 271.787 149.421C270.14 148.706 268.342 148.326 266.518 148.308C264.635 148.355 262.78 148.724 261.047 149.396C260.223 149.696 259.418 150.036 258.624 150.399C257.718 150.815 256.828 151.258 255.941 151.705C254.278 152.545 252.636 153.421 251.016 154.333C247.792 156.15 244.669 158.105 241.647 160.199C240.08 161.285 238.546 162.406 237.044 163.563C235.647 164.638 234.278 165.742 232.938 166.874C232.651 167.115 232.223 166.725 232.51 166.484C232.863 166.184 233.22 165.886 233.578 165.591C234.587 164.76 235.612 163.944 236.654 163.144C238.554 161.682 240.503 160.277 242.5 158.929C245.607 156.831 248.821 154.875 252.142 153.062C253.802 152.156 255.484 151.289 257.189 150.459C257.704 150.209 258.225 149.964 258.752 149.732C259.947 149.183 261.189 148.722 262.466 148.354C264.275 147.821 266.188 147.649 268.076 147.852C269.899 148.093 271.655 148.647 273.252 149.484C276.644 151.212 279.274 153.884 281.834 156.492C282.092 156.757 281.666 157.149 281.406 156.884Z" fill="#E4E4E4"/>
<path d="M350.896 183.165L359.023 180.455L363.058 179.11C364.362 178.631 365.692 178.214 367.042 177.859C368.223 177.552 369.476 177.566 370.648 177.901C371.692 178.253 372.649 178.794 373.46 179.49C374.289 180.186 375.06 180.937 375.767 181.736C376.645 182.699 377.511 183.671 378.38 184.64C381.968 188.641 385.533 192.659 389.074 196.694C392.616 200.73 396.133 204.782 399.627 208.852C403.129 212.931 406.608 217.028 410.062 221.141C410.485 221.645 410.908 222.149 411.33 222.654C411.564 222.932 412.09 222.658 411.853 222.375C408.373 218.22 404.869 214.082 401.341 209.961C397.804 205.83 394.243 201.717 390.657 197.621C387.072 193.526 383.462 189.448 379.828 185.388C378.922 184.376 378.015 183.366 377.107 182.356C376.341 181.505 375.583 180.644 374.743 179.852C373.2 178.398 371.273 177.112 368.966 177.077C367.614 177.12 366.283 177.387 365.036 177.865C363.677 178.313 362.322 178.769 360.965 179.222L352.781 181.951L350.736 182.633C350.372 182.754 350.529 183.288 350.896 183.165L350.896 183.165Z" fill="#E4E4E4"/>
<path d="M270.717 152.613C268.629 151.675 266.304 151.26 263.982 151.411C261.66 151.563 259.424 152.275 257.503 153.474C264.742 154.613 271.902 156.136 278.946 158.037C276.021 156.474 273.733 154.025 270.717 152.613Z" fill="#E6E6E6"/>
<path d="M257.463 153.467L256.668 154.057C256.937 153.85 257.216 153.657 257.503 153.474L257.463 153.467Z" fill="#F2F2F2"/>
<path d="M373.154 183.192C372.443 182.236 371.451 181.482 370.293 181.014L369.175 181.054C377.68 194.754 389.165 206.725 402.927 216.232C393.003 205.218 383.078 194.205 373.154 183.192Z" fill="#E6E6E6"/>
<path d="M225.949 117.95C232.152 117.95 237.18 113.366 237.18 107.711C237.18 102.056 232.152 97.4722 225.949 97.4722C219.747 97.4722 214.719 102.056 214.719 107.711C214.719 113.366 219.747 117.95 225.949 117.95Z" fill="#E6E6E6"/>
<path d="M260.336 107.177C257.363 104.335 253.912 101.742 249.825 100.371C248.687 99.9881 247.506 99.7177 246.305 99.5649C246.295 99.5637 246.286 99.5655 246.276 99.5648C246.257 99.5602 246.237 99.5566 246.217 99.5542C244.536 99.3589 242.83 99.4528 241.187 99.831C240.383 100.015 239.6 100.264 238.845 100.575C238.087 100.912 237.353 101.291 236.647 101.71C235.152 102.526 233.507 103.086 231.791 103.362C230.93 103.503 230.058 103.581 229.183 103.595C228.439 103.572 227.696 103.67 226.989 103.883C226.22 104.146 225.53 104.57 224.973 105.12C224.417 105.669 224.008 106.33 223.781 107.049C223.764 107.113 223.769 107.181 223.796 107.242C223.824 107.303 223.871 107.355 223.933 107.389C224.128 107.516 224.317 107.66 224.522 107.774C224.704 107.849 224.898 107.898 225.097 107.917C225.422 107.979 225.747 108.04 226.073 108.099C227.273 108.315 228.478 108.507 229.689 108.674C232.138 109.012 234.6 109.25 237.075 109.389C244.83 109.816 252.612 109.241 260.19 107.681C260.245 107.666 260.295 107.639 260.335 107.601C260.375 107.563 260.404 107.517 260.419 107.467C260.433 107.416 260.433 107.363 260.419 107.312C260.404 107.261 260.376 107.215 260.336 107.177V107.177Z" fill="#F0F0F0"/>
<path d="M226.482 114.023C225.344 113.64 224.164 113.369 222.962 113.217C222.952 113.215 222.943 113.217 222.934 113.216C222.914 113.212 222.894 113.208 222.874 113.206C221.193 113.011 219.487 113.104 217.844 113.483C217.041 113.666 216.257 113.915 215.502 114.226C214.745 114.563 214.011 114.943 213.305 115.362C211.81 116.178 210.164 116.737 208.448 117.013C207.587 117.155 206.715 117.233 205.84 117.247C205.096 117.224 204.353 117.321 203.646 117.535C202.878 117.798 202.188 118.222 201.631 118.771C201.074 119.321 200.666 119.982 200.439 120.701C200.421 120.765 200.426 120.832 200.454 120.893C200.481 120.955 200.529 121.006 200.59 121.041C200.785 121.168 200.975 121.312 201.179 121.425C201.361 121.501 201.555 121.549 201.754 121.568C202.079 121.631 202.404 121.691 202.73 121.75C203.93 121.967 205.136 122.159 206.346 122.326C208.795 122.664 211.257 122.902 213.732 123.04C221.487 123.467 229.269 122.892 236.847 121.332C236.902 121.318 236.952 121.29 236.992 121.253C237.033 121.215 237.061 121.169 237.076 121.118C237.091 121.068 237.091 121.014 237.076 120.964C237.062 120.913 237.033 120.867 236.993 120.829C234.021 117.986 230.569 115.393 226.482 114.023Z" fill="#F0F0F0"/>
<path d="M417.115 215.547L423.097 211.407L426.013 214.065L416.267 220.145L417.115 215.547Z" fill="#E6E6E6"/>
<path d="M411.535 226.948H391.072L391.79 224.828C396.238 223.36 393.74 220.204 397.971 218.276C408.32 213.558 412.327 199.481 410.811 193.916L417.593 193.654C417.593 193.654 426.96 217.903 411.535 226.948Z" fill="#E6E6E6"/>
<path d="M429.005 216.982C428.394 217.472 427.612 217.749 426.798 217.763C425.984 217.777 425.191 217.527 424.56 217.058L424.547 217.048L424.547 217.033C424.539 216.773 424.495 216.515 424.415 216.266C424.411 216.445 424.382 216.624 424.329 216.797L424.312 216.855L424.266 216.812C424.226 216.774 424.188 216.736 424.152 216.699C423.94 216.479 423.762 216.234 423.624 215.97C422.962 214.729 422.003 213.64 420.818 212.782C420.606 212.625 420.41 212.452 420.229 212.265C419.468 211.476 419.041 210.466 419.022 209.415C419.004 208.364 419.397 207.342 420.13 206.531C420.863 205.721 421.889 205.174 423.023 204.99C424.158 204.806 425.328 204.996 426.323 205.526L426.353 205.542L426.337 205.571C426.222 205.789 426.07 205.989 425.886 206.164C426.139 206.04 426.372 205.886 426.581 205.706L426.603 205.687L426.628 205.703C426.955 205.909 427.253 206.151 427.515 206.423L427.543 206.453C427.744 206.662 427.99 206.83 428.266 206.946C428.543 207.062 428.843 207.124 429.147 207.128C429.644 207.135 430.133 207.241 430.58 207.437C431.028 207.633 431.423 207.916 431.74 208.265C432.056 208.614 432.286 209.021 432.413 209.459C432.54 209.896 432.562 210.354 432.477 210.8L432.473 210.821L432.451 210.827C432.065 210.948 431.656 210.994 431.249 210.963C431.589 211.098 431.95 211.181 432.32 211.208L432.367 211.211L432.352 211.253C432.16 211.779 431.818 212.25 431.36 212.616L431.347 212.626L431.333 212.637C430.993 212.905 430.714 213.232 430.514 213.598C430.314 213.965 430.196 214.365 430.167 214.774C430.144 215.194 430.03 215.606 429.83 215.985C429.631 216.364 429.35 216.703 429.005 216.982V216.982Z" fill="#E6E6E6"/>
<path opacity="0.15" d="M429.631 215.975C429.625 216.088 429.612 216.2 429.592 216.312C429.927 215.843 430.12 215.301 430.151 214.742C430.156 214.656 430.165 214.571 430.179 214.486C429.853 214.928 429.664 215.443 429.631 215.975V215.975Z" fill="black"/>
<path opacity="0.15" d="M430.713 212.164C430.986 212.272 431.274 212.346 431.568 212.385C431.682 212.275 431.787 212.159 431.882 212.036C431.506 212.151 431.108 212.194 430.713 212.164V212.164Z" fill="black"/>
<path opacity="0.15" d="M431.974 211.135C432.004 211.406 431.996 211.679 431.949 211.948C432.112 211.722 432.242 211.477 432.336 211.22L432.351 211.179L432.304 211.176C432.193 211.167 432.083 211.153 431.974 211.135Z" fill="black"/>
<path opacity="0.15" d="M431.655 208.159C431.339 207.832 430.951 207.568 430.516 207.385C430.082 207.202 429.61 207.103 429.131 207.095C428.827 207.092 428.527 207.03 428.251 206.914C427.974 206.797 427.728 206.629 427.527 206.42L427.499 206.391C427.237 206.119 426.939 205.877 426.612 205.671L426.587 205.655L426.565 205.674C426.356 205.853 426.123 206.007 425.87 206.132C426.054 205.957 426.206 205.757 426.321 205.538L426.337 205.51L426.307 205.494C425.647 205.142 424.905 204.937 424.142 204.896C423.379 204.855 422.617 204.979 421.916 205.258C421.216 205.537 420.598 205.963 420.112 206.501C419.627 207.04 419.288 207.675 419.123 208.355C419.441 207.847 419.865 207.401 420.373 207.044C420.881 206.686 421.462 206.424 422.082 206.272C422.701 206.121 423.348 206.083 423.984 206.161C424.62 206.239 425.233 206.431 425.786 206.727L425.817 206.743L425.801 206.771C425.686 206.989 425.534 207.19 425.35 207.364C425.602 207.24 425.836 207.086 426.045 206.907L426.067 206.888L426.092 206.904C426.419 207.11 426.716 207.352 426.979 207.624L427.007 207.653C427.208 207.862 427.454 208.03 427.73 208.147C428.007 208.263 428.307 208.325 428.611 208.328C429.407 208.34 430.174 208.604 430.78 209.074C431.387 209.544 431.796 210.191 431.937 210.905C432.105 210.877 432.272 210.841 432.435 210.794L432.457 210.788L432.461 210.768C432.55 210.306 432.524 209.831 432.385 209.38C432.245 208.928 431.996 208.511 431.655 208.159V208.159Z" fill="black"/>
<path d="M438.895 195.251C438.895 197.64 437.965 199.952 436.272 201.775C434.578 203.598 432.23 204.815 429.645 205.208L429.59 205.216L429.548 205.184C428.843 204.648 428.065 204.198 427.233 203.845C427.701 204.235 428.113 204.678 428.459 205.162L428.577 205.323L428.365 205.333C428.181 205.341 427.999 205.345 427.823 205.345C426.789 205.346 425.76 205.216 424.765 204.958C420.068 203.779 415.14 203.575 410.345 204.363C409.479 204.495 408.602 204.562 407.724 204.562C404.013 204.561 400.423 203.355 397.598 201.161C394.773 198.967 392.897 195.928 392.305 192.588C391.714 189.248 392.446 185.825 394.371 182.932C396.295 180.04 399.286 177.866 402.809 176.8L402.916 176.768L402.958 176.863C403.292 177.581 403.499 178.342 403.572 179.118C403.779 178.298 403.868 177.456 403.836 176.615L403.832 176.526L403.927 176.504C405.169 176.222 406.444 176.079 407.724 176.08L407.862 176.08C408.842 176.083 409.812 175.897 410.708 175.535C411.604 175.173 412.407 174.643 413.063 173.98C414.139 172.901 415.459 172.048 416.931 171.479C418.403 170.91 419.993 170.639 421.592 170.684C423.19 170.729 424.759 171.088 426.19 171.739C427.621 172.389 428.881 173.314 429.883 174.451L429.929 174.503L429.899 174.565C429.398 175.673 428.652 176.673 427.706 177.504C428.785 177.043 429.773 176.421 430.63 175.665L430.741 175.567L430.818 175.689C431.805 177.232 432.325 178.987 432.324 180.773L432.324 180.824L432.324 180.878C432.309 182.198 432.583 183.507 433.13 184.729C433.677 185.95 434.486 187.06 435.51 187.993C436.576 188.936 437.424 190.064 438.006 191.31C438.587 192.557 438.889 193.896 438.895 195.251V195.251Z" fill="#E6E6E6"/>
<g opacity="0.15">
<path d="M425.359 171.396C424.977 171.973 424.507 172.499 423.964 172.956C424.742 172.623 425.474 172.206 426.143 171.714C425.886 171.598 425.625 171.492 425.359 171.396Z" fill="black"/>
<path d="M431.768 183.444C432.37 183.977 432.904 184.57 433.36 185.213C432.674 183.853 432.32 182.374 432.324 180.878L432.324 180.824L432.324 180.773C432.325 178.987 431.805 177.232 430.818 175.688L430.74 175.567L430.63 175.665C430.019 176.203 429.342 176.673 428.61 177.067C428.769 179.474 429.893 181.743 431.768 183.444V183.444Z" fill="black"/>
<path d="M428.582 176.225L428.582 176.276L428.582 176.33C428.582 176.429 428.584 176.528 428.587 176.626C429.108 175.987 429.549 175.295 429.899 174.565L429.929 174.503L429.883 174.451C429.299 173.788 428.626 173.195 427.88 172.685C428.344 173.817 428.582 175.016 428.582 176.225V176.225Z" fill="black"/>
<path d="M435.51 187.993C434.977 187.521 434.504 186.996 434.099 186.428C434.824 187.837 435.182 189.381 435.144 190.937C435.106 192.494 434.673 194.021 433.879 195.4C433.085 196.779 431.952 197.971 430.568 198.883C429.184 199.796 427.587 200.404 425.903 200.66L425.848 200.668L425.806 200.636C425.101 200.1 424.323 199.65 423.491 199.296C423.959 199.687 424.37 200.129 424.717 200.613L424.835 200.775L424.622 200.784C424.439 200.792 424.257 200.796 424.081 200.796C423.047 200.797 422.018 200.667 421.023 200.41C416.326 199.23 411.398 199.026 406.603 199.814C405.737 199.947 404.86 200.014 403.982 200.014C400.154 200.016 396.459 198.732 393.605 196.406C394.871 198.844 396.87 200.904 399.369 202.348C401.868 203.792 404.765 204.559 407.724 204.562C408.602 204.562 409.478 204.495 410.345 204.363C415.14 203.575 420.068 203.779 424.765 204.958C425.76 205.216 426.789 205.346 427.823 205.345C427.999 205.345 428.181 205.341 428.364 205.333L428.577 205.323L428.459 205.162C428.112 204.678 427.701 204.235 427.233 203.845C428.065 204.198 428.843 204.648 429.548 205.184L429.59 205.216L429.645 205.208C431.668 204.901 433.557 204.088 435.103 202.859C436.648 201.63 437.789 200.034 438.397 198.248C439.005 196.463 439.058 194.559 438.548 192.748C438.038 190.937 436.986 189.291 435.51 187.993L435.51 187.993Z" fill="black"/>
</g>
<path d="M215.978 210.093L207.871 204.482L203.919 208.084L217.125 216.323L215.978 210.093Z" fill="#E6E6E6"/>
<path d="M223.538 225.543H251.269L250.296 222.67C244.268 220.68 247.654 216.404 241.92 213.79C227.895 207.397 222.466 188.32 224.519 180.779L215.329 180.424C215.329 180.424 202.636 213.285 223.538 225.543Z" fill="#E6E6E6"/>
<path d="M198.289 209.045C198.251 208.491 198.091 207.949 197.819 207.452C197.548 206.955 197.17 206.512 196.709 206.15L196.69 206.135L196.672 206.12C196.053 205.624 195.589 204.987 195.328 204.273L195.308 204.217L195.372 204.212C195.873 204.176 196.363 204.064 196.823 203.881C196.272 203.923 195.717 203.86 195.194 203.696L195.164 203.688L195.159 203.66C195.044 203.055 195.073 202.435 195.245 201.842C195.418 201.249 195.729 200.697 196.158 200.224C196.587 199.751 197.123 199.368 197.729 199.102C198.336 198.836 198.998 198.693 199.671 198.683C200.084 198.678 200.49 198.594 200.865 198.437C201.239 198.279 201.573 198.052 201.845 197.768L201.883 197.728C202.239 197.36 202.643 197.032 203.086 196.753L203.12 196.731L203.149 196.757C203.432 197 203.749 197.208 204.091 197.377C203.842 197.14 203.636 196.869 203.479 196.573L203.458 196.534L203.499 196.513C204.848 195.794 206.433 195.536 207.97 195.786C209.508 196.036 210.898 196.776 211.892 197.875C212.885 198.974 213.417 200.359 213.392 201.783C213.367 203.207 212.788 204.576 211.756 205.645C211.512 205.898 211.246 206.132 210.959 206.345C209.353 207.508 208.054 208.984 207.157 210.665C206.97 211.023 206.729 211.356 206.441 211.654C206.392 211.704 206.34 211.756 206.286 211.806L206.224 211.865L206.201 211.786C206.129 211.552 206.09 211.31 206.085 211.067C205.976 211.405 205.916 211.754 205.906 212.106L205.905 212.127L205.887 212.141C205.219 212.638 204.411 212.956 203.556 213.06C202.7 213.164 201.83 213.049 201.042 212.728C200.254 212.407 199.579 211.892 199.093 211.242C198.607 210.592 198.329 209.831 198.289 209.045L198.289 209.045Z" fill="#E6E6E6"/>
<path opacity="0.15" d="M199.016 210.672C199.024 210.825 199.042 210.978 199.068 211.129C198.614 210.493 198.353 209.759 198.311 209.001C198.305 208.885 198.291 208.77 198.274 208.655C198.715 209.254 198.971 209.951 199.016 210.672Z" fill="black"/>
<path opacity="0.15" d="M197.549 205.508C197.179 205.654 196.789 205.755 196.39 205.807C196.236 205.659 196.094 205.501 195.965 205.335C196.475 205.49 197.014 205.549 197.549 205.508V205.508Z" fill="black"/>
<path opacity="0.15" d="M195.841 204.113C195.8 204.48 195.811 204.851 195.874 205.215C195.653 204.909 195.477 204.577 195.35 204.229L195.329 204.173L195.394 204.169C195.544 204.157 195.693 204.138 195.841 204.113V204.113Z" fill="black"/>
<path opacity="0.15" d="M196.272 200.081C196.701 199.637 197.227 199.28 197.816 199.031C198.405 198.783 199.044 198.65 199.693 198.639C200.105 198.634 200.512 198.551 200.886 198.393C201.261 198.235 201.595 198.008 201.866 197.725L201.905 197.684C202.26 197.316 202.664 196.988 203.107 196.709L203.141 196.687L203.171 196.713C203.454 196.956 203.77 197.165 204.112 197.333C203.863 197.096 203.657 196.825 203.501 196.529L203.48 196.491L203.521 196.469C204.415 195.992 205.42 195.714 206.454 195.659C207.488 195.603 208.521 195.771 209.471 196.15C210.42 196.528 211.257 197.105 211.915 197.834C212.573 198.564 213.032 199.425 213.256 200.347C212.825 199.658 212.25 199.053 211.561 198.569C210.873 198.084 210.086 197.729 209.246 197.524C208.406 197.319 207.53 197.267 206.668 197.373C205.806 197.479 204.976 197.739 204.226 198.14L204.185 198.161L204.206 198.2C204.362 198.496 204.568 198.767 204.817 199.004C204.475 198.835 204.159 198.627 203.876 198.384L203.846 198.358L203.812 198.38C203.369 198.659 202.965 198.987 202.61 199.355L202.571 199.395C202.3 199.679 201.966 199.906 201.591 200.064C201.217 200.221 200.81 200.305 200.398 200.31C199.319 200.327 198.28 200.684 197.459 201.32C196.637 201.957 196.082 202.834 195.89 203.802C195.663 203.765 195.437 203.715 195.216 203.652L195.186 203.644L195.181 203.616C195.06 202.99 195.095 202.347 195.284 201.735C195.473 201.123 195.811 200.557 196.272 200.081V200.081Z" fill="black"/>
<path d="M191.049 172.752C192.436 171.488 193.533 169.984 194.274 168.329C195.016 166.673 195.387 164.899 195.366 163.111C195.366 163.086 195.366 163.062 195.366 163.037L195.366 162.968C195.365 160.547 196.069 158.169 197.407 156.078L197.512 155.913L197.662 156.046C198.823 157.071 200.162 157.913 201.625 158.539C200.343 157.413 199.331 156.056 198.653 154.555L198.611 154.472L198.675 154.4C200.032 152.86 201.739 151.606 203.679 150.725C205.618 149.844 207.744 149.356 209.91 149.296C212.076 149.235 214.231 149.603 216.226 150.374C218.222 151.145 220.01 152.301 221.468 153.762C222.358 154.661 223.445 155.38 224.659 155.87C225.874 156.36 227.188 156.612 228.516 156.609L228.704 156.608C230.438 156.608 232.166 156.801 233.849 157.183L233.977 157.212L233.972 157.333C233.929 158.473 234.049 159.614 234.33 160.726C234.429 159.674 234.71 158.642 235.162 157.67L235.219 157.54L235.365 157.584C240.138 159.028 244.191 161.974 246.799 165.894C249.407 169.815 250.4 174.453 249.598 178.98C248.797 183.506 246.254 187.625 242.426 190.598C238.597 193.571 233.733 195.205 228.704 195.206C227.514 195.206 226.326 195.116 225.152 194.936C218.654 193.869 211.975 194.144 205.609 195.743C204.262 196.092 202.867 196.268 201.466 196.267C201.228 196.267 200.981 196.261 200.732 196.25L200.444 196.238L200.604 196.019C201.074 195.363 201.632 194.763 202.265 194.234C201.138 194.713 200.084 195.323 199.129 196.049L199.071 196.093L198.997 196.082C196.256 195.666 193.695 194.564 191.6 192.898C189.506 191.233 187.96 189.07 187.136 186.65C186.312 184.231 186.241 181.65 186.932 179.196C187.623 176.742 189.048 174.511 191.049 172.752L191.049 172.752Z" fill="#E6E6E6"/>
<g opacity="0.15">
<path d="M204.806 150.26C205.323 151.043 205.959 151.755 206.696 152.375C205.641 151.923 204.65 151.358 203.742 150.691C204.09 150.535 204.445 150.391 204.806 150.26Z" fill="black"/>
<path d="M196.12 166.588C195.304 167.31 194.58 168.114 193.963 168.985C194.892 167.143 195.371 165.138 195.366 163.111C195.366 163.086 195.366 163.062 195.366 163.037L195.366 162.968C195.365 160.547 196.069 158.169 197.407 156.078L197.512 155.913L197.662 156.046C198.489 156.775 199.408 157.412 200.399 157.946C200.183 161.207 198.661 164.283 196.12 166.588V166.588Z" fill="black"/>
<path d="M200.437 156.804L200.437 156.873L200.437 156.947C200.437 157.081 200.435 157.215 200.431 157.349C199.724 156.482 199.128 155.545 198.653 154.555L198.611 154.472L198.675 154.4C199.466 153.502 200.378 152.698 201.389 152.007C200.76 153.541 200.437 155.166 200.437 156.804V156.804Z" fill="black"/>
<path d="M191.049 172.752C191.771 172.112 192.412 171.401 192.961 170.631C191.978 172.541 191.493 174.633 191.545 176.742C191.596 178.852 192.183 180.922 193.259 182.79C194.335 184.658 195.87 186.274 197.746 187.51C199.621 188.747 201.785 189.571 204.068 189.918L204.142 189.929L204.2 189.885C205.155 189.159 206.209 188.549 207.336 188.07C206.703 188.599 206.145 189.199 205.675 189.855L205.515 190.074L205.803 190.086C206.052 190.097 206.299 190.103 206.537 190.103C207.938 190.104 209.333 189.928 210.68 189.579C217.046 187.98 223.725 187.704 230.223 188.772C231.397 188.952 232.585 189.042 233.775 189.042C238.962 189.046 243.969 187.305 247.836 184.153C246.121 187.457 243.412 190.249 240.026 192.206C236.639 194.162 232.713 195.203 228.704 195.206C227.514 195.206 226.326 195.116 225.152 194.936C218.654 193.869 211.975 194.144 205.609 195.743C204.261 196.092 202.867 196.268 201.466 196.267C201.228 196.267 200.981 196.262 200.732 196.25L200.444 196.238L200.604 196.019C201.074 195.363 201.632 194.763 202.265 194.234C201.138 194.713 200.084 195.323 199.129 196.049L199.071 196.093L198.997 196.082C196.256 195.666 193.695 194.564 191.6 192.898C189.506 191.233 187.96 189.07 187.136 186.65C186.312 184.231 186.241 181.65 186.932 179.196C187.623 176.742 189.048 174.511 191.049 172.752V172.752Z" fill="black"/>
</g>
<path d="M287.829 135.617C288.437 135.617 288.93 135.167 288.93 134.613C288.93 134.058 288.437 133.609 287.829 133.609C287.221 133.609 286.728 134.058 286.728 134.613C286.728 135.167 287.221 135.617 287.829 135.617Z" fill="white"/>
<path d="M370.189 159.306C370.554 159.306 370.849 159.036 370.849 158.704C370.849 158.371 370.554 158.102 370.189 158.102C369.824 158.102 369.528 158.371 369.528 158.704C369.528 159.036 369.824 159.306 370.189 159.306Z" fill="white"/>
<path d="M382.961 132.204C383.326 132.204 383.622 131.934 383.622 131.601C383.622 131.269 383.326 130.999 382.961 130.999C382.596 130.999 382.301 131.269 382.301 131.601C382.301 131.934 382.596 132.204 382.961 132.204Z" fill="white"/>
<path d="M264.707 114.135C265.072 114.135 265.367 113.866 265.367 113.533C265.367 113.2 265.072 112.931 264.707 112.931C264.342 112.931 264.046 113.2 264.046 113.533C264.046 113.866 264.342 114.135 264.707 114.135Z" fill="#E6E6E6"/>
<path d="M258.1 138.427C258.465 138.427 258.761 138.157 258.761 137.825C258.761 137.492 258.465 137.223 258.1 137.223C257.736 137.223 257.44 137.492 257.44 137.825C257.44 138.157 257.736 138.427 258.1 138.427Z" fill="white"/>
<path d="M225.949 132.204C226.314 132.204 226.61 131.934 226.61 131.601C226.61 131.269 226.314 130.999 225.949 130.999C225.584 130.999 225.289 131.269 225.289 131.601C225.289 131.934 225.584 132.204 225.949 132.204Z" fill="#E6E6E6"/>
<path d="M339.799 137.223C340.164 137.223 340.46 136.953 340.46 136.62C340.46 136.288 340.164 136.018 339.799 136.018C339.435 136.018 339.139 136.288 339.139 136.62C339.139 136.953 339.435 137.223 339.799 137.223Z" fill="white"/>
<path d="M407.405 117.749C407.77 117.749 408.065 117.479 408.065 117.147C408.065 116.814 407.77 116.544 407.405 116.544C407.04 116.544 406.744 116.814 406.744 117.147C406.744 117.479 407.04 117.749 407.405 117.749Z" fill="#E6E6E6"/>
<path d="M381.155 210.513C380.709 209.818 380.48 209.025 380.493 208.22C380.506 207.415 380.76 206.628 381.229 205.946C381.737 207.629 382.882 209.094 384.461 210.081C385.071 210.46 385.794 210.824 386.002 211.469C386.112 211.881 386.044 212.315 385.813 212.683C385.582 213.046 385.302 213.38 384.977 213.678L384.948 213.779C383.384 213.021 382.074 211.893 381.155 210.513V210.513Z" fill="#E6E6E6"/>
<path d="M310.908 177.789C310.461 177.094 310.232 176.301 310.245 175.496C310.258 174.691 310.513 173.904 310.981 173.222C311.49 174.905 312.634 176.37 314.213 177.358C314.823 177.736 315.546 178.1 315.754 178.746C315.864 179.157 315.797 179.592 315.565 179.959C315.334 180.322 315.054 180.656 314.73 180.954L314.7 181.055C313.136 180.297 311.826 179.169 310.908 177.789V177.789Z" fill="#E6E6E6"/>
<path d="M243.963 201.077C243.516 200.382 243.287 199.589 243.3 198.784C243.313 197.979 243.568 197.193 244.037 196.51C244.545 198.193 245.689 199.658 247.268 200.646C247.879 201.024 248.601 201.388 248.81 202.034C248.92 202.445 248.852 202.88 248.621 203.247C248.39 203.61 248.109 203.944 247.785 204.242L247.755 204.343C246.192 203.585 244.881 202.457 243.963 201.077V201.077Z" fill="#E6E6E6"/>
<path d="M374.593 111.124H372.171V229.371H374.593V111.124Z" fill="#E6E6E6"/>
<path d="M381.42 108.715C381.42 104.723 377.87 101.487 373.492 101.487C369.114 101.487 365.564 104.723 365.564 108.715V108.715C365.564 112.706 369.114 115.942 373.492 115.942C377.87 115.942 381.42 112.706 381.42 108.715Z" fill="#E6E6E6"/>
<path d="M341.898 215.399L335.685 212.9V210.752L337.899 210.74C338.243 210.738 338.577 210.639 338.855 210.455C339.133 210.271 339.341 210.012 339.45 209.715L341.006 205.46C341.088 205.235 341.111 204.995 341.071 204.76C341.032 204.525 340.932 204.302 340.78 204.109C340.627 203.917 340.427 203.76 340.195 203.651C339.963 203.543 339.706 203.487 339.445 203.487H335.685V201.487H340.406C340.778 201.487 341.139 201.372 341.43 201.161C341.722 200.949 341.926 200.654 342.009 200.324L343.08 196.075C343.136 195.855 343.136 195.627 343.081 195.407C343.027 195.187 342.918 194.981 342.764 194.805C342.61 194.629 342.414 194.486 342.192 194.388C341.969 194.29 341.725 194.239 341.477 194.239H335.685V193.74C335.685 193.474 335.569 193.22 335.363 193.033C335.158 192.845 334.879 192.74 334.588 192.74C334.297 192.74 334.018 192.845 333.813 193.033C333.607 193.22 333.491 193.474 333.491 193.74V194.239H294.655V193.74C294.655 193.474 294.54 193.22 294.334 193.033C294.128 192.845 293.85 192.74 293.559 192.74C293.268 192.74 292.989 192.845 292.783 193.033C292.578 193.22 292.462 193.474 292.462 193.74V194.239H287.857C287.61 194.239 287.366 194.29 287.143 194.388C286.92 194.486 286.725 194.629 286.571 194.805C286.417 194.981 286.308 195.187 286.253 195.407C286.199 195.627 286.199 195.855 286.254 196.075L287.326 200.324C287.409 200.654 287.613 200.949 287.904 201.161C288.195 201.372 288.557 201.487 288.929 201.487H292.462V203.487H289.889C289.63 203.487 289.374 203.542 289.143 203.65C288.912 203.757 288.712 203.912 288.56 204.103C288.407 204.294 288.306 204.515 288.265 204.749C288.224 204.982 288.244 205.221 288.324 205.446L289.911 209.938C290.019 210.242 290.229 210.506 290.512 210.693C290.795 210.88 291.137 210.98 291.486 210.978L292.462 210.973V212.9L287.436 215.399C287 215.399 286.582 215.557 286.273 215.839C285.965 216.12 285.792 216.501 285.792 216.899V216.899C285.792 217.297 285.965 217.678 286.273 217.959C286.582 218.24 287 218.398 287.436 218.398H292.462V229.395C292.462 229.526 292.49 229.657 292.545 229.778C292.6 229.9 292.68 230.011 292.782 230.104C292.884 230.197 293.005 230.271 293.138 230.321C293.272 230.372 293.414 230.397 293.559 230.397C293.703 230.397 293.846 230.372 293.979 230.321C294.112 230.271 294.233 230.197 294.335 230.104C294.437 230.011 294.518 229.9 294.573 229.778C294.628 229.657 294.656 229.526 294.655 229.395V218.398H333.491V229.395C333.491 229.66 333.607 229.914 333.813 230.102C334.018 230.289 334.297 230.395 334.588 230.395C334.879 230.395 335.158 230.289 335.363 230.102C335.569 229.914 335.685 229.66 335.685 229.395V218.398H341.898C342.334 218.398 342.753 218.24 343.061 217.959C343.37 217.678 343.543 217.297 343.543 216.899C343.543 216.702 343.501 216.507 343.418 216.325C343.335 216.143 343.214 215.978 343.061 215.839C342.909 215.699 342.727 215.589 342.528 215.514C342.328 215.438 342.114 215.399 341.898 215.399V215.399ZM294.655 201.487H333.491V203.487H294.655V201.487ZM294.655 212.9V210.962L333.491 210.763V212.9H294.655Z" fill="#E6E6E6"/>
<path d="M431.306 294.432H194.051C193.31 294.433 192.576 294.301 191.891 294.043C191.205 293.785 190.583 293.406 190.058 292.929C189.534 292.451 189.118 291.884 188.834 291.26C188.55 290.636 188.404 289.966 188.404 289.291C188.404 288.615 188.55 287.946 188.834 287.322C189.118 286.698 189.534 286.13 190.058 285.653C190.583 285.175 191.205 284.797 191.891 284.539C192.576 284.281 193.31 284.149 194.051 284.15H431.306C432.047 284.149 432.781 284.281 433.466 284.539C434.151 284.797 434.774 285.175 435.298 285.653C435.823 286.13 436.239 286.698 436.523 287.322C436.806 287.946 436.953 288.615 436.953 289.291C436.953 289.966 436.806 290.636 436.523 291.26C436.239 291.884 435.823 292.451 435.298 292.929C434.774 293.406 434.151 293.785 433.466 294.043C432.781 294.301 432.047 294.433 431.306 294.432Z" fill="#F5F5F5"/>
<path d="M351.698 317.641H273.658C272.163 317.641 270.728 317.099 269.67 316.135C268.613 315.171 268.019 313.863 268.019 312.499C268.019 311.136 268.613 309.828 269.67 308.864C270.728 307.899 272.163 307.358 273.658 307.358H351.698C353.194 307.358 354.628 307.899 355.686 308.864C356.744 309.828 357.338 311.136 357.338 312.499C357.338 313.863 356.744 315.171 355.686 316.135C354.628 317.099 353.194 317.641 351.698 317.641V317.641Z" fill="#F5F5F5"/>
<path d="M351.698 364.718H273.658C272.164 364.716 270.731 364.173 269.675 363.209C268.619 362.245 268.026 360.939 268.026 359.576C268.026 358.214 268.619 356.907 269.675 355.943C270.731 354.979 272.164 354.436 273.658 354.435H351.698C353.194 354.435 354.628 354.976 355.686 355.94C356.744 356.905 357.338 358.213 357.338 359.576C357.338 360.94 356.744 362.248 355.686 363.212C354.628 364.176 353.194 364.718 351.698 364.718V364.718Z" fill="#F5F5F5"/>
<path d="M351.698 388.83H273.658C272.917 388.831 272.183 388.698 271.498 388.44C270.813 388.182 270.19 387.804 269.666 387.326C269.141 386.849 268.725 386.282 268.442 385.658C268.158 385.033 268.012 384.364 268.012 383.689C268.012 383.013 268.158 382.344 268.442 381.72C268.725 381.095 269.141 380.528 269.666 380.051C270.19 379.573 270.813 379.195 271.498 378.937C272.183 378.679 272.917 378.547 273.658 378.547H351.698C352.439 378.547 353.173 378.679 353.858 378.937C354.544 379.195 355.166 379.573 355.691 380.051C356.215 380.528 356.631 381.095 356.915 381.72C357.199 382.344 357.345 383.013 357.345 383.689C357.345 384.364 357.199 385.033 356.915 385.658C356.631 386.282 356.215 386.849 355.691 387.326C355.166 387.804 354.544 388.182 353.858 388.44C353.173 388.698 352.439 388.831 351.698 388.83V388.83Z" fill="#F5F5F5"/>
<path d="M395.465 340.849H229.891C228.395 340.849 226.961 340.307 225.903 339.343C224.846 338.379 224.251 337.071 224.251 335.708C224.251 334.344 224.846 333.036 225.903 332.072C226.961 331.108 228.395 330.566 229.891 330.566H395.465C396.961 330.566 398.395 331.108 399.453 332.072C400.51 333.036 401.105 334.344 401.105 335.708C401.105 337.071 400.51 338.379 399.453 339.343C398.395 340.307 396.961 340.849 395.465 340.849Z" fill="#F5F5F5"/>
<path d="M641.96 109.591C655.383 102.902 660.316 87.5592 652.979 75.3222C645.641 63.0851 628.811 58.5879 615.389 65.2772C601.966 71.9666 597.033 87.3095 604.37 99.5466C611.708 111.784 628.538 116.281 641.96 109.591Z" fill="#9E616A"/>
<path d="M625.906 119.612L636.408 107.305L651.389 106.713L652.884 118.287L660.307 121.408C667.719 147.079 668.863 173.919 663.66 200.037V200.037C662.666 200.891 661.939 201.971 661.555 203.167C661.171 204.362 661.143 205.629 661.476 206.838L661.957 208.587L661.913 208.651C660.333 210.923 659.797 213.67 660.421 216.3V216.3L673.991 238.282C645.173 248.99 624.048 229.022 604.477 202.853L592.365 164.63L625.906 119.612Z" fill="#F3821A"/>
<path d="M624.043 56.756H641.936C653.666 56.756 663.175 66.5087 663.175 78.5394C672.026 86.6418 669.37 96.7924 662.347 107.72C649.672 109.158 637.275 112.18 625.506 116.703L623.836 110.201L620.542 118.764C617.612 120.058 614.707 121.473 611.827 123.009C615.188 108.611 616.572 94.2461 614.264 83.0874H608.204V77.0413L606.147 83.0874H595.16V83.0874C595.16 79.6295 595.907 76.2055 597.358 73.0108C598.81 69.8161 600.937 66.9133 603.62 64.4682C606.302 62.0231 609.486 60.0835 612.99 58.7603C616.494 57.437 620.25 56.7559 624.043 56.756V56.756Z" fill="#2F2E41"/>
<path d="M594.334 190.376L591.506 164.588L629.055 113.914L630.598 114.865L593.427 165.03L596.189 190.207L594.334 190.376Z" fill="#2F2E41"/>
<path d="M595.261 192.839C596.805 192.839 598.056 191.698 598.056 190.291C598.056 188.884 596.805 187.743 595.261 187.743C593.717 187.743 592.466 188.884 592.466 190.291C592.466 191.698 593.717 192.839 595.261 192.839Z" fill="#2F2E41"/>
<path d="M647.903 66.7031C655.107 66.7031 660.947 61.379 660.947 54.8114C660.947 48.2439 655.107 42.9198 647.903 42.9198C640.699 42.9198 634.859 48.2439 634.859 54.8114C634.859 61.379 640.699 66.7031 647.903 66.7031Z" fill="#2F2E41"/>
<path d="M619.644 252.207C620.204 252.209 620.762 252.257 621.312 252.351L630.466 199.523L621.296 148.666C620.719 145.466 621.494 142.187 623.465 139.488C625.436 136.789 628.456 134.872 631.917 134.124C635.377 133.376 639.02 133.852 642.111 135.456C645.201 137.06 647.51 139.672 648.57 142.767V142.767C652.008 152.796 653.709 163.252 653.612 173.758L653.293 208.441L628.89 261.708C628.677 263.333 627.953 264.867 626.806 266.126C625.658 267.384 624.137 268.314 622.423 268.803C620.71 269.292 618.879 269.319 617.149 268.881C615.419 268.443 613.865 267.558 612.674 266.334C611.483 265.11 610.705 263.598 610.434 261.98C610.163 260.362 610.411 258.708 611.147 257.215C611.884 255.723 613.077 254.456 614.585 253.568C616.092 252.679 617.849 252.207 619.644 252.207V252.207Z" fill="#9E616A"/>
<path d="M653.616 195.777L628.675 196.907L614.312 150.719C614.31 148.072 614.88 145.451 615.99 143.006C617.099 140.56 618.727 138.338 620.779 136.466C622.831 134.594 625.267 133.109 627.949 132.096C630.631 131.083 633.505 130.561 636.408 130.561C639.311 130.561 642.186 131.083 644.867 132.096C647.549 133.109 649.986 134.594 652.038 136.466C654.09 138.338 655.717 140.56 656.827 143.006C657.936 145.451 658.507 148.072 658.505 150.719L653.616 195.777Z" fill="#2F2E41"/>
</g>
<defs>
<clipPath id="clip0_8_26">
<rect width="789" height="500" fill="white"/>
</clipPath>
</defs>
</svg>
