<svg width="678" height="480" viewBox="0 0 678 480" fill="none" xmlns="http://www.w3.org/2000/svg">
<g clip-path="url(#clip0_4_13)">
<path d="M233.537 449.333L212.78 462.722L233.243 457.236C233.086 459.112 232.871 460.957 232.585 462.762C232.506 463.263 232.42 463.756 232.327 464.249C231.628 468.393 230.36 472.394 228.569 476.112C228.226 476.796 227.882 477.464 227.524 478.108C227.181 478.76 226.823 479.388 226.458 480H171.438C170.98 479.388 170.543 478.752 170.142 478.108C166.219 471.973 164.63 464.369 165.719 456.942C165.919 455.431 166.206 453.936 166.578 452.465C166.939 450.963 167.376 449.484 167.888 448.037C168.781 445.479 169.836 442.995 171.044 440.602C173.564 435.561 177.493 431.013 182.124 426.974C184.366 425.03 186.703 423.225 189.124 421.567C189.582 421.241 190.048 420.923 190.52 420.613C191.243 420.136 191.966 419.667 192.696 419.214C194.149 418.292 195.616 417.417 197.083 416.59C197.47 416.367 197.849 416.153 198.229 415.946C201.414 414.181 204.585 412.599 207.605 411.207C207.984 411.032 208.371 410.857 208.75 410.69C214.759 407.96 220.906 405.621 227.16 403.685C227.16 403.685 227.181 403.749 227.217 403.884C227.31 404.25 227.546 405.132 227.868 406.436C228.763 410.054 230.337 416.956 231.604 425.288C231.676 425.742 231.74 426.203 231.812 426.664C232.87 433.712 233.456 440.837 233.565 447.981C233.573 448.426 233.573 448.864 233.573 449.309L233.537 449.333Z" fill="#60A042"/>
<path d="M228.677 402.874C228.67 402.898 228.598 403.288 228.433 404.003C228.298 404.6 228.112 405.419 227.868 406.436C227.031 409.991 225.542 415.946 223.423 423.118C223.302 423.531 223.173 423.961 223.044 424.39C221.569 429.296 219.816 434.719 217.79 440.292C217.282 441.692 216.774 443.067 216.251 444.411C216.094 444.832 215.936 445.246 215.772 445.651C213.553 451.36 211.27 456.584 208.922 461.323L208.328 462.508C205.599 468.005 202.44 473.225 198.887 478.108C198.408 478.76 197.921 479.388 197.427 480H195.766C196.267 479.388 196.769 478.752 197.255 478.108C201.012 473.057 204.336 467.626 207.183 461.887C207.383 461.498 207.584 461.108 207.777 460.711C210.303 455.614 212.601 450.287 214.655 445.007C214.82 444.602 214.977 444.188 215.135 443.767C217.819 436.786 220.074 429.924 221.891 423.881C222.02 423.452 222.149 423.022 222.271 422.601C224.919 413.68 226.58 406.683 227.217 403.884C227.303 403.471 227.374 403.145 227.425 402.922C227.475 402.715 227.496 402.596 227.503 402.572L228.083 402.723H228.09L228.677 402.874Z" fill="white"/>
<path d="M232.699 425.392C232.335 425.368 231.969 425.328 231.604 425.288C228.804 424.965 226.053 424.236 223.423 423.118C223.044 422.951 222.657 422.784 222.271 422.601C221.224 422.101 220.202 421.541 219.207 420.923C215.095 418.395 211.527 414.903 208.75 410.69C208.657 410.555 208.564 410.412 208.478 410.277C208.106 410.452 207.727 410.627 207.34 410.802C207.426 410.937 207.512 411.072 207.605 411.207C210.502 415.703 214.265 419.424 218.621 422.1C219.682 422.757 220.774 423.352 221.891 423.881C222.271 424.056 222.657 424.231 223.044 424.39C225.861 425.582 228.811 426.347 231.812 426.664C232.17 426.704 232.535 426.736 232.893 426.759C232.828 426.29 232.764 425.837 232.699 425.392Z" fill="white"/>
<path d="M233.565 447.981C227.608 448.585 221.617 447.35 216.251 444.411C215.872 444.212 215.5 443.997 215.135 443.767C215.019 443.708 214.907 443.642 214.798 443.568C210.256 440.763 206.382 436.793 203.5 431.988C200.617 427.183 198.81 421.683 198.229 415.946C198.214 415.811 198.2 415.668 198.186 415.533C197.799 415.755 197.413 415.97 197.034 416.192C197.048 416.328 197.062 416.455 197.084 416.59C197.745 422.448 199.64 428.051 202.617 432.943C205.593 437.835 209.565 441.878 214.212 444.745C214.355 444.832 214.505 444.928 214.655 445.007C215.027 445.23 215.4 445.445 215.772 445.651C221.281 448.653 227.424 449.926 233.537 449.333C233.859 449.301 234.181 449.261 234.503 449.221C234.503 448.768 234.51 448.323 234.51 447.87C234.196 447.909 233.88 447.949 233.565 447.981Z" fill="white"/>
<path d="M232.585 462.762C226.141 465.111 219.198 465.17 212.723 462.929C211.426 462.484 210.157 461.948 208.922 461.323C208.536 461.132 208.156 460.925 207.777 460.711C207.369 460.488 206.968 460.249 206.574 460.011C201.221 456.7 196.813 451.785 193.853 445.825C190.893 439.866 189.5 433.103 189.833 426.306C189.92 424.391 190.15 422.487 190.52 420.613C190.541 420.486 190.563 420.359 190.592 420.232C190.119 420.558 189.647 420.884 189.182 421.217C189.16 421.337 189.139 421.448 189.124 421.567C188.705 424.135 188.53 426.744 188.602 429.352C188.76 435.877 190.446 442.244 193.493 447.825C196.541 453.406 200.844 458.009 205.98 461.18C206.381 461.426 206.782 461.665 207.183 461.887C207.562 462.102 207.949 462.309 208.328 462.508C215.864 466.34 224.406 466.96 232.327 464.249C232.592 464.169 232.857 464.074 233.122 463.979C233.229 463.47 233.322 462.961 233.408 462.452C233.136 462.563 232.864 462.667 232.585 462.762Z" fill="white"/>
<path d="M183.413 196.011H143.33V240.537H183.413V196.011Z" fill="#9E616A"/>
<path d="M118.333 462.129L126.231 462.128L129.987 428.291L118.332 428.292L118.333 462.129Z" fill="#9E616A"/>
<path d="M140.009 472.017L128.142 462.913V456.974L126.796 457.061L118.336 457.626L115.659 457.8L114.134 478.108L114.084 478.783H119.689L119.803 478.108L120.691 472.908L122.96 478.108L123.253 478.783H138.112C138.997 478.782 139.845 478.391 140.471 477.697C141.098 477.002 141.451 476.061 141.455 475.078C141.455 474.476 141.324 473.883 141.072 473.349C140.82 472.816 140.455 472.359 140.009 472.017Z" fill="#2F2E41"/>
<path d="M164.519 456.559L172.109 458.984L184.139 427.618L172.937 424.039L164.519 456.559Z" fill="#9E616A"/>
<path d="M182.89 472.725L173.75 460.329L175.231 454.62L173.914 454.294L166.578 452.465L165.64 452.235L163.028 451.583L156.292 471.262L161.675 472.987L164.101 467.644L165.096 474.076L168.489 475.158L177.715 478.108L179.383 478.64C180.067 478.861 180.798 478.832 181.466 478.558C182.135 478.285 182.708 477.78 183.1 477.119C183.492 476.458 183.683 475.674 183.645 474.883C183.607 474.093 183.343 473.336 182.89 472.725V472.725Z" fill="#2F2E41"/>
<path d="M675.659 0H257.329C256.707 0.00210457 256.112 0.2778 255.673 0.76666C255.234 1.25552 254.988 1.91766 254.988 2.60796V17.9138C254.988 18.6041 255.234 19.2663 255.673 19.7552C256.112 20.244 256.707 20.5197 257.329 20.5218H675.659C676.281 20.5198 676.876 20.2441 677.315 19.7552C677.754 19.2663 678 18.6042 678 17.9138V2.60796C678 1.91764 677.754 1.25546 677.315 0.766587C676.876 0.277712 676.281 0.00203329 675.659 0Z" fill="url(#paint0_linear_4_13)"/>
<path d="M268.587 13.2089C270.424 13.2089 271.913 11.5543 271.913 9.51335C271.913 7.47235 270.424 5.8178 268.587 5.8178C266.749 5.8178 265.26 7.47235 265.26 9.51335C265.26 11.5543 266.749 13.2089 268.587 13.2089Z" fill="white"/>
<path d="M281.214 13.2089C283.051 13.2089 284.54 11.5543 284.54 9.51335C284.54 7.47235 283.051 5.8178 281.214 5.8178C279.376 5.8178 277.887 7.47235 277.887 9.51335C277.887 11.5543 279.376 13.2089 281.214 13.2089Z" fill="white"/>
<path d="M293.841 13.2089C295.679 13.2089 297.168 11.5543 297.168 9.51335C297.168 7.47235 295.679 5.8178 293.841 5.8178C292.004 5.8178 290.515 7.47235 290.515 9.51335C290.515 11.5543 292.004 13.2089 293.841 13.2089Z" fill="white"/>
<path d="M663.284 4.57983H648.747C648.461 4.57983 648.187 4.70591 647.985 4.93032C647.783 5.15473 647.67 5.4591 647.67 5.77647C647.67 6.09384 647.783 6.39821 647.985 6.62262C648.187 6.84704 648.461 6.97312 648.747 6.97312H663.284C663.57 6.97312 663.844 6.84704 664.046 6.62262C664.248 6.39821 664.361 6.09384 664.361 5.77647C664.361 5.4591 664.248 5.15473 664.046 4.93032C663.844 4.70591 663.57 4.57983 663.284 4.57983Z" fill="white"/>
<path d="M663.284 9.06425H648.747C648.605 9.06425 648.465 9.0952 648.335 9.15534C648.204 9.21547 648.085 9.30362 647.985 9.41474C647.885 9.52586 647.806 9.65777 647.752 9.80295C647.698 9.94814 647.67 10.1037 647.67 10.2609C647.67 10.418 647.698 10.5736 647.752 10.7188C647.806 10.864 647.885 10.9959 647.985 11.107C648.085 11.2182 648.204 11.3063 648.335 11.3664C648.465 11.4266 648.605 11.4575 648.747 11.4575H663.284C663.425 11.4575 663.565 11.4266 663.696 11.3664C663.827 11.3063 663.946 11.2182 664.046 11.107C664.146 10.9959 664.225 10.864 664.279 10.7188C664.333 10.5736 664.361 10.418 664.361 10.2609C664.361 10.1037 664.333 9.94814 664.279 9.80295C664.225 9.65777 664.146 9.52586 664.046 9.41474C663.946 9.30362 663.827 9.21547 663.696 9.15534C663.565 9.0952 663.425 9.06425 663.284 9.06425Z" fill="white"/>
<path d="M663.284 13.5487H648.747C648.461 13.5487 648.187 13.6748 647.985 13.8992C647.783 14.1236 647.67 14.4279 647.67 14.7453C647.67 15.0627 647.783 15.3671 647.985 15.5915C648.187 15.8159 648.461 15.942 648.747 15.942H663.284C663.57 15.942 663.844 15.8159 664.046 15.5915C664.248 15.3671 664.361 15.0627 664.361 14.7453C664.361 14.4279 664.248 14.1236 664.046 13.8992C663.844 13.6748 663.57 13.5487 663.284 13.5487Z" fill="white"/>
<path d="M661.631 64.7935H553.244C552.489 64.7957 551.765 65.1297 551.232 65.7227C550.698 66.3158 550.397 67.1194 550.395 67.9581V116.818C550.397 117.656 550.698 118.46 551.232 119.053C551.765 119.646 552.489 119.98 553.244 119.982H661.631C662.386 119.981 663.11 119.648 663.644 119.054C664.178 118.461 664.479 117.657 664.479 116.818V67.9581C664.479 67.119 664.178 66.3146 663.644 65.7213C663.11 65.128 662.386 64.7943 661.631 64.7935Z" fill="url(#paint1_linear_4_13)"/>
<path d="M651.309 135.821H563.565C562.659 135.821 561.789 136.221 561.148 136.933C560.507 137.645 560.147 138.61 560.147 139.617C560.147 140.624 560.507 141.59 561.148 142.302C561.789 143.014 562.659 143.414 563.565 143.414H651.309C655.762 143.486 655.719 135.749 651.309 135.821Z" fill="url(#paint2_linear_4_13)"/>
<path d="M651.309 153.226H563.565C562.659 153.226 561.789 153.626 561.148 154.338C560.507 155.05 560.147 156.015 560.147 157.022C560.147 158.029 560.507 158.995 561.148 159.707C561.789 160.419 562.659 160.819 563.565 160.819H651.309C655.762 160.891 655.719 153.154 651.309 153.226Z" fill="url(#paint3_linear_4_13)"/>
<path d="M651.309 170.631H563.565C562.659 170.631 561.789 171.031 561.148 171.743C560.507 172.455 560.147 173.42 560.147 174.427C560.147 175.434 560.507 176.4 561.148 177.112C561.789 177.824 562.659 178.224 563.565 178.224H651.309C655.762 178.295 655.719 170.559 651.309 170.631Z" fill="url(#paint4_linear_4_13)"/>
<path d="M519.195 64.7935H410.808C410.053 64.7957 409.33 65.1297 408.796 65.7227C408.262 66.3158 407.962 67.1194 407.96 67.9581V116.818C407.962 117.656 408.262 118.46 408.796 119.053C409.33 119.646 410.053 119.98 410.808 119.982H519.195C519.95 119.981 520.675 119.648 521.209 119.054C521.743 118.461 522.043 117.657 522.044 116.818V67.9581C522.043 67.119 521.743 66.3146 521.209 65.7213C520.675 65.128 519.95 64.7943 519.195 64.7935Z" fill="url(#paint5_linear_4_13)"/>
<path d="M508.874 135.821H421.13C420.223 135.821 419.354 136.221 418.713 136.933C418.072 137.645 417.712 138.61 417.712 139.617C417.712 140.624 418.072 141.59 418.713 142.302C419.354 143.014 420.223 143.414 421.13 143.414H508.874C513.326 143.486 513.283 135.749 508.874 135.821Z" fill="url(#paint6_linear_4_13)"/>
<path d="M508.874 153.226H421.13C420.223 153.226 419.354 153.626 418.713 154.338C418.072 155.05 417.712 156.015 417.712 157.022C417.712 158.029 418.072 158.995 418.713 159.707C419.354 160.419 420.223 160.819 421.13 160.819H508.874C513.326 160.891 513.283 153.154 508.874 153.226Z" fill="url(#paint7_linear_4_13)"/>
<path d="M508.874 170.631H421.13C420.223 170.631 419.354 171.031 418.713 171.743C418.072 172.455 417.712 173.42 417.712 174.427C417.712 175.434 418.072 176.4 418.713 177.112C419.354 177.824 420.223 178.224 421.13 178.224H508.874C513.326 178.295 513.283 170.559 508.874 170.631Z" fill="url(#paint8_linear_4_13)"/>
<path d="M247.414 157.199C247.276 157.651 247.174 158.116 247.111 158.588L202.731 149.874L164.504 126.976C162.1 125.535 159.293 125.161 156.649 125.929C154.006 126.697 151.724 128.55 150.262 131.114C148.8 133.678 148.268 136.763 148.773 139.745C149.278 142.728 150.783 145.387 152.983 147.186H152.983C160.113 153.016 168.019 157.575 176.414 160.699L204.128 171.011L252.671 167.555C254.019 167.878 255.423 167.761 256.712 167.219C258.002 166.677 259.123 165.733 259.941 164.499C260.759 163.266 261.239 161.796 261.323 160.267C261.406 158.738 261.09 157.214 260.413 155.88C259.735 154.546 258.725 153.457 257.504 152.746C256.283 152.034 254.903 151.73 253.529 151.869C252.156 152.008 250.848 152.585 249.763 153.531C248.678 154.477 247.862 155.75 247.414 157.199Z" fill="#9E616A"/>
<path d="M356.576 157.352H218.42C217.456 157.354 216.532 157.78 215.851 158.537C215.169 159.294 214.786 160.321 214.784 161.391V223.657C214.786 224.727 215.169 225.754 215.851 226.511C216.532 227.268 217.456 227.694 218.42 227.696H356.576C357.538 227.692 358.461 227.266 359.141 226.509C359.821 225.752 360.203 224.726 360.204 223.657V161.391C360.203 160.322 359.821 159.296 359.141 158.539C358.461 157.782 357.538 157.355 356.576 157.352Z" fill="url(#paint9_linear_4_13)"/>
<path d="M343.42 247.884H231.576C230.42 247.884 229.311 248.394 228.494 249.302C227.676 250.21 227.217 251.442 227.217 252.726C227.217 254.01 227.676 255.242 228.494 256.15C229.311 257.058 230.42 257.568 231.576 257.568H343.42C349.096 257.655 349.038 247.796 343.42 247.884Z" fill="url(#paint10_linear_4_13)"/>
<path d="M343.42 270.067H231.576C230.42 270.067 229.311 270.577 228.494 271.485C227.676 272.393 227.217 273.625 227.217 274.909C227.217 276.194 227.676 277.425 228.494 278.333C229.311 279.241 230.42 279.752 231.576 279.752H343.42C349.096 279.839 349.038 269.98 343.42 270.067Z" fill="url(#paint11_linear_4_13)"/>
<path d="M343.42 292.259H231.576C231.004 292.259 230.437 292.384 229.909 292.627C229.381 292.87 228.9 293.226 228.496 293.676C228.092 294.125 227.771 294.658 227.552 295.245C227.333 295.832 227.22 296.461 227.22 297.097C227.22 297.732 227.333 298.361 227.552 298.948C227.771 299.535 228.092 300.069 228.496 300.518C228.9 300.967 229.381 301.324 229.909 301.567C230.437 301.81 231.004 301.935 231.576 301.935H343.42C349.096 302.023 349.038 292.171 343.42 292.259Z" fill="url(#paint12_linear_4_13)"/>
<path d="M184.21 104.873C189.847 93.418 186.057 79.0557 175.746 72.7939C165.434 66.5321 152.505 70.742 146.868 82.1969C141.231 93.6518 145.021 108.014 155.333 114.276C165.644 120.538 178.573 116.328 184.21 104.873Z" fill="#9E616A"/>
<path d="M169.097 64.8174H155.352C146.341 64.8174 139.036 73.9468 139.036 85.2085C132.236 92.793 134.277 102.295 139.672 112.524C149.409 113.87 158.932 116.699 167.973 120.933L169.256 114.847L171.787 122.862C174.038 124.073 176.269 125.398 178.482 126.836C175.899 113.358 174.837 99.9112 176.61 89.4658H181.265V83.8061L182.846 89.4658H191.286C191.286 86.2289 190.712 83.0237 189.597 80.0332C188.482 77.0427 186.847 74.3255 184.787 72.0367C182.727 69.7479 180.281 67.9323 177.589 66.6936C174.897 65.4549 172.011 64.8174 169.097 64.8174Z" fill="#2F2E41"/>
<path d="M167.666 123.656L141.931 122.416L141.239 125.337C135.545 149.367 134.665 174.492 138.663 198.94C139.427 199.74 139.985 200.751 140.28 201.87C140.575 202.989 140.596 204.175 140.341 205.306L139.971 206.943L140.005 207.003C141.219 209.13 141.63 211.702 141.151 214.163L142.439 222.036L184.128 201.576L193.433 165.796L167.666 123.656Z" fill="url(#paint13_linear_4_13)"/>
<path d="M231.444 199.067C231.155 199.42 230.896 199.802 230.668 200.207L193.089 172.571L166.241 134.649C164.552 132.264 162.111 130.678 159.412 130.213C156.712 129.747 153.954 130.436 151.693 132.141C149.433 133.846 147.839 136.439 147.232 139.399C146.625 142.358 147.051 145.463 148.424 148.086C152.873 156.59 158.489 164.27 165.068 170.852L186.789 192.576L232.552 210.892C233.673 211.785 235.001 212.299 236.379 212.373C237.756 212.447 239.124 212.076 240.316 211.307C241.509 210.538 242.476 209.402 243.101 208.037C243.726 206.671 243.983 205.134 243.84 203.611C243.697 202.087 243.161 200.641 242.296 199.448C241.432 198.255 240.275 197.365 238.965 196.885C237.656 196.405 236.249 196.355 234.915 196.742C233.581 197.13 232.375 197.937 231.444 199.067L231.444 199.067Z" fill="#9E616A"/>
<path d="M313.167 119.795C309.099 119.795 305.123 118.455 301.741 115.945C298.358 113.434 295.722 109.866 294.165 105.691C292.609 101.516 292.201 96.922 292.995 92.49C293.789 88.0579 295.747 83.9868 298.624 80.7915C301.5 77.5962 305.165 75.4201 309.155 74.5386C313.144 73.657 317.28 74.1094 321.038 75.8387C324.796 77.568 328.009 80.4965 330.269 84.2538C332.529 88.0111 333.735 92.4285 333.735 96.9474C333.735 103.007 331.568 108.818 327.711 113.103C323.854 117.388 318.622 119.795 313.167 119.795Z" fill="url(#paint14_linear_4_13)"/>
<path d="M321.283 94.6936H315.196V87.9322C315.196 87.3345 314.982 86.7612 314.602 86.3386C314.221 85.9159 313.705 85.6784 313.167 85.6784C312.629 85.6784 312.113 85.9159 311.733 86.3386C311.352 86.7612 311.138 87.3345 311.138 87.9322V94.6936H305.052C304.514 94.6948 303.999 94.9327 303.62 95.3552C303.24 95.7778 303.027 96.3504 303.027 96.9474C303.027 97.5444 303.24 98.1171 303.62 98.5396C303.999 98.9622 304.514 99.2001 305.052 99.2012H311.138V105.963C311.138 106.56 311.352 107.134 311.733 107.556C312.113 107.979 312.629 108.216 313.167 108.216C313.705 108.216 314.221 107.979 314.602 107.556C314.982 107.134 315.196 106.56 315.196 105.963V99.2012H321.283C321.549 99.2018 321.814 99.1439 322.06 99.0309C322.307 98.9179 322.531 98.7519 322.72 98.5426C322.909 98.3333 323.058 98.0846 323.161 97.8109C323.263 97.5372 323.315 97.2438 323.315 96.9474C323.315 96.6511 323.263 96.3577 323.161 96.084C323.058 95.8102 322.909 95.5616 322.72 95.3523C322.531 95.1429 322.307 94.977 322.06 94.864C321.814 94.751 321.549 94.6931 321.283 94.6936Z" fill="white"/>
<path d="M210.604 374.862C211.272 372.903 211.519 370.798 211.323 368.715C211.128 366.632 210.497 364.629 209.48 362.865L191.286 258.029L184.128 218.274H141.183C141.183 218.274 114.342 251.271 120.068 293.412L118.465 352.759C116.945 356.829 116.57 361.316 117.389 365.628L118.027 368.985L117.781 369.491C116.609 371.9 115.98 374.588 115.946 377.325C115.913 380.063 116.476 382.769 117.589 385.212L115.774 452.434L128.657 451.638L147.625 373.32L160.15 302.953L181.265 357.418L181.981 370.14L181.634 381.353L165.161 446.868L179.118 452.831L210.604 374.862Z" fill="#2F2E41"/>
<path d="M314.704 479.054C314.703 479.305 314.613 479.545 314.454 479.722C314.294 479.899 314.078 479.999 313.852 480H0.85169C0.625792 480 0.409144 479.9 0.249409 479.723C0.0896754 479.545 -6.10352e-05 479.305 -6.10352e-05 479.054C-6.10352e-05 478.803 0.0896754 478.562 0.249409 478.385C0.409144 478.207 0.625792 478.108 0.85169 478.108H313.852C313.964 478.107 314.075 478.132 314.178 478.179C314.282 478.226 314.376 478.296 314.455 478.384C314.534 478.472 314.597 478.576 314.64 478.691C314.682 478.806 314.704 478.929 314.704 479.054Z" fill="url(#paint15_linear_4_13)"/>
</g>
<defs>
<linearGradient id="paint0_linear_4_13" x1="466.494" y1="0" x2="466.494" y2="20.5218" gradientUnits="userSpaceOnUse">
<stop stop-color="#FFB84F"/>
<stop offset="0.494792" stop-color="#F3821A"/>
<stop offset="1" stop-color="#FFB84F"/>
</linearGradient>
<linearGradient id="paint1_linear_4_13" x1="607.437" y1="64.7935" x2="607.437" y2="119.982" gradientUnits="userSpaceOnUse">
<stop stop-color="#FFB84F"/>
<stop offset="0.494792" stop-color="#F3821A"/>
<stop offset="1" stop-color="#FFB84F"/>
</linearGradient>
<linearGradient id="paint2_linear_4_13" x1="607.39" y1="135.82" x2="607.39" y2="143.414" gradientUnits="userSpaceOnUse">
<stop stop-color="#FFB84F"/>
<stop offset="0.494792" stop-color="#F3821A"/>
<stop offset="1" stop-color="#FFB84F"/>
</linearGradient>
<linearGradient id="paint3_linear_4_13" x1="607.39" y1="153.225" x2="607.39" y2="160.819" gradientUnits="userSpaceOnUse">
<stop stop-color="#FFB84F"/>
<stop offset="0.494792" stop-color="#F3821A"/>
<stop offset="1" stop-color="#FFB84F"/>
</linearGradient>
<linearGradient id="paint4_linear_4_13" x1="607.39" y1="170.63" x2="607.39" y2="178.224" gradientUnits="userSpaceOnUse">
<stop stop-color="#FFB84F"/>
<stop offset="0.494792" stop-color="#F3821A"/>
<stop offset="1" stop-color="#FFB84F"/>
</linearGradient>
<linearGradient id="paint5_linear_4_13" x1="465.002" y1="64.7935" x2="465.002" y2="119.982" gradientUnits="userSpaceOnUse">
<stop stop-color="#FFB84F"/>
<stop offset="0.494792" stop-color="#F3821A"/>
<stop offset="1" stop-color="#FFB84F"/>
</linearGradient>
<linearGradient id="paint6_linear_4_13" x1="464.954" y1="135.82" x2="464.954" y2="143.414" gradientUnits="userSpaceOnUse">
<stop stop-color="#FFB84F"/>
<stop offset="0.494792" stop-color="#F3821A"/>
<stop offset="1" stop-color="#FFB84F"/>
</linearGradient>
<linearGradient id="paint7_linear_4_13" x1="464.954" y1="153.225" x2="464.954" y2="160.819" gradientUnits="userSpaceOnUse">
<stop stop-color="#FFB84F"/>
<stop offset="0.494792" stop-color="#F3821A"/>
<stop offset="1" stop-color="#FFB84F"/>
</linearGradient>
<linearGradient id="paint8_linear_4_13" x1="464.954" y1="170.63" x2="464.954" y2="178.224" gradientUnits="userSpaceOnUse">
<stop stop-color="#FFB84F"/>
<stop offset="0.494792" stop-color="#F3821A"/>
<stop offset="1" stop-color="#FFB84F"/>
</linearGradient>
<linearGradient id="paint9_linear_4_13" x1="287.494" y1="157.352" x2="287.494" y2="227.696" gradientUnits="userSpaceOnUse">
<stop stop-color="#F3821A"/>
<stop offset="0.427083" stop-color="#F21313"/>
<stop offset="1" stop-color="#FFB84F"/>
</linearGradient>
<linearGradient id="paint10_linear_4_13" x1="287.436" y1="247.883" x2="287.436" y2="257.569" gradientUnits="userSpaceOnUse">
<stop stop-color="#F3821A"/>
<stop offset="0.427083" stop-color="#F21313"/>
<stop offset="1" stop-color="#FFB84F"/>
</linearGradient>
<linearGradient id="paint11_linear_4_13" x1="287.436" y1="270.067" x2="287.436" y2="279.752" gradientUnits="userSpaceOnUse">
<stop stop-color="#F3821A"/>
<stop offset="0.427083" stop-color="#F21313"/>
<stop offset="1" stop-color="#FFB84F"/>
</linearGradient>
<linearGradient id="paint12_linear_4_13" x1="287.438" y1="292.258" x2="287.438" y2="301.936" gradientUnits="userSpaceOnUse">
<stop stop-color="#F3821A"/>
<stop offset="0.427083" stop-color="#F21313"/>
<stop offset="1" stop-color="#FFB84F"/>
</linearGradient>
<linearGradient id="paint13_linear_4_13" x1="164.817" y1="122.416" x2="164.817" y2="222.036" gradientUnits="userSpaceOnUse">
<stop stop-color="#F3821A"/>
<stop offset="0.427083" stop-color="#F21313"/>
<stop offset="1" stop-color="#FFB84F"/>
</linearGradient>
<linearGradient id="paint14_linear_4_13" x1="313.167" y1="74.0995" x2="313.167" y2="119.795" gradientUnits="userSpaceOnUse">
<stop stop-color="#FFB84F"/>
<stop offset="0.494792" stop-color="#F3821A"/>
<stop offset="1" stop-color="#FFB84F"/>
</linearGradient>
<linearGradient id="paint15_linear_4_13" x1="157.352" y1="478.108" x2="157.352" y2="480" gradientUnits="userSpaceOnUse">
<stop stop-color="#F3821A"/>
<stop offset="0.427083" stop-color="#F21313"/>
<stop offset="1" stop-color="#FFB84F"/>
</linearGradient>
<clipPath id="clip0_4_13">
<rect width="678" height="480" fill="white"/>
</clipPath>
</defs>
</svg>
