<svg width="513" height="486" viewBox="0 0 513 486" fill="none" xmlns="http://www.w3.org/2000/svg">
<g clip-path="url(#clip0_70_76)">
<path d="M325.411 275.74L103.659 326.018C96.1373 327.715 88.1576 326.716 81.471 323.24C74.7844 319.764 69.9368 314.095 67.9919 307.476L0.928475 78.1786C-0.999485 71.5557 0.135011 64.5299 4.08308 58.6426C8.03115 52.7553 14.4704 48.4873 21.9881 46.7748L228.291 0L281.095 20.8128L346.47 244.337C348.398 250.959 347.264 257.985 343.316 263.872C339.367 269.76 332.928 274.028 325.411 275.74Z" fill="#F2F2F2"/>
<path d="M24.0908 53.964C18.7373 55.1834 14.1518 58.2228 11.3403 62.4153C8.52878 66.6078 7.72088 71.611 9.09384 76.3273L76.1572 305.624C77.5423 310.338 80.9943 314.375 85.756 316.851C90.5177 319.326 96.2002 320.037 101.557 318.828L323.308 268.551C328.662 267.332 333.247 264.292 336.059 260.1C338.87 255.907 339.678 250.904 338.305 246.188L273.943 26.1275L227.538 7.83673L24.0908 53.964Z" fill="white"/>
<path d="M280.532 21.9957L246.213 29.7768C243.708 30.3448 241.049 30.0133 238.821 28.8552C236.593 27.6971 234.979 25.8072 234.334 23.6013L227.807 1.28381C227.778 1.1861 227.781 1.08328 227.816 0.987139C227.851 0.890999 227.916 0.80543 228.003 0.740243C228.091 0.675056 228.197 0.632891 228.311 0.618584C228.424 0.604277 228.54 0.618405 228.644 0.659352L280.627 20.9853C280.743 21.0305 280.84 21.1063 280.905 21.2022C280.969 21.2981 280.998 21.4093 280.988 21.5203C280.977 21.6314 280.928 21.7368 280.846 21.822C280.764 21.9072 280.655 21.9679 280.532 21.9957Z" fill="#F2F2F2"/>
<path d="M262.477 217.81L161.517 240.701C160.897 240.842 160.251 240.873 159.617 240.794C158.982 240.715 158.372 240.527 157.821 240.24C157.269 239.953 156.787 239.574 156.402 239.123C156.017 238.672 155.737 238.159 155.577 237.613C155.417 237.067 155.381 236.499 155.471 235.94C155.561 235.382 155.775 234.845 156.101 234.359C156.426 233.873 156.857 233.449 157.369 233.11C157.881 232.771 158.464 232.524 159.084 232.384L260.044 209.493C260.665 209.352 261.31 209.321 261.945 209.4C262.579 209.479 263.189 209.667 263.741 209.954C264.292 210.241 264.774 210.62 265.159 211.071C265.544 211.522 265.824 212.035 265.984 212.581C266.144 213.127 266.18 213.695 266.09 214.254C266 214.812 265.786 215.35 265.461 215.835C265.135 216.321 264.704 216.745 264.192 217.084C263.68 217.423 263.097 217.67 262.477 217.81Z" fill="#CCCCCC"/>
<path d="M286.066 227.428L165.622 254.736C164.369 255.02 163.04 254.855 161.926 254.276C160.812 253.697 160.005 252.752 159.682 251.649C159.36 250.546 159.548 249.375 160.206 248.394C160.863 247.414 161.936 246.703 163.189 246.419L283.633 219.111C284.885 218.828 286.214 218.995 287.327 219.574C288.44 220.153 289.246 221.097 289.568 222.2C289.891 223.302 289.703 224.472 289.046 225.452C288.389 226.433 287.317 227.144 286.066 227.428Z" fill="#CCCCCC"/>
<path d="M120.311 268.27C129.831 268.27 137.549 261.475 137.549 253.092C137.549 244.71 129.831 237.914 120.311 237.914C110.79 237.914 103.072 244.71 103.072 253.092C103.072 261.475 110.79 268.27 120.311 268.27Z" fill="#E6E6E6"/>
<path d="M251.742 178.088L117.657 208.478C113.782 209.352 109.671 208.837 106.227 207.046C102.782 205.255 100.285 202.334 99.2837 198.924L71.1844 102.814C70.1915 99.4023 70.7763 95.783 72.8105 92.7503C74.8446 89.7176 78.162 87.5192 82.0349 86.6374L216.12 56.2477C219.995 55.3736 224.106 55.8885 227.55 57.6795C230.995 59.4705 233.492 62.3913 234.493 65.8012L262.593 161.911C263.585 165.323 263.001 168.943 260.967 171.975C258.932 175.008 255.615 177.206 251.742 178.088Z" fill="white"/>
<path d="M251.742 178.088L117.657 208.478C113.782 209.352 109.671 208.837 106.227 207.046C102.782 205.255 100.285 202.334 99.2837 198.924L71.1844 102.814C70.1915 99.4023 70.7763 95.783 72.8105 92.7503C74.8446 89.7176 78.162 87.5192 82.0349 86.6374L216.12 56.2477C219.995 55.3736 224.106 55.8885 227.55 57.6795C230.995 59.4705 233.492 62.3913 234.493 65.8012L262.593 161.911C263.585 165.323 263.001 168.943 260.967 171.975C258.932 175.008 255.615 177.206 251.742 178.088ZM82.4774 88.1509C79.0602 88.929 76.1331 90.8688 74.3383 93.5447C72.5434 96.2206 72.0274 99.4141 72.9034 102.425L101.003 198.535C101.886 201.544 104.09 204.121 107.129 205.701C110.168 207.281 113.795 207.736 117.214 206.964L251.3 176.575C254.717 175.797 257.644 173.857 259.439 171.181C261.234 168.505 261.75 165.311 260.874 162.301L232.774 66.1908C231.891 63.1821 229.687 60.6049 226.648 59.0246C223.609 57.4443 219.982 56.99 216.563 57.7613L82.4774 88.1509Z" fill="#E6E6E6"/>
<path d="M209.318 88.5638L141.647 103.901C141.055 104.046 140.423 103.989 139.878 103.739C139.333 103.49 138.915 103.068 138.71 102.558C138.615 102.292 138.582 102.011 138.614 101.733C138.646 101.455 138.741 101.186 138.895 100.942C139.049 100.698 139.258 100.484 139.509 100.313C139.76 100.142 140.048 100.018 140.355 99.9487L209.24 84.3363C212.022 85.5777 211.29 88.1168 209.317 88.564L209.318 88.5638Z" fill="#F2F2F2"/>
<path d="M212.373 99.0149L144.702 114.352C144.11 114.498 143.478 114.44 142.933 114.19C142.388 113.941 141.971 113.519 141.766 113.009C141.67 112.743 141.637 112.462 141.669 112.184C141.701 111.907 141.797 111.637 141.951 111.393C142.105 111.149 142.313 110.935 142.564 110.764C142.815 110.593 143.103 110.469 143.41 110.4L212.295 94.7874C215.078 96.0287 214.346 98.5678 212.372 99.015L212.373 99.0149Z" fill="#F2F2F2"/>
<path d="M131.813 123.618L111.16 128.299C110.486 128.451 109.77 128.362 109.171 128.05C108.571 127.738 108.137 127.23 107.962 126.636L101.689 105.178C101.516 104.584 101.618 103.954 101.972 103.426C102.326 102.898 102.903 102.515 103.577 102.362L124.23 97.6812C124.904 97.5292 125.62 97.6189 126.219 97.9306C126.819 98.2423 127.254 98.7506 127.428 99.3441L133.702 120.802C133.875 121.396 133.773 122.026 133.419 122.554C133.065 123.082 132.487 123.465 131.813 123.618V123.618Z" fill="#E6E6E6"/>
<path d="M218.433 120.458L115.154 143.865C114.563 144.011 113.93 143.953 113.385 143.704C112.84 143.454 112.423 143.032 112.218 142.522C112.122 142.256 112.09 141.976 112.121 141.698C112.153 141.42 112.249 141.151 112.403 140.906C112.557 140.662 112.765 140.448 113.016 140.277C113.267 140.107 113.555 139.983 113.862 139.913L218.356 116.23C221.138 117.472 220.406 120.011 218.433 120.458L218.433 120.458Z" fill="#F2F2F2"/>
<path d="M221.489 130.912L118.211 154.319C117.619 154.465 116.987 154.407 116.442 154.158C115.897 153.909 115.479 153.486 115.274 152.977C115.179 152.71 115.146 152.43 115.178 152.152C115.21 151.874 115.305 151.605 115.459 151.361C115.613 151.116 115.822 150.902 116.073 150.731C116.324 150.561 116.612 150.437 116.919 150.367L221.412 126.684C224.195 127.926 223.462 130.465 221.489 130.912V130.912Z" fill="#F2F2F2"/>
<path d="M224.543 141.359L121.265 164.767C120.673 164.912 120.041 164.854 119.496 164.605C118.951 164.356 118.534 163.934 118.328 163.424C118.233 163.158 118.2 162.877 118.232 162.599C118.264 162.321 118.36 162.052 118.513 161.808C118.667 161.564 118.876 161.35 119.127 161.179C119.378 161.008 119.666 160.884 119.973 160.814L224.466 137.132C227.249 138.373 226.517 140.912 224.543 141.359Z" fill="#F2F2F2"/>
<path d="M227.6 151.813L124.321 175.22C123.73 175.365 123.097 175.308 122.552 175.058C122.007 174.809 121.59 174.387 121.385 173.877C121.289 173.611 121.257 173.33 121.288 173.052C121.32 172.774 121.416 172.505 121.57 172.261C121.724 172.017 121.932 171.803 122.183 171.632C122.434 171.461 122.722 171.337 123.029 171.268L227.523 147.585C230.305 148.826 229.573 151.365 227.6 151.813L227.6 151.813Z" fill="#F2F2F2"/>
<path d="M230.654 162.261L127.376 185.668C126.784 185.814 126.152 185.756 125.607 185.506C125.062 185.257 124.644 184.835 124.439 184.325C124.344 184.059 124.311 183.778 124.343 183.5C124.375 183.223 124.47 182.953 124.624 182.709C124.778 182.465 124.987 182.251 125.238 182.08C125.489 181.909 125.777 181.785 126.084 181.716L230.577 158.033C233.36 159.274 232.627 161.813 230.654 162.261Z" fill="#F2F2F2"/>
<path d="M121.582 258.413C121.207 258.498 120.81 258.474 120.452 258.344L120.429 258.336L115.733 256.583C115.515 256.502 115.318 256.384 115.152 256.235C114.986 256.086 114.854 255.911 114.766 255.717C114.677 255.524 114.632 255.318 114.635 255.109C114.637 254.901 114.685 254.695 114.778 254.503C114.871 254.311 115.005 254.137 115.174 253.992C115.343 253.846 115.543 253.731 115.763 253.653C115.982 253.575 116.217 253.536 116.454 253.538C116.691 253.54 116.924 253.584 117.142 253.666L120.185 254.805L124.173 246.546C124.265 246.354 124.4 246.181 124.568 246.035C124.737 245.889 124.937 245.774 125.156 245.696C125.375 245.618 125.609 245.579 125.846 245.581C126.082 245.583 126.316 245.626 126.533 245.708L126.534 245.708L126.51 245.762L126.535 245.708C126.974 245.873 127.32 246.184 127.499 246.574C127.677 246.963 127.673 247.4 127.486 247.786L122.795 257.497C122.686 257.721 122.52 257.92 122.31 258.079C122.1 258.237 121.851 258.351 121.583 258.411L121.582 258.413Z" fill="white"/>
<path d="M410.466 363.119H181.48C173.715 363.112 166.27 360.392 160.78 355.558C155.289 350.723 152.2 344.169 152.191 337.332V100.554C152.2 93.7173 155.289 87.1626 160.78 82.3282C166.27 77.4937 173.715 74.7743 181.48 74.7666H394.514L439.755 106.516V337.332C439.746 344.169 436.657 350.723 431.167 355.558C425.676 360.392 418.231 363.112 410.466 363.119Z" fill="#E6E6E6"/>
<path d="M181.48 82.1903C175.95 82.1958 170.649 84.1323 166.739 87.575C162.828 91.0178 160.629 95.6855 160.623 100.554V337.332C160.629 342.201 162.828 346.868 166.739 350.311C170.649 353.754 175.95 355.69 181.48 355.696H410.466C415.995 355.69 421.297 353.754 425.207 350.311C429.117 346.868 431.317 342.201 431.323 337.332V110.092L391.564 82.1903H181.48Z" fill="white"/>
<path d="M365.928 151.039H261.674C260.381 151.039 259.14 150.586 258.225 149.781C257.311 148.976 256.797 147.883 256.797 146.745C256.797 145.606 257.311 144.513 258.225 143.708C259.14 142.903 260.381 142.45 261.674 142.45H365.928C367.222 142.45 368.462 142.903 369.377 143.708C370.292 144.513 370.806 145.606 370.806 146.745C370.806 147.883 370.292 148.976 369.377 149.781C368.462 150.586 367.222 151.039 365.928 151.039Z" fill="#F3821A"/>
<path d="M386.047 165.532H261.674C260.382 165.531 259.143 165.078 258.229 164.272C257.316 163.467 256.803 162.376 256.803 161.238C256.803 160.1 257.316 159.009 258.229 158.203C259.143 157.398 260.382 156.945 261.674 156.944H386.047C386.688 156.943 387.323 157.053 387.916 157.269C388.508 157.484 389.047 157.8 389.5 158.199C389.954 158.598 390.314 159.072 390.559 159.593C390.805 160.115 390.931 160.673 390.931 161.238C390.931 161.802 390.805 162.361 390.559 162.883C390.314 163.404 389.954 163.878 389.5 164.277C389.047 164.675 388.508 164.992 387.916 165.207C387.323 165.423 386.688 165.533 386.047 165.532Z" fill="#F3821A"/>
<path d="M365.929 207.4H261.678C260.385 207.4 259.144 207.852 258.229 208.657C257.315 209.463 256.801 210.555 256.801 211.694C256.801 212.832 257.315 213.925 258.229 214.73C259.144 215.535 260.385 215.988 261.678 215.988H365.929C367.222 215.988 368.463 215.535 369.377 214.73C370.292 213.925 370.806 212.832 370.806 211.694C370.806 210.555 370.292 209.463 369.377 208.657C368.463 207.852 367.222 207.4 365.929 207.4Z" fill="#CCCCCC"/>
<path d="M386.049 221.895H261.678C260.385 221.895 259.144 222.348 258.23 223.153C257.315 223.958 256.801 225.051 256.801 226.189C256.801 227.328 257.315 228.42 258.23 229.226C259.144 230.031 260.385 230.483 261.678 230.483H386.049C387.343 230.483 388.583 230.031 389.498 229.226C390.413 228.42 390.926 227.328 390.926 226.189C390.926 225.051 390.413 223.958 389.498 223.153C388.583 222.348 387.343 221.895 386.049 221.895Z" fill="#CCCCCC"/>
<path d="M365.928 280.942H261.674C260.381 280.942 259.14 280.49 258.225 279.685C257.311 278.879 256.797 277.787 256.797 276.648C256.797 275.509 257.311 274.417 258.225 273.612C259.14 272.806 260.381 272.354 261.674 272.354H365.928C367.222 272.354 368.462 272.806 369.377 273.612C370.292 274.417 370.806 275.509 370.806 276.648C370.806 277.787 370.292 278.879 369.377 279.685C368.462 280.49 367.222 280.942 365.928 280.942Z" fill="#CCCCCC"/>
<path d="M386.047 295.436H261.674C260.382 295.434 259.143 294.981 258.229 294.176C257.316 293.371 256.803 292.279 256.803 291.142C256.803 290.004 257.316 288.912 258.229 288.107C259.143 287.302 260.382 286.849 261.674 286.847H386.047C386.688 286.846 387.323 286.957 387.916 287.172C388.508 287.388 389.047 287.704 389.5 288.103C389.954 288.502 390.314 288.975 390.559 289.497C390.805 290.018 390.931 290.577 390.931 291.142C390.931 291.706 390.805 292.265 390.559 292.786C390.314 293.308 389.954 293.781 389.5 294.18C389.047 294.579 388.508 294.895 387.916 295.111C387.323 295.326 386.688 295.437 386.047 295.436Z" fill="#CCCCCC"/>
<path d="M218.26 169.169C227.781 169.169 235.499 162.374 235.499 153.991C235.499 145.609 227.781 138.813 218.26 138.813C208.739 138.813 201.021 145.609 201.021 153.991C201.021 162.374 208.739 169.169 218.26 169.169Z" fill="#F3821A"/>
<path d="M216.552 159.781C216.164 159.782 215.787 159.671 215.476 159.466L215.457 159.454L211.406 156.725C211.217 156.599 211.059 156.441 210.941 156.26C210.822 156.08 210.745 155.881 210.713 155.674C210.682 155.468 210.697 155.258 210.758 155.056C210.819 154.855 210.925 154.666 211.069 154.501C211.213 154.335 211.393 154.196 211.598 154.092C211.803 153.988 212.029 153.92 212.264 153.893C212.499 153.866 212.737 153.88 212.966 153.934C213.195 153.989 213.409 154.082 213.596 154.209L216.221 155.981L222.422 148.858C222.565 148.693 222.745 148.554 222.949 148.45C223.154 148.346 223.38 148.278 223.614 148.251C223.848 148.224 224.086 148.238 224.315 148.291C224.543 148.345 224.757 148.438 224.945 148.565L224.945 148.565L224.907 148.612L224.946 148.565C225.325 148.821 225.572 149.199 225.635 149.615C225.697 150.032 225.569 150.453 225.279 150.787L217.985 159.161C217.817 159.354 217.6 159.51 217.351 159.617C217.103 159.725 216.83 159.78 216.553 159.779L216.552 159.781Z" fill="white"/>
<path d="M237.271 218.941C237.272 220.935 236.827 222.909 235.961 224.751C235.095 226.593 233.826 228.267 232.225 229.677C230.624 231.087 228.724 232.205 226.632 232.968C224.541 233.732 222.299 234.125 220.035 234.125C219.887 234.128 219.739 234.122 219.591 234.109C216.201 234.033 212.913 233.078 210.137 231.364C207.36 229.65 205.22 227.253 203.983 224.473C202.746 221.694 202.468 218.655 203.183 215.736C203.898 212.818 205.575 210.15 208.003 208.067C210.432 205.984 213.504 204.577 216.836 204.023C220.168 203.47 223.611 203.793 226.735 204.954C229.859 206.115 232.525 208.061 234.399 210.549C236.273 213.037 237.272 215.956 237.271 218.941Z" fill="#CCCCCC"/>
<path d="M218.26 299.073C227.781 299.073 235.499 292.277 235.499 283.895C235.499 275.512 227.781 268.717 218.26 268.717C208.739 268.717 201.021 275.512 201.021 283.895C201.021 292.277 208.739 299.073 218.26 299.073Z" fill="#CCCCCC"/>
<path d="M438.874 107.538H403.435C400.848 107.538 398.367 106.633 396.538 105.022C394.708 103.411 393.681 101.227 393.681 98.9489V75.9034C393.681 75.8025 393.713 75.7036 393.774 75.6181C393.835 75.5327 393.922 75.464 394.025 75.4201C394.128 75.3762 394.243 75.3588 394.357 75.3698C394.471 75.3809 394.579 75.42 394.669 75.4826L439.253 106.58C439.352 106.649 439.424 106.744 439.46 106.851C439.495 106.958 439.491 107.072 439.45 107.177C439.408 107.283 439.33 107.374 439.227 107.438C439.124 107.503 439.001 107.538 438.874 107.538Z" fill="#CCCCCC"/>
<path d="M237.271 218.941C237.272 220.935 236.827 222.909 235.961 224.751C235.095 226.593 233.826 228.267 232.225 229.677C230.624 231.087 228.724 232.205 226.632 232.968C224.541 233.732 222.299 234.125 220.035 234.125C219.887 234.128 219.739 234.122 219.591 234.109C217.364 229.218 216.505 223.928 217.088 218.684C217.67 213.439 219.676 208.395 222.937 203.977C226.947 204.582 230.585 206.416 233.208 209.154C235.831 211.893 237.27 215.359 237.271 218.941Z" fill="#F3821A"/>
<path d="M256.797 211.697C256.799 210.558 257.314 209.466 258.229 208.661C259.144 207.855 260.384 207.402 261.678 207.4H287.656C289.174 210.117 290.252 213.007 290.86 215.988H261.678C260.385 215.987 259.145 215.535 258.23 214.731C257.315 213.927 256.799 212.836 256.797 211.697Z" fill="#F3821A"/>
<path d="M291.464 221.895C291.466 224.796 291.03 227.684 290.168 230.483H261.678C260.385 230.483 259.144 230.031 258.229 229.226C257.315 228.42 256.801 227.328 256.801 226.189C256.801 225.051 257.315 223.958 258.229 223.153C259.144 222.348 260.385 221.895 261.678 221.895H291.464Z" fill="#F3821A"/>
<path d="M355.741 274.86C355.006 275.921 353.821 276.682 352.449 276.975C351.076 277.268 349.628 277.068 348.422 276.421L286.29 243.053C285.693 242.732 285.173 242.311 284.761 241.814C284.349 241.317 284.052 240.753 283.887 240.154C283.723 239.556 283.693 238.935 283.801 238.326C283.909 237.718 284.152 237.134 284.517 236.609C284.881 236.083 285.359 235.626 285.924 235.263C286.489 234.9 287.129 234.638 287.809 234.493C288.489 234.348 289.194 234.323 289.885 234.418C290.576 234.513 291.239 234.727 291.836 235.047L353.968 268.415C355.174 269.063 356.038 270.106 356.371 271.314C356.703 272.523 356.477 273.798 355.741 274.86Z" fill="#3F3D56"/>
<path d="M293.609 241.492C289.221 247.825 282.799 252.871 275.155 255.991C267.51 259.11 258.986 260.164 250.661 259.019C242.337 257.873 234.585 254.58 228.385 249.556C222.186 244.531 217.819 238.001 215.835 230.791C213.851 223.581 214.34 216.015 217.24 209.049C220.14 202.084 225.321 196.032 232.127 191.659C238.933 187.286 247.06 184.789 255.478 184.482C263.897 184.175 272.23 186.074 279.423 189.937C289.059 195.125 295.964 203.467 298.624 213.132C301.283 222.797 299.48 232.996 293.609 241.492ZM229.961 207.31C226.671 212.06 225.054 217.563 225.315 223.122C225.576 228.681 227.704 234.047 231.429 238.542C235.154 243.036 240.309 246.458 246.242 248.373C252.175 250.288 258.62 250.61 264.762 249.3C270.904 247.99 276.466 245.106 280.746 241.013C285.026 236.919 287.832 231.8 288.807 226.303C289.783 220.805 288.885 215.177 286.228 210.129C283.57 205.081 279.272 200.84 273.877 197.942C266.64 194.066 257.952 192.875 249.719 194.631C241.486 196.387 234.381 200.947 229.961 207.31Z" fill="#3F3D56"/>
<path d="M430.105 227.973C442.144 227.973 451.904 219.38 451.904 208.78C451.904 198.18 442.144 189.587 430.105 189.587C418.066 189.587 408.306 198.18 408.306 208.78C408.306 219.38 418.066 227.973 430.105 227.973Z" fill="#A0616A"/>
<path d="M428.696 316.379C428.276 315.225 428.137 314.007 428.289 312.803C428.441 311.599 428.88 310.437 429.577 309.393C430.274 308.349 431.214 307.446 432.336 306.744C433.457 306.042 434.734 305.557 436.083 305.32C436.51 305.247 436.943 305.2 437.378 305.18L460.34 272.731L439.366 255.175C438.564 254.504 437.921 253.7 437.475 252.809C437.028 251.919 436.787 250.959 436.764 249.986C436.741 249.012 436.937 248.045 437.341 247.138C437.745 246.232 438.349 245.405 439.119 244.706C439.888 244.006 440.807 243.448 441.822 243.063C442.838 242.678 443.93 242.474 445.036 242.463C446.141 242.451 447.239 242.633 448.264 242.997C449.29 243.361 450.223 243.901 451.011 244.584L479.971 269.726L480.029 269.789C480.925 270.989 481.357 272.411 481.262 273.845C481.167 275.279 480.549 276.647 479.501 277.747L447.328 311.25C447.424 311.519 447.504 311.792 447.567 312.068C447.836 313.255 447.817 314.48 447.511 315.661C447.205 316.842 446.62 317.953 445.792 318.92C444.965 319.888 443.914 320.691 442.71 321.276C441.505 321.862 440.174 322.216 438.803 322.317C438.526 322.338 438.25 322.349 437.976 322.349C435.912 322.342 433.903 321.76 432.237 320.688C430.571 319.616 429.331 318.108 428.696 316.379Z" fill="#A0616A"/>
<path d="M394.202 475.9L383.321 475.899L378.145 438.946L394.204 438.947L394.202 475.9Z" fill="#A0616A"/>
<path d="M396.977 485.187L361.892 485.186V484.795C361.892 483.216 362.245 481.652 362.932 480.194C363.618 478.735 364.624 477.409 365.892 476.293C367.16 475.176 368.665 474.291 370.322 473.687C371.979 473.082 373.755 472.771 375.548 472.771H375.549L396.978 472.772L396.977 485.187Z" fill="#2F2E41"/>
<path d="M502.354 462.654L493.005 467.555L467.084 438.137L480.883 430.903L502.354 462.654Z" fill="#A0616A"/>
<path d="M510.135 469.383L479.989 485.187L479.762 484.851C478.844 483.494 478.239 481.992 477.981 480.429C477.723 478.867 477.817 477.275 478.258 475.744C478.699 474.214 479.477 472.775 480.55 471.509C481.622 470.244 482.968 469.177 484.508 468.369L484.509 468.368L502.921 458.716L510.135 469.383Z" fill="#2F2E41"/>
<path d="M376.773 459.626C369.483 384.056 365.147 313.852 391.793 285.213L391.999 284.991L436.843 300.785L436.917 300.926C437.068 301.216 451.982 330.1 448.503 349.527L459.564 394.326L495.63 447.496C495.92 447.924 496.104 448.402 496.169 448.897C496.234 449.392 496.178 449.894 496.006 450.369C495.834 450.844 495.549 451.281 495.171 451.652C494.792 452.023 494.328 452.318 493.81 452.519L478.137 458.591C477.252 458.929 476.259 458.977 475.338 458.723C474.417 458.47 473.631 457.933 473.123 457.211L433.891 400.884L411.731 357.681C411.61 357.447 411.406 357.254 411.148 357.132C410.891 357.01 410.595 356.966 410.306 357.007C410.018 357.048 409.752 357.171 409.551 357.358C409.35 357.544 409.224 357.784 409.193 358.04L396.91 459.703C396.807 460.567 396.344 461.367 395.61 461.948C394.877 462.529 393.925 462.849 392.938 462.848H380.754C379.754 462.843 378.792 462.51 378.056 461.914C377.32 461.319 376.863 460.503 376.773 459.626Z" fill="#2F2E41"/>
<path d="M391.944 285.812L391.731 285.722L391.697 285.515C390.022 275.192 392.005 263.723 397.591 251.425C400.344 245.406 405.461 240.458 412.01 237.483C418.559 234.507 426.105 233.703 433.271 235.215C437.4 236.111 441.272 237.752 444.642 240.033C448.012 242.315 450.808 245.189 452.851 248.471C454.868 251.721 456.097 255.303 456.459 258.992C456.822 262.681 456.31 266.396 454.957 269.902C447.915 288.032 438.781 304.995 438.689 305.164L438.498 305.518L391.944 285.812Z" fill="#F3821A"/>
<path d="M343.018 260.1C344.097 259.349 345.345 258.808 346.679 258.512C348.013 258.215 349.403 258.17 350.758 258.38C352.113 258.589 353.402 259.049 354.542 259.727C355.681 260.406 356.644 261.289 357.369 262.319C357.597 262.646 357.798 262.986 357.972 263.338L400.533 270.912L411.866 247.466C412.299 246.57 412.929 245.758 413.72 245.078C414.511 244.398 415.447 243.863 416.475 243.503C417.502 243.143 418.601 242.966 419.706 242.982C420.812 242.998 421.903 243.207 422.917 243.596C423.93 243.985 424.846 244.548 425.611 245.25C426.376 245.953 426.976 246.782 427.375 247.69C427.775 248.598 427.966 249.567 427.937 250.54C427.909 251.513 427.662 252.472 427.211 253.361L410.605 286.049L410.559 286.119C409.595 287.278 408.234 288.133 406.675 288.556C405.117 288.98 403.445 288.95 401.907 288.471L354.998 273.669C354.746 273.843 354.484 274.004 354.212 274.153C353.043 274.791 351.733 275.204 350.37 275.366C349.006 275.527 347.62 275.433 346.3 275.089C344.981 274.745 343.759 274.16 342.715 273.372C341.67 272.584 340.826 271.61 340.239 270.515C340.119 270.293 340.011 270.07 339.915 269.843C339.201 268.139 339.116 266.279 339.673 264.529C340.23 262.779 341.401 261.229 343.018 260.1Z" fill="#A0616A"/>
<path d="M508.855 229.334C506.756 226.059 503.697 223.059 499.652 221.848C494.429 220.284 488.774 221.949 483.404 223.061C479.267 223.917 474.944 224.441 470.774 223.719C466.604 222.996 462.581 220.859 460.684 217.511C457.893 212.585 460.244 206.711 460.074 201.208C459.987 198.212 459.129 195.273 457.564 192.612C455.999 189.951 453.768 187.638 451.04 185.846C448.312 184.055 445.157 182.832 441.814 182.269C438.471 181.707 435.027 181.821 431.741 182.601C426.599 181.295 421.944 181.174 418.763 184.654C414.761 184.654 410.924 186.054 408.094 188.545C405.265 191.036 403.675 194.415 403.675 197.939H418.102C417.418 201.178 418.2 204.524 420.28 207.262C422.827 210.557 427.256 212.94 428.108 216.854C428.935 220.646 426.006 224.245 422.935 227.002C419.863 229.759 416.3 232.491 415.341 236.259C414.754 239.12 415.421 242.07 417.208 244.515C418.992 246.93 421.206 249.076 423.764 250.872C435.289 259.566 448.986 265.735 463.736 268.877C474.124 271.079 485.486 271.65 495.13 267.599C498.987 265.979 502.425 263.677 505.23 260.837C508.035 257.998 510.146 254.681 511.433 251.092C512.721 247.504 513.156 243.72 512.713 239.977C512.269 236.234 510.956 232.612 508.855 229.334Z" fill="#2F2E41"/>
<path d="M512.112 486H343.48C343.244 486 343.018 485.918 342.852 485.771C342.686 485.624 342.592 485.426 342.592 485.218C342.592 485.011 342.686 484.812 342.852 484.666C343.018 484.519 343.244 484.437 343.48 484.437H512.112C512.348 484.437 512.574 484.519 512.74 484.666C512.906 484.812 513 485.011 513 485.218C513 485.426 512.906 485.624 512.74 485.771C512.574 485.918 512.348 486 512.112 486Z" fill="#CCCCCC"/>
</g>
<defs>
<clipPath id="clip0_70_76">
<rect width="513" height="486" fill="white"/>
</clipPath>
</defs>
</svg>
