<svg width="586" height="398" viewBox="0 0 586 398" fill="none" xmlns="http://www.w3.org/2000/svg">
<g clip-path="url(#clip0_54_139)">
<path d="M582.175 328.716H292.261C291.247 328.715 290.274 328.309 289.557 327.587C288.84 326.865 288.437 325.887 288.436 324.867V3.84913C288.437 2.82864 288.84 1.85027 289.557 1.12867C290.274 0.407074 291.247 0.00116748 292.261 0H582.175C583.189 0.00116748 584.161 0.407074 584.878 1.12867C585.595 1.85027 585.999 2.82864 586 3.84913V324.867C585.999 325.887 585.595 326.865 584.878 327.587C584.161 328.309 583.189 328.715 582.175 328.716ZM292.261 1.53965C291.652 1.54032 291.069 1.78385 290.639 2.21682C290.208 2.64979 289.966 3.23682 289.966 3.84913V324.867C289.966 325.479 290.208 326.066 290.639 326.499C291.069 326.932 291.652 327.175 292.261 327.176H582.175C582.784 327.175 583.367 326.932 583.797 326.499C584.227 326.066 584.469 325.479 584.47 324.867V3.84913C584.469 3.23682 584.227 2.64979 583.797 2.21682C583.367 1.78385 582.784 1.54032 582.175 1.53965H292.261Z" fill="#3F3D56"/>
<path d="M417.329 122.402H345.424C344.41 122.401 343.438 121.995 342.721 121.274C342.004 120.552 341.601 119.574 341.6 118.553V46.1896C341.601 45.1691 342.004 44.1907 342.721 43.4691C343.438 42.7475 344.41 42.3416 345.424 42.3405H417.329C418.343 42.3416 419.315 42.7475 420.033 43.4691C420.75 44.1907 421.153 45.1691 421.154 46.1896V118.553C421.153 119.574 420.75 120.552 420.033 121.274C419.315 121.995 418.343 122.401 417.329 122.402ZM345.424 43.8801C344.816 43.8808 344.233 44.1243 343.802 44.5573C343.372 44.9902 343.13 45.5773 343.13 46.1896V118.553C343.13 119.166 343.372 119.753 343.802 120.186C344.233 120.618 344.816 120.862 345.424 120.863H417.329C417.938 120.862 418.521 120.618 418.951 120.186C419.381 119.753 419.623 119.166 419.624 118.553V46.1896C419.623 45.5773 419.381 44.9902 418.951 44.5573C418.521 44.1243 417.938 43.8808 417.329 43.8801H345.424Z" fill="#F2F2F2"/>
<path d="M396.676 131.255H324.771C323.858 131.254 322.983 130.889 322.338 130.24C321.693 129.59 321.33 128.71 321.329 127.791V55.4275C321.33 54.509 321.693 53.6285 322.338 52.9791C322.983 52.3296 323.858 51.9643 324.771 51.9633H396.676C397.588 51.9643 398.463 52.3296 399.109 52.979C399.754 53.6285 400.117 54.509 400.118 55.4275V127.791C400.117 128.71 399.754 129.59 399.109 130.24C398.463 130.889 397.588 131.254 396.676 131.255Z" fill="#F3821A"/>
<path d="M549.665 166.667H324.771C323.858 166.667 322.982 166.302 322.337 165.653C321.691 165.003 321.329 164.122 321.329 163.203C321.329 162.284 321.691 161.403 322.337 160.754C322.982 160.104 323.858 159.739 324.771 159.739H549.665C550.578 159.739 551.454 160.104 552.099 160.754C552.745 161.403 553.107 162.284 553.107 163.203C553.107 164.122 552.745 165.003 552.099 165.653C551.454 166.302 550.578 166.667 549.665 166.667Z" fill="#CCCCCC"/>
<path d="M495.354 190.532H324.771C323.858 190.532 322.982 190.167 322.337 189.517C321.691 188.868 321.329 187.986 321.329 187.068C321.329 186.149 321.691 185.268 322.337 184.618C322.982 183.968 323.858 183.604 324.771 183.604H495.354C496.267 183.604 497.142 183.968 497.788 184.618C498.433 185.268 498.796 186.149 498.796 187.068C498.796 187.986 498.433 188.868 497.788 189.517C497.142 190.167 496.267 190.532 495.354 190.532Z" fill="#CCCCCC"/>
<path d="M548.9 78.9071H449.457C448.544 78.9071 447.669 78.5422 447.023 77.8925C446.377 77.2428 446.015 76.3617 446.015 75.4429C446.015 74.5241 446.377 73.643 447.023 72.9933C447.669 72.3437 448.544 71.9787 449.457 71.9787H548.9C549.813 71.9787 550.689 72.3437 551.334 72.9933C551.98 73.643 552.342 74.5241 552.342 75.4429C552.342 76.3617 551.98 77.2428 551.334 77.8925C550.689 78.5422 549.813 78.9071 548.9 78.9071Z" fill="#CCCCCC"/>
<path d="M524.082 102.772H449.457C448.544 102.772 447.669 102.407 447.023 101.757C446.377 101.107 446.015 100.226 446.015 99.3075C446.015 98.3888 446.377 97.5076 447.023 96.858C447.669 96.2083 448.544 95.8433 449.457 95.8433H524.082C524.995 95.8433 525.871 96.2083 526.516 96.858C527.162 97.5076 527.525 98.3888 527.525 99.3075C527.525 100.226 527.162 101.107 526.516 101.757C525.871 102.407 524.995 102.772 524.082 102.772Z" fill="#CCCCCC"/>
<path d="M549.665 214.397H324.771C323.858 214.397 322.982 214.032 322.337 213.382C321.691 212.732 321.329 211.851 321.329 210.932C321.329 210.014 321.691 209.132 322.337 208.483C322.982 207.833 323.858 207.468 324.771 207.468H549.665C550.578 207.468 551.454 207.833 552.099 208.483C552.745 209.132 553.107 210.014 553.107 210.932C553.107 211.851 552.745 212.732 552.099 213.382C551.454 214.032 550.578 214.397 549.665 214.397Z" fill="#CCCCCC"/>
<path d="M495.354 238.261H324.771C323.858 238.261 322.982 237.896 322.337 237.246C321.691 236.597 321.329 235.716 321.329 234.797C321.329 233.878 321.691 232.997 322.337 232.347C322.982 231.698 323.858 231.333 324.771 231.333H495.354C496.267 231.333 497.142 231.698 497.788 232.347C498.433 232.997 498.796 233.878 498.796 234.797C498.796 235.716 498.433 236.597 497.788 237.246C497.142 237.896 496.267 238.261 495.354 238.261Z" fill="#CCCCCC"/>
<path d="M549.665 262.126H324.771C323.858 262.126 322.982 261.761 322.337 261.111C321.691 260.461 321.329 259.58 321.329 258.661C321.329 257.743 321.691 256.862 322.337 256.212C322.982 255.562 323.858 255.197 324.771 255.197H549.665C550.578 255.197 551.454 255.562 552.099 256.212C552.745 256.862 553.107 257.743 553.107 258.661C553.107 259.58 552.745 260.461 552.099 261.111C551.454 261.761 550.578 262.126 549.665 262.126Z" fill="#CCCCCC"/>
<path d="M549.665 285.99H324.771C323.858 285.99 322.982 285.625 322.337 284.976C321.691 284.326 321.329 283.445 321.329 282.526C321.329 281.607 321.691 280.726 322.337 280.077C322.982 279.427 323.858 279.062 324.771 279.062H549.665C550.578 279.062 551.454 279.427 552.099 280.077C552.745 280.726 553.107 281.607 553.107 282.526C553.107 283.445 552.745 284.326 552.099 284.976C551.454 285.625 550.578 285.99 549.665 285.99Z" fill="#CCCCCC"/>
<path d="M368.319 298.932H203.855C202.841 298.931 201.869 298.525 201.152 297.803C200.435 297.082 200.032 296.103 200.03 295.083V192.696C200.032 191.675 200.435 190.697 201.152 189.975C201.869 189.254 202.841 188.848 203.855 188.847H368.319C369.333 188.848 370.305 189.254 371.022 189.975C371.739 190.697 372.142 191.675 372.143 192.696V295.083C372.142 296.103 371.739 297.082 371.022 297.803C370.305 298.525 369.333 298.931 368.319 298.932Z" fill="white"/>
<path d="M368.319 298.932H203.855C202.841 298.931 201.869 298.525 201.152 297.803C200.435 297.082 200.032 296.103 200.03 295.083V192.696C200.032 191.675 200.435 190.697 201.152 189.975C201.869 189.254 202.841 188.848 203.855 188.847H368.319C369.333 188.848 370.305 189.254 371.022 189.975C371.739 190.697 372.142 191.675 372.143 192.696V295.083C372.142 296.103 371.739 297.082 371.022 297.803C370.305 298.525 369.333 298.931 368.319 298.932ZM203.855 190.386C203.247 190.387 202.663 190.631 202.233 191.064C201.803 191.497 201.561 192.084 201.56 192.696V295.083C201.561 295.695 201.803 296.282 202.233 296.715C202.663 297.148 203.247 297.392 203.855 297.392H368.319C368.927 297.392 369.51 297.148 369.941 296.715C370.371 296.282 370.613 295.695 370.613 295.083V192.696C370.613 192.084 370.371 191.497 369.941 191.064C369.51 190.631 368.927 190.387 368.319 190.386H203.855Z" fill="#3F3D56"/>
<path d="M335.808 235.421H236.365C235.452 235.421 234.577 235.056 233.931 234.407C233.286 233.757 232.923 232.876 232.923 231.957C232.923 231.038 233.286 230.157 233.931 229.507C234.577 228.858 235.452 228.493 236.365 228.493H335.808C336.721 228.493 337.597 228.858 338.242 229.507C338.888 230.157 339.251 231.038 339.251 231.957C339.251 232.876 338.888 233.757 338.242 234.407C337.597 235.056 336.721 235.421 335.808 235.421Z" fill="#CCCCCC"/>
<path d="M335.808 259.286H236.365C235.452 259.286 234.577 258.921 233.931 258.271C233.286 257.622 232.923 256.74 232.923 255.822C232.923 254.903 233.286 254.022 233.931 253.372C234.577 252.722 235.452 252.357 236.365 252.357H335.808C336.721 252.357 337.597 252.722 338.242 253.372C338.888 254.022 339.251 254.903 339.251 255.822C339.251 256.74 338.888 257.622 338.242 258.271C337.597 258.921 336.721 259.286 335.808 259.286Z" fill="#CCCCCC"/>
<path d="M176.194 388.678H185.572L190.033 352.275L176.192 352.275L176.194 388.678Z" fill="#A0616A"/>
<path d="M173.802 385.597L192.271 385.596H192.271C195.393 385.596 198.386 386.844 200.594 389.066C202.801 391.287 204.041 394.3 204.041 397.441V397.826L173.802 397.827L173.802 385.597Z" fill="#2F2E41"/>
<path d="M103.173 384.593L112.446 386.003L122.264 350.68L110.109 348.599L103.173 384.593Z" fill="#A0616A"/>
<path d="M101.265 381.186L119.527 383.964L119.527 383.964C122.614 384.434 125.388 386.118 127.241 388.647C129.093 391.175 129.872 394.34 129.405 397.446L129.348 397.827L99.449 393.279L101.265 381.186Z" fill="#2F2E41"/>
<path d="M132.088 208.271L142.501 211.017L141.808 228.006L141.722 258.939C142.748 259.653 143.534 260.664 143.977 261.838C144.42 263.011 144.498 264.292 144.202 265.512C143.905 266.731 143.248 267.831 142.316 268.666C141.385 269.501 140.224 270.032 138.986 270.189C137.749 270.345 136.493 270.12 135.385 269.542C134.278 268.965 133.37 268.063 132.783 266.955C132.196 265.848 131.957 264.587 132.098 263.34C132.238 262.092 132.751 260.917 133.57 259.97L130.37 228.924L132.088 208.271Z" fill="#A0616A"/>
<path d="M130.275 188.811C130.333 187.169 130.859 185.579 131.791 184.23C132.723 182.881 134.021 181.83 135.53 181.204C136.943 180.568 138.509 180.36 140.037 180.608C141.566 180.855 142.989 181.546 144.132 182.596C144.954 183.335 145.606 184.246 146.042 185.264C146.478 186.282 146.688 187.384 146.658 188.493C146.685 198.446 144.453 212.953 144.43 213.098L144.394 213.329L129.174 218.487L130.275 188.811Z" fill="#F3821A"/>
<path d="M157.489 217.064L180.769 210.999L191.529 247.472L191.912 383.346L174.11 383.234L166.669 273.261L119.242 374.878L100.118 372.568L141.808 263.638C141.808 263.638 139.513 244.392 146.78 234.77L145.25 224.762L157.489 217.064Z" fill="#2F2E41"/>
<path d="M141.793 226.138C141.467 225.74 141.231 225.276 141.099 224.778C140.968 224.279 140.945 223.758 141.032 223.25L130.413 191.191C129.917 189.693 129.865 188.081 130.261 186.553C130.658 185.025 131.487 183.646 132.648 182.583L137.258 178.366L140.382 165.791L158.336 170.207L156.857 176.162L164.983 174.676L182.098 213.038L146.323 227.429L144.561 227.456C144.031 227.457 143.508 227.34 143.029 227.111C142.55 226.883 142.128 226.551 141.793 226.138Z" fill="#F3821A"/>
<path d="M166.713 199.07L176.971 195.789L185.41 210.52L201.767 236.709C203.014 236.761 204.215 237.192 205.212 237.946C206.21 238.699 206.957 239.74 207.354 240.93C207.751 242.12 207.779 243.403 207.436 244.61C207.092 245.817 206.393 246.89 205.43 247.688C204.467 248.486 203.286 248.971 202.044 249.079C200.801 249.187 199.555 248.913 198.47 248.293C197.386 247.672 196.514 246.735 195.97 245.606C195.427 244.476 195.236 243.207 195.425 241.966L176.231 217.449L166.713 199.07Z" fill="#A0616A"/>
<path d="M154.845 183.597C154.021 182.179 153.621 180.552 153.692 178.911C153.763 177.269 154.302 175.683 155.245 174.342C156.102 173.045 157.316 172.028 158.739 171.415C160.161 170.802 161.731 170.62 163.255 170.892C164.342 171.074 165.376 171.493 166.286 172.119C167.195 172.745 167.958 173.563 168.521 174.517C173.831 182.913 179.649 196.376 179.707 196.51L179.8 196.724L169.676 209.271L154.845 183.597Z" fill="#F3821A"/>
<path d="M153.666 163.451C161.544 163.451 167.931 157.023 167.931 149.094C167.931 141.166 161.544 134.738 153.666 134.738C145.787 134.738 139.4 141.166 139.4 149.094C139.4 157.023 145.787 163.451 153.666 163.451Z" fill="#A0616A"/>
<path d="M128.456 143.039C136.045 143.039 142.197 136.847 142.197 129.21C142.197 121.572 136.045 115.381 128.456 115.381C120.867 115.381 114.714 121.572 114.714 129.21C114.714 136.847 120.867 143.039 128.456 143.039Z" fill="#2F2E41"/>
<path d="M116.603 140.661C118.382 141.955 120.442 142.801 122.612 143.129C124.782 143.457 126.999 143.257 129.077 142.546C131.154 141.835 133.033 140.634 134.554 139.042C136.076 137.451 137.197 135.516 137.823 133.4C137.586 135.297 136.961 137.123 135.987 138.765C135.013 140.406 133.712 141.826 132.165 142.936C130.618 144.046 128.859 144.82 127 145.211C125.14 145.603 123.221 145.601 121.362 145.208C119.503 144.815 117.745 144.038 116.199 142.926C114.654 141.815 113.354 140.393 112.382 138.751C111.41 137.108 110.787 135.281 110.552 133.383C110.317 131.486 110.476 129.561 111.018 127.729C110.71 130.19 111.066 132.69 112.049 134.965C113.032 137.241 114.605 139.208 116.603 140.661Z" fill="#2F2E41"/>
<path d="M170.832 140.676C168.433 136.354 167.515 134.549 164.422 131.921C161.687 129.596 158.323 128.914 155.609 131.116C152.399 129.72 148.827 129.404 145.424 130.214C142.02 131.024 138.968 132.917 136.719 135.612C134.47 138.307 133.144 141.66 132.94 145.173C132.735 148.686 133.662 152.172 135.583 155.113C137.504 158.054 140.316 160.293 143.602 161.497C146.888 162.701 150.473 162.807 153.823 161.798C157.173 160.789 160.11 158.719 162.199 155.896C164.287 153.073 165.415 149.648 165.415 146.128C165.412 145.51 165.375 144.893 165.304 144.279C167.663 143.946 168.473 141.01 170.832 140.676Z" fill="#2F2E41"/>
<path d="M292.209 398H0.764946C0.56207 398 0.367502 397.919 0.224047 397.774C0.0805917 397.63 0 397.434 0 397.23C0 397.026 0.0805917 396.83 0.224047 396.686C0.367502 396.541 0.56207 396.46 0.764946 396.46H292.209C292.412 396.46 292.607 396.541 292.75 396.686C292.894 396.83 292.974 397.026 292.974 397.23C292.974 397.434 292.894 397.63 292.75 397.774C292.607 397.919 292.412 398 292.209 398Z" fill="#CCCCCC"/>
<rect x="41" y="397" width="58" height="58" fill="#D9D9D9"/>
</g>
<defs>
<clipPath id="clip0_54_139">
<rect width="586" height="398" fill="white"/>
</clipPath>
</defs>
</svg>
